<svg width="370" height="45" viewBox="0 0 370 45" fill="none" xmlns="http://www.w3.org/2000/svg">
<path d="M38.436 22.3649C38.436 10.4817 47.0854 0.865402 60.3591 0.865402C73.7613 0.865402 82.2823 10.4798 82.2823 22.3649C82.2823 34.248 73.6329 43.8644 60.3591 43.8644C47.0854 43.8644 38.436 34.248 38.436 22.3649ZM43.6936 22.4928C43.6936 31.4566 50.2958 38.8529 60.3591 38.8529C70.5473 38.8529 77.1573 31.4612 77.0247 22.4891C77.0229 13.5269 70.4211 6.13269 60.3591 6.13269C50.2984 6.13269 43.6936 13.3984 43.6936 22.4928Z" fill="white" stroke="white"/>
<path d="M193.313 1.76076L183.993 32.3235L183.971 32.3948V32.4693V43.097H178.844V32.4693V32.3948L178.822 32.3235L169.502 1.76076H174.827L180.858 25.1756H181.826L187.857 1.76076H193.313Z" fill="white" stroke="white"/>
<path d="M133.818 24.7878L133.819 24.7883C139.291 29.5467 138.161 38.8291 131.583 41.9949L131.583 41.9948L131.574 41.9998C128.164 43.7346 124.502 44.1083 120.957 43.3641C118.867 42.8809 115.931 41.6915 113.788 40.2622V32.8972C114.7 34.3638 115.824 35.62 117.317 36.5966L117.32 36.599C120.792 38.8262 125.429 39.681 128.651 37.8954C130.529 36.8713 131.741 35.2155 132.064 33.4208C132.389 31.6152 131.804 29.7154 130.178 28.2594L130.17 28.2519L130.161 28.2447C128.563 26.938 126.706 25.8969 124.895 24.8814L124.875 24.8702L124.868 24.8666L124.862 24.8633C122.91 23.8421 121.232 22.9555 119.038 21.5626C117.193 20.3136 115.793 18.9294 114.898 17.3246C114.006 15.7246 113.599 13.8754 113.786 11.6642C114.161 7.49714 116.396 4.32409 120.282 2.47949L120.282 2.47953L120.287 2.4767C123.295 1.00145 127.082 0.746636 130.504 1.61705L130.504 1.61722L130.517 1.62014C132.059 1.96944 134.43 2.99641 135.863 3.84397V3.85502V3.8758V3.89656V3.91731V3.93804V3.95876V3.97947V4.00016V4.02084V4.04151V4.06216V4.0828V4.10343V4.12404V4.14464V4.16523V4.1858V4.20636V4.2269V4.24744V4.26796V4.28846V4.30896V4.32944V4.3499V4.37036V4.3908V4.41123V4.43165V4.45205V4.47244V4.49282V4.51318V4.53354V4.55388V4.5742V4.59452V4.61482V4.63512V4.65539V4.67566V4.69591V4.71616V4.73639V4.75661V4.77681V4.79701V4.81719V4.83736V4.85752V4.87766V4.8978V4.91792V4.93804V4.95814V4.97822V4.9983V5.01837V5.03842V5.05847V5.0785V5.09852V5.11853V5.13853V5.15851V5.17849V5.19845V5.21841V5.23835V5.25828V5.27821V5.29812V5.31802V5.33791V5.35778V5.37765V5.39751V5.41736V5.43719V5.45702V5.47683V5.49664V5.51644V5.53622V5.55599V5.57576V5.59551V5.61526V5.63499V5.65472V5.67443V5.69413V5.71383V5.73351V5.75319V5.77285V5.79251V5.81216V5.83179V5.85142V5.87104V5.89064V5.91024V5.92983V5.94941V5.96898V5.98854V6.0081V6.02764V6.04718V6.0667V6.08622V6.10572V6.12522V6.14471V6.16419V6.18367V6.20313V6.22258V6.24203V6.26147V6.2809V6.30032V6.31973V6.33914V6.35853V6.37792V6.3973V6.41667V6.43603V6.45539V6.47473V6.49407V6.5134V6.53272V6.55204V6.57135V6.59065V6.60994V6.62922V6.6485V6.66777V6.68703V6.70628V6.72553V6.74477V6.764V6.78322V6.80244V6.82165V6.84085V6.86005V6.87923V6.89842V6.91759V6.93676V6.95592V6.97507V6.99422V7.01336V7.03249V7.05162V7.07074V7.08985V7.10896V7.12806V7.14715V7.16624V7.18532V7.20439V7.22346V7.24252V7.26158V7.28063V7.29967V7.31871V7.33774V7.35677V7.37579V7.3948V7.41381V7.43281V7.45181V7.4708V7.48979V7.50877V7.52774V7.54671V7.56567V7.58463V7.60358V7.62253V7.64147V7.66041V7.67934V7.69827V7.71719V7.73611V7.75502V7.77392V7.79283V7.81172V7.83061V7.8495V7.86838V7.88726V7.90614V7.925V7.94387V7.96273V7.98158V8.00043V8.01928V8.03812V8.05696V8.07579V8.09462V8.11345V8.13227V8.15109V8.1699V8.18871V8.20752V8.22632V8.24512V8.26391V8.2827V8.30149V8.32027V8.33905V8.35783V8.3766V8.39537V8.41413V8.4329V8.45166V8.47041V8.48916V8.50791V8.52666V8.5454V8.56414V8.58288V8.60162V8.62035V8.63908V8.6578V8.67653V8.69525V8.71396V8.73268V8.75139V8.7701V8.78881V8.80752V8.82622V8.84492V8.86362V8.88231V8.90101V8.9197V8.93839V8.95708V8.97576V8.99444V9.01313V9.03181V9.05048V9.06916V9.08783V9.10651V9.12518V9.14385V9.16252V9.18118V9.19985V9.21851V9.23717V9.25583V9.27449V9.29315V9.31181V9.33046V9.34912V9.36777V9.38643V9.40508V9.42373V9.44238V9.46103V9.47968V9.49832V9.51697V9.53562V9.55426V9.57291V9.59155V9.6102V9.62884V9.64748V9.66613V9.68477V9.70341V9.72206V9.7407V9.75934V9.77798V9.79663V9.81527V9.83391V9.85255V9.8712V9.88984V9.90848V9.92712V9.94577V9.96441V9.98306V10.0017V10.0203V10.039V10.0576V10.0763V10.0949V10.1136V10.1322V10.1509V10.1695V10.1882V10.2068V10.2255V10.2442V10.2628V10.2815V10.3001V10.3188V10.3375V10.3561V10.3748V10.3935V10.4121V10.4308V10.4495V10.4681V10.4868V10.5055V10.5242V10.5428V10.5615V10.5802V10.5989V10.6176V10.6363V10.655V10.6737V10.6924V10.711V10.7297V10.7485V10.7672V10.7859V10.8046V10.8233V10.842V10.8607V10.8794V10.8982V10.9169V10.9356V10.9544V10.9731V10.9918V11.0106V11.0293V11.0481V11.0668V11.0856V11.1043V11.1231V11.1418V11.1606V11.1794V11.1981V11.2169V11.2357V11.2545V11.2733V11.2921V11.2996C134.83 9.62339 133.474 8.16705 131.784 7.21944L131.776 7.21481L131.767 7.2105C128.647 5.61346 124.818 5.46115 121.91 7.09053C118.392 9.02509 117.492 13.6443 120.508 16.4626L120.508 16.4626L120.515 16.469C121.956 17.7649 123.716 18.7434 125.357 19.6563C125.557 19.7673 125.755 19.8773 125.95 19.9868C126.622 20.3635 127.293 20.721 127.957 21.0747C130.053 22.1907 132.076 23.2683 133.818 24.7878Z" fill="white" stroke="white"/>
<path d="M209.301 43.097L215.665 1.76076H220.656L214.673 43.097H209.301Z" fill="white" stroke="white"/>
<path d="M233.165 43.097H227.922L221.812 1.76086H226.801L233.165 43.097Z" fill="white" stroke="white"/>
<path d="M256.541 1.76076V1.77935V1.80425V1.8297V1.85569V1.88223V1.90931V1.93693V1.96508V1.99377V2.02299V2.05274V2.08302V2.11382V2.14515V2.17699V2.20935V2.24223V2.27562V2.30952V2.34393V2.37884V2.41426V2.45017V2.48659V2.5235V2.56091V2.5988V2.63719V2.67606V2.71541V2.75525V2.79556V2.83635V2.87762V2.91936V2.96156V3.00424V3.04738V3.09098V3.13504V3.17955V3.22453V3.26995V3.31583V3.36215V3.40892V3.45613V3.50378V3.55187V3.60039V3.64935V3.69874V3.74856V3.7988V3.84947V3.90056V3.95207V4.00399V4.05633V4.10908V4.16224V4.2158V4.26977V4.32414V4.37891V4.43408V4.48965V4.5456V4.60195V4.65868V4.7158V4.7733V4.83118V4.88944V4.94807V5.00708V5.06646V5.1262V5.18632V5.24679V5.30763V5.36882V5.43038V5.49228V5.55454V5.61714V5.6801V5.74339V5.80703V5.87101V5.93532V5.99997V6.06496V6.13027V6.19591V6.26187V6.32815V6.39476V6.46168V6.52892V6.59648V6.66434V6.73251V6.80099V6.86977V6.93885V7.00822V7.0779V7.14787V7.21813V7.28868V7.35951V7.43063V7.50203V7.57371V7.64567V7.7179V7.7904V7.86317V7.93621V8.00952V8.08309V8.15691V8.231V8.30534V8.37993V8.45477V8.52986V8.6052V8.68078V8.7566V8.83265V8.90895V8.98548V9.06223V9.13922V9.21643V9.29387V9.37153V9.44941V9.5275V9.60581V9.68433V9.76306V9.842V9.92114V10.0005V10.08V10.1598V10.2397V10.3198V10.4001V10.4806V10.5613V10.6422V10.7233V10.8045V10.8859V10.9675V11.0492V11.1312V11.2133V11.2955V11.3779V11.4605V11.5432V11.6261V11.7091V11.7923V11.8756V11.9591V12.0427V12.1265V12.2104V12.2944V12.3786V12.4628V12.5473V12.6318V12.7165V12.8013V12.8862V12.9712V13.0563V13.1415V13.2269V13.3124V13.3979V13.4836V13.5693V13.6552V13.7411V13.8272V13.9133V13.9995V14.0858V14.1722V14.2587V14.3452V14.4318V14.5185V14.6053V14.6921V14.779V14.8659V14.9529V15.04V15.1271V15.2143V15.3015V15.3888V15.4761V15.5635V15.6509V15.7383V15.8258V15.9133V16.0009V16.0884V16.176V16.2637V16.3513V16.439V16.5267V16.6144V16.7021V16.7898V16.8775V16.9652V17.053V17.1407V17.2284V17.3162V17.4039V17.4916V17.5793V17.667V17.7546V17.8423V17.9299V18.0175V18.1051V18.1926V18.2801V18.3676V18.455V18.5424V18.6298V18.7171V18.8044V18.8916V18.9788V19.0659V19.153V19.24V19.3269V19.4138V19.5007V19.5874V19.6741V19.7607V19.8472V19.9337V20.0201V20.1064V20.1926V20.2787V20.3648V20.4507V20.5366V20.6223V20.708V20.7935V20.879V20.9643V21.0496V21.1347V21.2197V21.3046V21.3894V21.474V21.5586V21.643V21.7273V21.8114V21.8955V21.9794V22.0631V22.1467V22.2302V22.3135V22.3967V22.4797V22.5626V22.6453V22.7279V22.8103V22.8925V22.9746V23.0565V23.1383V23.2199V23.3013V23.3825V23.4635V23.5444V23.6251V23.7056V23.7859V23.866V23.946V24.0257V24.1052V24.1846V24.2637V24.3426V24.4214V24.4999V24.5782V24.6563V24.7341V24.8118V24.8892V24.9664V25.0434V25.1202V25.1967V25.273V25.349V25.4248V25.5004V25.5757V25.6508V25.7256V25.8002V25.8746V25.9486V26.0225V26.096V26.1693V26.2423V26.3151V26.3876V26.4598V26.5318V26.6034V26.6748V26.746V26.8168V26.8873V26.9576V27.0275V27.0972V27.1666V27.2356V27.3044V27.3729V27.441V27.5089V27.5764V27.6437V27.7106V27.7772V27.8435V27.9094V27.975V28.0403V28.1053V28.17V28.2343V28.2982V28.3619V28.4251V28.4881V28.5507V28.6129V28.6748V28.7364V28.7976V28.8584V28.9188V28.9789V29.0387V29.098V29.157V29.2157V29.2739V29.3318V29.3893V29.4464V29.5031V29.5594V29.6154V29.6709V29.7261V29.7809V29.8352V29.8892V29.9427V29.9959V30.0486V30.1009V30.1528V30.2043V30.2554V30.3061V30.3563V30.4061V30.4555V30.5044V30.5529V30.601V30.6487V30.6959V30.7426V30.7889V30.8348V30.8802V30.9252V30.9697V31.0137V31.0573V31.1004V31.1431V31.1853V31.227V31.2683V31.309V31.3493V31.3892V31.4285V31.4674V31.5057V31.5436V31.581V31.6179V31.6543V31.6902V31.7256V31.7605V31.7949V31.8288V31.8622V31.895V31.9274V31.9592V31.9905V32.0213V32.0516V32.0813V32.1105V32.1392V32.1673V32.1949V32.222V32.2485V32.2745V32.2999V32.3248V32.3491V32.3729V32.3961V32.4188V32.4409V32.4624V32.4834V32.5038V32.5236V32.5429V32.5616V32.5797V32.5972C256.541 36.2216 253.556 38.9808 249.914 38.9808C246.271 38.9808 243.286 36.2216 243.286 32.5972V32.5894V32.5809V32.5718V32.562V32.5516V32.5405V32.5288V32.5164V32.5034V32.4898V32.4755V32.4606V32.4451V32.4289V32.4122V32.3948V32.3768V32.3582V32.3389V32.3191V32.2987V32.2776V32.256V32.2337V32.2109V32.1874V32.1634V32.1388V32.1136V32.0878V32.0615V32.0345V32.007V31.9789V31.9503V31.921V31.8913V31.8609V31.83V31.7985V31.7665V31.734V31.7009V31.6672V31.633V31.5983V31.563V31.5272V31.4908V31.4539V31.4165V31.3786V31.3402V31.3012V31.2617V31.2217V31.1812V31.1402V31.0986V31.0566V31.0141V30.971V30.9275V30.8835V30.839V30.794V30.7485V30.7026V30.6561V30.6092V30.5618V30.5139V30.4656V30.4168V30.3675V30.3178V30.2676V30.217V30.1659V30.1143V30.0623V30.0099V29.957V29.9037V29.8499V29.7957V29.7411V29.686V29.6305V29.5746V29.5183V29.4615V29.4044V29.3468V29.2888V29.2304V29.1716V29.1123V29.0527V28.9927V28.9323V28.8715V28.8103V28.7487V28.6868V28.6244V28.5617V28.4986V28.4351V28.3713V28.307V28.2424V28.1775V28.1122V28.0465V27.9805V27.9141V27.8474V27.7803V27.7129V27.6451V27.577V27.5085V27.4397V27.3706V27.3012V27.2314V27.1613V27.0909V27.0201V26.9491V26.8777V26.806V26.734V26.6617V26.5891V26.5162V26.443V26.3695V26.2958V26.2217V26.1473V26.0727V25.9977V25.9225V25.847V25.7712V25.6952V25.6189V25.5423V25.4655V25.3884V25.311V25.2334V25.1555V25.0774V24.9991V24.9204V24.8416V24.7625V24.6831V24.6036V24.5238V24.4437V24.3635V24.283V24.2023V24.1213V24.0402V23.9588V23.8773V23.7955V23.7135V23.6313V23.5489V23.4663V23.3836V23.3006V23.2174V23.1341V23.0505V22.9668V22.8829V22.7988V22.7146V22.6301V22.5455V22.4608V22.3758V22.2907V22.2055V22.1201V22.0345V21.9488V21.863V21.777V21.6908V21.6045V21.5181V21.4315V21.3448V21.258V21.1711V21.084V20.9968V20.9095V20.822V20.7345V20.6468V20.5591V20.4712V20.3832V20.2951V20.2069V20.1187V20.0303V19.9418V19.8533V19.7647V19.676V19.5872V19.4983V19.4093V19.3203V19.2312V19.1421V19.0529V18.9636V18.8742V18.7848V18.6954V18.6059V18.5163V18.4267V18.3371V18.2474V18.1577V18.0679V17.9782V17.8883V17.7985V17.7086V17.6187V17.5288V17.4389V17.349V17.259V17.1691V17.0791V16.9891V16.8991V16.8092V16.7192V16.6292V16.5393V16.4493V16.3594V16.2695V16.1796V16.0898V15.9999V15.9101V15.8203V15.7306V15.6409V15.5512V15.4616V15.372V15.2824V15.1929V15.1035V15.0141V14.9248V14.8355V14.7463V14.6571V14.5681V14.479V14.3901V14.3012V14.2125V14.1238V14.0351V13.9466V13.8582V13.7698V13.6815V13.5934V13.5053V13.4173V13.3295V13.2417V13.1541V13.0665V12.9791V12.8918V12.8046V12.7176V12.6306V12.5438V12.4572V12.3706V12.2842V12.1979V12.1118V12.0258V11.94V11.8543V11.7688V11.6834V11.5981V11.5131V11.4282V11.3434V11.2588V11.1744V11.0902V11.0061V10.9223V10.8386V10.755V10.6717V10.5886V10.5056V10.4229V10.3403V10.2579V10.1758V10.0938V10.0121V9.93052V9.84919V9.76807V9.68717V9.60649V9.52604V9.4458V9.3658V9.28603V9.20648V9.12718V9.04811V8.96929V8.8907V8.81237V8.73428V8.65644V8.57886V8.50153V8.42446V8.34766V8.27112V8.19485V8.11884V8.04311V7.96765V7.89248V7.81758V7.74296V7.66863V7.59459V7.52084V7.44738V7.37422V7.30136V7.2288V7.15654V7.08459V7.01295V6.94162V6.8706V6.7999V6.72953V6.65947V6.58974V6.52034V6.45126V6.38252V6.31412V6.24605V6.17832V6.11094V6.04391V5.97722V5.91088V5.8449V5.77927V5.71401V5.6491V5.58456V5.52039V5.45658V5.39315V5.3301V5.26742V5.20512V5.1432V5.08167V5.02053V4.95978V4.89942V4.83946V4.7799V4.72073V4.66198V4.60362V4.54568V4.48815V4.43103V4.37434V4.31806V4.2622V4.20677V4.15176V4.09719V4.04305V3.98934V3.93607V3.88324V3.83086V3.77892V3.72743V3.67639V3.62581V3.57568V3.52601V3.47681V3.42806V3.37979V3.33198V3.28465V3.23779V3.19141V3.14551V3.10009V3.05516V3.01071V2.96676V2.9233V2.88034V2.83787V2.7959V2.75444V2.71349V2.67304V2.63311V2.59369V2.55479V2.51641V2.47855V2.44121V2.4044V2.36812V2.33238V2.29717V2.2625V2.22837V2.19478V2.16174V2.12925V2.0973V2.06592V2.03508V2.00481V1.9751V1.94595V1.91737V1.88936V1.86193V1.83506V1.80878V1.78307V1.76076H238.159V1.76261V1.78559V1.80906V1.83301V1.85744V1.88235V1.90774V1.9336V1.95993V1.98674V2.01401V2.04176V2.06996V2.09863V2.12777V2.15736V2.18741V2.21791V2.24887V2.28028V2.31214V2.34445V2.3772V2.4104V2.44403V2.47811V2.51263V2.54758V2.58297V2.61878V2.65503V2.69171V2.72881V2.76634V2.80429V2.84266V2.88144V2.92065V2.96027V3.0003V3.04074V3.08159V3.12284V3.1645V3.20657V3.24903V3.2919V3.33516V3.37881V3.42286V3.4673V3.51212V3.55734V3.60294V3.64892V3.69529V3.74203V3.78915V3.83665V3.88452V3.93276V3.98137V4.03034V4.07969V4.12939V4.17946V4.22989V4.28068V4.33182V4.38331V4.43516V4.48736V4.5399V4.59279V4.64603V4.69961V4.75352V4.80778V4.86237V4.9173V4.97255V5.02814V5.08406V5.1403V5.19687V5.25376V5.31097V5.3685V5.42635V5.48451V5.54298V5.60177V5.66086V5.72026V5.77996V5.83997V5.90028V5.96089V6.02179V6.08299V6.14449V6.20627V6.26835V6.33071V6.39335V6.45628V6.51949V6.58299V6.64675V6.7108V6.77512V6.8397V6.90456V6.96969V7.03508V7.10074V7.16666V7.23284V7.29927V7.36596V7.43291V7.50011V7.56756V7.63526V7.7032V7.77139V7.83982V7.90849V7.97739V8.04654V8.11592V8.18553V8.25537V8.32545V8.39574V8.46627V8.53701V8.60798V8.67916V8.75057V8.82218V8.89401V8.96605V9.0383V9.11076V9.18342V9.25629V9.32936V9.40262V9.47609V9.54975V9.6236V9.69764V9.77188V9.8463V9.92091V9.9957V10.0707V10.1458V10.2212V10.2967V10.3723V10.4482V10.5242V10.6004V10.6768V10.7533V10.83V10.9068V10.9838V11.061V11.1383V11.2157V11.2933V11.3711V11.449V11.5271V11.6053V11.6836V11.7621V11.8407V11.9194V11.9983V12.0773V12.1565V12.2357V12.3151V12.3946V12.4743V12.554V12.6339V12.7139V12.794V12.8742V12.9545V13.035V13.1155V13.1961V13.2769V13.3577V13.4386V13.5197V13.6008V13.682V13.7633V13.8447V13.9262V14.0078V14.0894V14.1711V14.2529V14.3348V14.4168V14.4988V14.5809V14.6631V14.7453V14.8276V14.91V14.9924V15.0749V15.1574V15.24V15.3226V15.4053V15.4881V15.5709V15.6537V15.7366V15.8195V15.9024V15.9854V16.0685V16.1515V16.2346V16.3177V16.4009V16.4841V16.5673V16.6505V16.7337V16.817V16.9002V16.9835V17.0668V17.1501V17.2334V17.3168V17.4001V17.4834V17.5667V17.6501V17.7334V17.8167V17.9V17.9833V18.0666V18.1499V18.2331V18.3163V18.3996V18.4827V18.5659V18.6491V18.7322V18.8153V18.8983V18.9814V19.0643V19.1473V19.2302V19.3131V19.3959V19.4787V19.5614V19.6441V19.7267V19.8093V19.8919V19.9743V20.0567V20.1391V20.2214V20.3036V20.3858V20.4678V20.5499V20.6318V20.7137V20.7955V20.8772V20.9588V21.0404V21.1218V21.2032V21.2845V21.3657V21.4468V21.5279V21.6088V21.6896V21.7703V21.851V21.9315V22.0119V22.0922V22.1724V22.2525V22.3324V22.4123V22.492V22.5717V22.6512V22.7305V22.8098V22.8889V22.9679V23.0468V23.1255V23.2041V23.2825V23.3609V23.439V23.5171V23.595V23.6727V23.7503V23.8277V23.905V23.9822V24.0591V24.136V24.2126V24.2891V24.3654V24.4416V24.5176V24.5934V24.6691V24.7446V24.8199V24.895V24.9699V25.0447V25.1193V25.1937V25.2679V25.3419V25.4157V25.4894V25.5628V25.636V25.7091V25.7819V25.8546V25.927V25.9992V26.0712V26.143V26.2146V26.286V26.3571V26.4281V26.4988V26.5693V26.6395V26.7096V26.7794V26.849V26.9183V26.9874V27.0563V27.1249V27.1933V27.2615V27.3294V27.3971V27.4645V27.5316V27.5986V27.6652V27.7316V27.7977V27.8636V27.9293V27.9946V28.0597V28.1245V28.1891V28.2533V28.3174V28.3811V28.4445V28.5077V28.5706V28.6332V28.6955V28.7576V28.8193V28.8808V28.9419V29.0028V29.0633V29.1236V29.1836V29.2432V29.3026V29.3616V29.4204V29.4788V29.5369V29.5947V29.6522V29.7094V29.7662V29.8228V29.8789V29.9348V29.9904V30.0456V30.1005V30.155V30.2092V30.2631V30.3166V30.3698V30.4226V30.4751V30.5273V30.5791V30.6305V30.6816V30.7323V30.7827V30.8327V30.8824V30.9317V30.9806V31.0292V31.0774V31.1252V31.1726V31.2197V31.2664V31.3127V31.3586V31.4042V31.4493V31.4941V31.5385V31.5825V31.6261V31.6693V31.7121V31.7545V31.7965V31.8381V31.8793V31.9201V31.9605V32.0005V32.04V32.0792V32.1179V32.1562V32.1941V32.2316V32.2686V32.3052V32.3414C238.159 38.7073 243.402 43.8644 249.914 43.8644C256.426 43.8644 261.668 38.7073 261.668 32.3414L256.541 1.76076ZM256.541 1.76076H261.668V1.77005V1.79336V1.81717V1.84147V1.86625V1.89152V1.91727V1.9435V1.97022V1.99741V2.02507V2.05321V2.08182V2.1109V2.14045V2.17046V2.20093V2.23187V2.26326V2.29512V2.32742V2.36019V2.3934V2.42706V2.46117V2.49572V2.53072V2.56616V2.60203V2.63835V2.6751V2.71228V2.74989V2.78794V2.82641V2.8653V2.90462V2.94436V2.98452V3.02509V3.06608V3.10749V3.1493V3.19153V3.23416V3.27719V3.32063V3.36447V3.40871V3.45335V3.49838V3.5438V3.58962V3.63582V3.68241V3.72939V3.77675V3.82449V3.8726V3.9211V3.96997V4.01921V4.06883V4.11881V4.16916V4.21988V4.27096V4.3224V4.37419V4.42635V4.47886V4.53172V4.58493V4.6385V4.6924V4.74666V4.80125V4.85619V4.91147V4.96708V5.02303V5.07931V5.13592V5.19286V5.25013V5.30772V5.36563V5.42387V5.48242V5.5413V5.60048V5.65998V5.71979V5.77991V5.84033V5.90106V5.96209V6.02342V6.08505V6.14698V6.2092V6.27172V6.33452V6.39762V6.461V6.52467V6.58861V6.65284V6.71735V6.78213V6.84719V6.91252V6.97813V7.044V7.11013V7.17653V7.2432V7.31012V7.37731V7.44475V7.51244V7.58039V7.64858V7.71703V7.78572V7.85466V7.92384V7.99326V8.06291V8.13281V8.20294V8.2733V8.34389V8.41471V8.48576V8.55703V8.62852V8.70024V8.77217V8.84432V8.91668V8.98925V9.06204V9.13503V9.20824V9.28164V9.35525V9.42905V9.50306V9.57726V9.65166V9.72625V9.80103V9.87599V9.95115V10.0265V10.102V10.1777V10.2536V10.3296V10.4059V10.4823V10.5588V10.6356V10.7125V10.7896V10.8668V10.9442V11.0217V11.0994V11.1773V11.2553V11.3335V11.4118V11.4902V11.5689V11.6476V11.7265V11.8055V11.8847V11.964V12.0434V12.1229V12.2026V12.2824V12.3624V12.4424V12.5226V12.6029V12.6833V12.7638V12.8444V12.9252V13.006V13.087V13.1681V13.2492V13.3305V13.4119V13.4933V13.5749V13.6565V13.7383V13.8201V13.902V13.984V14.0661V14.1482V14.2304V14.3128V14.3951V14.4776V14.5601V14.6427V14.7254V14.8081V14.8909V14.9737V15.0566V15.1396V15.2226V15.3056V15.3888V15.4719V15.5551V15.6384V15.7217V15.805V15.8884V15.9718V16.0552V16.1387V16.2222V16.3057V16.3893V16.4728V16.5564V16.6401V16.7237V16.8074V16.891V16.9747V17.0584V17.1421V17.2258V17.3095V17.3932V17.4769V17.5606V17.6443V17.728V17.8117V17.8953V17.979V18.0627V18.1463V18.2299V18.3135V18.3971V18.4806V18.5641V18.6476V18.7311V18.8145V18.8979V18.9813V19.0646V19.1478V19.2311V19.3143V19.3974V19.4805V19.5636V19.6465V19.7295V19.8124V19.8952V19.9779V20.0606V20.1433V20.2258V20.3083V20.3908V20.4731V20.5554V20.6376V20.7197V20.8018V20.8838V20.9656V21.0474V21.1291V21.2107V21.2923V21.3737V21.455V21.5362V21.6174V21.6984V21.7793V21.8601V21.9408V22.0214V22.1019V22.1823V22.2625V22.3427V22.4227V22.5026V22.5823V22.662V22.7415V22.8209V22.9001V22.9792V23.0582V23.137V23.2157V23.2943V23.3727V23.4509V23.529V23.607V23.6848V23.7625V23.8399V23.9173V23.9945V24.0715V24.1483V24.225V24.3015V24.3778V24.454V24.53V24.6058V24.6815V24.7569V24.8322V24.9073V24.9822V25.0569V25.1314V25.2057V25.2799V25.3538V25.4275V25.5011V25.5744V25.6475V25.7204V25.7932V25.8657V25.9379V26.01V26.0819V26.1535V26.2249V26.2961V26.3671V26.4378V26.5083V26.5786V26.6486V26.7185V26.788V26.8574V26.9264V26.9953V27.0639V27.1323V27.2004V27.2682V27.3358V27.4032V27.4703V27.5371V27.6037V27.67V27.736V27.8018V27.8673V27.9325V27.9975V28.0622V28.1266V28.1907V28.2546V28.3181V28.3814V28.4444V28.5071V28.5695V28.6316V28.6934V28.755V28.8162V28.8771V28.9377V28.998V29.0581V29.1177V29.1771V29.2362V29.295V29.3534V29.4115V29.4693V29.5268V29.5839V29.6408V29.6973V29.7534V29.8093V29.8647V29.9199V29.9747V30.0292V30.0833V30.1371V30.1905V30.2436V30.2964V30.3487V30.4008V30.4524V30.5038V30.5547V30.6053V30.6555V30.7054L256.541 1.76076Z" fill="white" stroke="white"/>
<path d="M274.574 37.7134V38.2134H275.074H285.764C295.933 38.2134 302.563 31.0964 302.43 22.4889C302.428 13.7666 295.81 6.64434 285.764 6.64434H275.074H274.574V7.14434V37.7134ZM269.316 43.097V1.76076H286.286C299.304 1.76076 307.687 10.9988 307.687 22.4928C307.687 33.8569 299.306 43.097 286.286 43.097H269.316Z" fill="white" stroke="white"/>
<path d="M313.902 43.097V1.76076H319.029V43.097H313.902Z" fill="white" stroke="white"/>
<path d="M325.114 22.3649C325.114 10.4837 333.762 0.865402 347.168 0.865402C360.438 0.865402 368.961 10.4778 368.961 22.3649C368.961 34.248 360.311 43.8644 347.038 43.8644C333.764 43.8644 325.114 34.248 325.114 22.3649ZM330.502 22.3649C330.502 31.3182 337.094 38.9808 347.168 38.9808C357.239 38.9808 363.834 31.4487 363.834 22.3649C363.834 13.4115 357.241 5.74898 347.168 5.74898C337.097 5.74898 330.502 13.281 330.502 22.3649Z" fill="white" stroke="white"/>
<path d="M109.053 1.75995L102.688 43.0961H97.6978L103.68 1.75995H109.053Z" fill="white" stroke="white"/>
<path d="M85.1886 1.76007H90.5609L96.5434 43.0963H91.553L85.1886 1.76007Z" fill="white" stroke="white"/>
<path d="M28.1212 30.9351L28.1212 30.9351L28.1239 30.9395C29.1007 32.5368 31.0554 35.765 32.7495 38.5938C33.5966 40.0083 34.3778 41.3216 34.9387 42.2806C35.1223 42.5946 35.2817 42.8695 35.4117 43.097H29.7454L21.029 28.6346C21.0286 28.6338 21.0282 28.6331 21.0277 28.6324C20.0464 26.9638 19.2844 25.9865 18.5058 25.4408C17.6913 24.8701 16.9093 24.8067 16.0352 24.8067H6.12726H5.62726V25.3067V43.097H0.5V1.76076H22.5535C29.0655 1.76076 34.3081 6.91782 34.3081 13.2837C34.3081 16.0955 33.1848 18.7927 31.4365 20.7531L31.4364 20.7531L31.4331 20.7569C30.7415 21.5485 29.6744 22.0874 28.4202 22.4258C27.1717 22.7626 25.7842 22.8881 24.509 22.8881H17.9907L17.818 23.8574C18.8384 24.2328 20.5161 24.992 21.2904 25.3719L21.3027 25.3779L21.3151 25.3832L21.3151 25.3832L21.3153 25.3833L21.3171 25.384L21.3257 25.3877L21.3627 25.404C21.3961 25.4188 21.4464 25.4414 21.5118 25.4717C21.6425 25.5324 21.8336 25.6239 22.0706 25.7456C22.545 25.989 23.2012 26.3518 23.9247 26.8276C25.3803 27.7849 27.0689 29.1739 28.1212 30.9351ZM5.62726 19.4231V19.9231H6.12726H22.6839C26.3337 19.9231 29.4415 17.0289 29.4415 13.2837C29.4415 9.67988 26.4777 6.64434 22.6839 6.64434V7.14434C22.6839 6.64434 22.6839 6.64434 22.6838 6.64434H22.6834H22.6828H22.6819H22.6809H22.6795H22.6779H22.6761H22.6741H22.6718H22.6693H22.6665H22.6635H22.6602H22.6568H22.6531H22.6491H22.6449H22.6405H22.6359H22.631H22.6259H22.6206H22.615H22.6092H22.6032H22.597H22.5905H22.5838H22.5769H22.5698H22.5624H22.5548H22.547H22.539H22.5307H22.5223H22.5136H22.5047H22.4956H22.4862H22.4767H22.4669H22.4569H22.4467H22.4363H22.4257H22.4148H22.4038H22.3925H22.381H22.3693H22.3575H22.3454H22.3331H22.3205H22.3078H22.2949H22.2818H22.2684H22.2549H22.2412H22.2272H22.2131H22.1988H22.1842H22.1695H22.1545H22.1394H22.1241H22.1086H22.0928H22.0769H22.0608H22.0445H22.028H22.0113H21.9944H21.9774H21.9601H21.9427H21.925H21.9072H21.8892H21.871H21.8526H21.834H21.8153H21.7963H21.7772H21.7579H21.7384H21.7188H21.6989H21.6789H21.6587H21.6383H21.6177H21.597H21.5761H21.555H21.5337H21.5123H21.4907H21.4689H21.447H21.4248H21.4025H21.3801H21.3574H21.3346H21.3117H21.2885H21.2652H21.2418H21.2181H21.1943H21.1704H21.1462H21.122H21.0975H21.0729H21.0481H21.0232H20.9981H20.9729H20.9475H20.9219H20.8962H20.8703H20.8443H20.8181H20.7918H20.7653H20.7387H20.7119H20.6849H20.6579H20.6306H20.6032H20.5757H20.548H20.5202H20.4922H20.4641H20.4358H20.4074H20.3789H20.3502H20.3214H20.2924H20.2633H20.2341H20.2047H20.1751H20.1455H20.1157H20.0857H20.0557H20.0255H19.9951H19.9647H19.9341H19.9033H19.8725H19.8415H19.8103H19.7791H19.7477H19.7162H19.6845H19.6528H19.6209H19.5889H19.5567H19.5245H19.4921H19.4596H19.427H19.3942H19.3614H19.3284H19.2953H19.262H19.2287H19.1953H19.1617H19.128H19.0942H19.0603H19.0263H18.9921H18.9579H18.9235H18.889H18.8544H18.8198H18.785H18.7501H18.715H18.6799H18.6447H18.6094H18.5739H18.5384H18.5028H18.467H18.4312H18.3952H18.3592H18.3231H18.2868H18.2505H18.2141H18.1775H18.1409H18.1042H18.0674H18.0305H17.9935H17.9564H17.9192H17.8819H17.8446H17.8071H17.7696H17.7319H17.6942H17.6564H17.6185H17.5805H17.5425H17.5043H17.4661H17.4278H17.3894H17.3509H17.3124H17.2738H17.2351H17.1963H17.1574H17.1185H17.0794H17.0403H17.0012H16.9619H16.9226H16.8832H16.8438H16.8042H16.7646H16.725H16.6852H16.6454H16.6055H16.5656H16.5256H16.4855H16.4453H16.4051H16.3649H16.3245H16.2841H16.2437H16.2032H16.1626H16.1219H16.0812H16.0405H15.9997H15.9588H15.9179H15.8769H15.8359H15.7948H15.7536H15.7124H15.6712H15.6299H15.5885H15.5471H15.5057H15.4642H15.4227H15.3811H15.3394H15.2977H15.256H15.2142H15.1724H15.1306H15.0887H15.0467H15.0047H14.9627H14.9207H14.8786H14.8364H14.7942H14.752H14.7098H14.6675H14.6252H14.5828H14.5404H14.498H14.4556H14.4131H14.3706H14.328H14.2855H14.2429H14.2002H14.1576H14.1149H14.0722H14.0295H13.9867H13.9439H13.9011H13.8583H13.8155H13.7726H13.7297H13.6868H13.6439H13.601H13.558H13.515H13.472H13.429H13.386H13.343H13.2999H13.2569H13.2138H13.1707H13.1276H13.0845H13.0414H12.9983H12.9552H12.9121H12.8689H12.8258H12.7826H12.7395H12.6963H12.6532H12.61H12.5668H12.5237H12.4805H12.4374H12.3942H12.351H12.3079H12.2647H12.2216H12.1785H12.1353H12.0922H12.0491H12.006H11.9628H11.9198H11.8767H11.8336H11.7905H11.7475H11.7044H11.6614H11.6184H11.5754H11.5324H11.4894H11.4465H11.4036H11.3606H11.3177H11.2749H11.232H11.1892H11.1464H11.1036H11.0608H11.0181H10.9753H10.9326H10.89H10.8473H10.8047H10.7621H10.7196H10.677H10.6345H10.5921H10.5496H10.5072H10.4649H10.4225H10.3802H10.3379H10.2957H10.2535H10.2113H10.1692H10.1271H10.0851H10.0431H10.0011H9.95918H9.9173H9.87545H9.83366H9.7919H9.75019H9.70852H9.6669H9.62533H9.58381H9.54233H9.5009H9.45952H9.41819H9.37691H9.33568H9.29451H9.25339H9.21232H9.1713H9.13034H9.08944H9.04859H9.0078H8.96707H8.92639H8.88578H8.84522H8.80473H8.76429H8.72392H8.68361H8.64337H8.60318H8.56307H8.52301H8.48303H8.44311H8.40325H8.36347H8.32375H8.28411H8.24453H8.20503H8.16559H8.12623H8.08694H8.04773H8.00859H7.96952H7.93054H7.89162H7.85279H7.81403H7.77535H7.73675H7.69823H7.65979H7.62143H7.58315H7.54496H7.50685H7.46882H7.43088H7.39302H7.35525H7.31757H7.27997H7.24247H7.20505H7.16772H7.13048H7.09333H7.05627H7.01931H6.98244H6.94566H6.90898H6.87239H6.8359H6.7995H6.76321H6.72701H6.69091H6.6549H6.619H6.5832H6.5475H6.5119H6.47641H6.44101H6.40573H6.37054H6.33547H6.3005H6.26563H6.23088H6.19623H6.16169H6.12726H5.62726V7.14434V19.4231Z" fill="white" stroke="white"/>
<path d="M161.038 42.9691L149.711 22.3649L161.038 1.76076H166.788L155.094 22.1158L154.953 22.3622L155.092 22.6099L166.537 42.9691H161.038ZM148.51 22.3649V43.097H143.382V1.76076H148.51V22.3649Z" fill="white" stroke="white"/>
</svg>
