<svg width="88" height="233" viewBox="0 0 88 233" fill="none" xmlns="http://www.w3.org/2000/svg">
<path d="M43.5365 232.405C31.9268 232.405 20.9908 227.974 12.75 219.876C4.50916 211.777 2.3535e-05 201.081 2.33984e-05 189.622C2.32623e-05 178.213 4.50916 167.466 12.75 159.368C20.9908 151.269 31.875 146.838 43.5365 146.838C55.1463 146.838 66.0822 151.269 74.3231 159.368C82.5639 167.466 87.0731 178.162 87.0731 189.622C87.0731 201.031 82.5639 211.777 74.3231 219.876C66.0822 227.974 55.1463 232.405 43.5365 232.405ZM43.5365 146.991C31.9268 146.991 21.0427 151.422 12.8537 159.47C4.66465 167.517 0.15551 178.264 0.15551 189.622C0.155511 200.98 4.66465 211.726 12.8537 219.774C21.0427 227.821 31.9786 232.252 43.5365 232.252C55.0944 232.252 66.0304 227.821 74.2194 219.774C82.4084 211.777 86.9176 201.081 86.9176 189.673C86.9176 178.264 82.4084 167.568 74.2194 159.52C66.0304 151.473 55.1463 146.991 43.5365 146.991Z" fill="white"/>
<path d="M43.5365 229.349C21.2499 229.349 3.10971 211.523 3.10971 189.622C3.10971 167.721 21.2499 149.895 43.5365 149.895C65.823 149.895 83.9633 167.721 83.9633 189.622C83.9633 211.523 65.823 229.349 43.5365 229.349ZM43.5365 150.098C21.3536 150.098 3.31702 167.823 3.31702 189.622C3.31702 211.421 21.3536 229.146 43.5365 229.146C65.7194 229.146 83.7559 211.421 83.7559 189.622C83.7559 167.823 65.7194 150.098 43.5365 150.098Z" fill="white"/>
<path d="M43.5366 226.293C22.9604 226.293 6.21956 209.842 6.21956 189.621C6.21956 169.401 22.9604 152.95 43.5366 152.95C64.1128 152.95 80.8536 169.401 80.8536 189.621C80.8536 209.842 64.1128 226.293 43.5366 226.293ZM43.5366 153.256C23.1159 153.256 6.47871 169.605 6.47871 189.672C6.47871 209.74 23.1159 226.089 43.5366 226.089C63.9573 226.089 80.5944 209.74 80.5944 189.672C80.5944 169.605 63.9573 153.256 43.5366 153.256Z" fill="white"/>
<path d="M43.5366 223.237C24.6707 223.237 9.32931 208.161 9.32931 189.622C9.32931 171.082 24.6707 156.006 43.5366 156.006C62.4024 156.006 77.7438 171.082 77.7438 189.622C77.7438 208.161 62.3506 223.237 43.5366 223.237ZM43.5366 156.363C24.8262 156.363 9.64027 171.286 9.64027 189.673C9.64027 208.059 24.8262 222.982 43.5366 222.982C62.2469 222.982 77.4329 208.059 77.4329 189.673C77.4329 171.286 62.1951 156.363 43.5366 156.363Z" fill="white"/>
<path d="M43.5365 220.181C26.381 220.181 12.4389 206.48 12.4389 189.622C12.4389 172.763 26.381 159.062 43.5365 159.062C60.6919 159.062 74.634 172.763 74.634 189.622C74.634 206.48 60.6401 220.181 43.5365 220.181ZM43.5365 159.47C26.5883 159.47 12.8017 173.018 12.8017 189.673C12.8017 206.328 26.5883 219.876 43.5365 219.876C60.4846 219.876 74.2712 206.328 74.2712 189.673C74.2712 173.018 60.4846 159.47 43.5365 159.47Z" fill="white"/>
<path d="M43.5365 217.125C28.0914 217.125 15.5488 204.799 15.5488 189.622C15.5488 174.444 28.0914 162.118 43.5365 162.118C58.9816 162.118 71.5243 174.444 71.5243 189.622C71.5243 204.799 58.9298 217.125 43.5365 217.125ZM43.5365 162.576C28.3506 162.576 15.9634 174.698 15.9634 189.673C15.9634 204.647 28.2987 216.769 43.5365 216.769C58.7743 216.769 71.1097 204.647 71.1097 189.673C71.1097 174.698 58.7225 162.576 43.5365 162.576Z" fill="white"/>
<path d="M43.5364 214.07C29.8535 214.07 18.6584 203.119 18.6584 189.622C18.6584 176.125 29.8017 165.174 43.5364 165.174C57.2712 165.174 68.4144 176.125 68.4144 189.622C68.4144 203.119 57.2193 214.07 43.5364 214.07ZM43.5364 165.684C30.1127 165.684 19.1767 176.43 19.1767 189.622C19.1767 202.813 30.1127 213.56 43.5364 213.56C56.9602 213.56 67.8961 202.813 67.8961 189.622C67.8961 176.43 56.9602 165.684 43.5364 165.684Z" fill="white"/>
<path d="M43.5365 211.013C31.5639 211.013 21.7682 201.438 21.7682 189.622C21.7682 177.805 31.5121 168.23 43.5365 168.23C55.5609 168.23 65.3047 177.805 65.3047 189.622C65.3047 201.438 55.509 211.013 43.5365 211.013ZM43.5365 168.841C31.8231 168.841 22.3383 178.213 22.3383 189.673C22.3383 201.133 31.8749 210.504 43.5365 210.504C55.1981 210.504 64.7346 201.133 64.7346 189.673C64.7346 178.213 55.1981 168.841 43.5365 168.841Z" fill="white"/>
<path d="M43.5365 207.957C33.2743 207.957 24.878 199.757 24.878 189.622C24.878 179.486 33.2225 171.286 43.5365 171.286C53.8505 171.286 62.195 179.486 62.195 189.622C62.195 199.757 53.7987 207.957 43.5365 207.957ZM43.5365 171.948C33.5853 171.948 25.4999 179.894 25.4999 189.673C25.4999 199.452 33.5853 207.397 43.5365 207.397C53.4877 207.397 61.5731 199.452 61.5731 189.673C61.5731 179.894 53.4877 171.948 43.5365 171.948Z" fill="white"/>
<path d="M43.5364 204.901C34.9846 204.901 27.9876 198.076 27.9876 189.622C27.9876 181.167 34.9327 174.342 43.5364 174.342C52.14 174.342 59.0851 181.167 59.0851 189.622C59.0851 198.076 52.0882 204.901 43.5364 204.901ZM43.5364 175.055C35.3474 175.055 28.6614 181.625 28.6614 189.673C28.6614 197.72 35.3474 204.29 43.5364 204.29C51.7254 204.29 58.4114 197.72 58.4114 189.673C58.4114 181.625 51.7254 175.055 43.5364 175.055Z" fill="white"/>
<path d="M43.5365 201.845C36.695 201.845 31.0975 196.396 31.0975 189.621C31.0975 182.847 36.6432 177.398 43.5365 177.398C50.3779 177.398 55.9755 182.847 55.9755 189.621C55.9755 196.396 50.3779 201.845 43.5365 201.845ZM43.5365 178.162C37.1096 178.162 31.8231 183.306 31.8231 189.672C31.8231 195.988 37.0578 201.183 43.5365 201.183C50.0151 201.183 55.2499 196.039 55.2499 189.672C55.198 183.306 49.9633 178.162 43.5365 178.162Z" fill="white"/>
<path d="M43.5365 198.789C38.4054 198.789 34.2072 194.664 34.2072 189.622C34.2072 184.579 38.4054 180.454 43.5365 180.454C48.6676 180.454 52.8657 184.579 52.8657 189.622C52.8657 194.664 48.6676 198.789 43.5365 198.789ZM43.5365 181.269C38.82 181.269 35.0365 185.038 35.0365 189.622C35.0365 194.206 38.8718 197.975 43.5365 197.975C48.2529 197.975 52.0365 194.206 52.0365 189.622C52.0365 185.038 48.2011 181.269 43.5365 181.269Z" fill="white"/>
<path d="M43.5365 195.733C40.1158 195.733 37.317 192.983 37.317 189.621C37.317 186.26 40.1158 183.51 43.5365 183.51C46.9573 183.51 49.756 186.26 49.756 189.621C49.756 192.983 46.9573 195.733 43.5365 195.733ZM43.5365 184.426C40.5823 184.426 38.1981 186.769 38.1981 189.672C38.1981 192.576 40.5823 194.918 43.5365 194.918C46.4908 194.918 48.8749 192.576 48.8749 189.672C48.8749 186.769 46.4908 184.426 43.5365 184.426Z" fill="white"/>
<path d="M43.5364 192.677C41.8261 192.677 40.4267 191.302 40.4267 189.621C40.4267 187.941 41.8261 186.565 43.5364 186.565C45.2468 186.565 46.6462 187.941 46.6462 189.621C46.6462 191.302 45.2468 192.677 43.5364 192.677ZM43.5364 187.533C42.3444 187.533 41.3596 188.501 41.3596 189.672C41.3596 190.844 42.3444 191.811 43.5364 191.811C44.7285 191.811 45.7133 190.844 45.7133 189.672C45.7133 188.501 44.7285 187.533 43.5364 187.533Z" fill="white"/>
<mask id="mask0_1_836" style="mask-type:alpha" maskUnits="userSpaceOnUse" x="0" y="104" width="88" height="86">
<path d="M0.0515676 146.94C0.0515679 170.541 19.5203 189.673 43.5363 189.673C67.5522 189.673 87.0209 170.541 87.0209 146.94C87.0209 123.34 67.5522 104.208 43.5363 104.208C19.5203 104.208 0.0515673 123.34 0.0515676 146.94Z" fill="white"/>
</mask>
<g mask="url(#mask0_1_836)">
<path d="M-39.701 185.394C-40.012 185.394 -40.323 185.343 -40.634 185.343C-40.9449 185.343 -41.2559 185.293 -41.5669 185.293C-41.8779 185.293 -42.1888 185.242 -42.3961 185.242C-43.0181 185.191 -43.3291 185.191 -43.3291 185.191C-43.3291 185.191 -21.6126 186.311 0.0519524 187.432C21.7165 188.552 43.433 189.673 43.433 189.673C43.433 189.673 37.9909 189.418 29.8537 188.96C25.7592 188.756 21.0428 188.501 15.9635 188.247C10.8843 187.992 5.44219 187.686 0.000125912 187.432C-10.884 186.871 -21.7681 186.311 -29.9571 185.904C-33.948 185.649 -37.3687 185.496 -39.701 185.394Z" fill="white"/>
<path d="M-39.4419 181.116C-39.7529 181.065 -40.0639 181.014 -40.323 181.014C-40.634 180.963 -40.945 180.912 -41.2041 180.912C-41.5151 180.861 -41.7742 180.81 -42.0334 180.81C-42.6035 180.759 -42.9145 180.709 -42.9145 180.709C-42.9145 180.709 -21.3017 182.95 0.31107 185.191C21.9238 187.432 43.5366 189.673 43.5366 189.673C43.5366 189.673 38.1464 189.112 30.0092 188.297C25.9665 187.89 21.2501 187.381 16.1708 186.871C11.0915 186.362 5.70131 185.802 0.31107 185.242C-10.5731 184.121 -21.4572 183.001 -29.5944 182.186C-33.8444 181.676 -37.2651 181.32 -39.4419 181.116Z" fill="white"/>
<path d="M-39.0274 176.888C-39.3384 176.837 -39.5975 176.786 -39.8567 176.735C-40.1676 176.685 -40.4268 176.634 -40.6859 176.583C-40.9969 176.532 -41.256 176.481 -41.4634 176.43C-42.0335 176.328 -42.3444 176.277 -42.3444 176.277C-42.3444 176.277 -20.8872 179.639 0.570114 182.949C22.0274 186.311 43.4847 189.621 43.4847 189.621C43.4847 189.621 38.0944 188.807 30.0609 187.533C26.0182 186.922 21.3536 186.209 16.3262 185.394C11.2988 184.63 5.90852 183.815 0.570114 182.949C-10.314 181.268 -21.1463 179.588 -29.2317 178.365C-33.4817 177.754 -36.9024 177.194 -39.0274 176.888Z" fill="white"/>
<path d="M-38.3535 172.712C-38.6645 172.661 -38.9236 172.559 -39.1309 172.508C-39.4419 172.457 -39.7011 172.355 -39.9084 172.305C-40.1675 172.254 -40.4267 172.152 -40.634 172.101C-41.1523 171.999 -41.4633 171.897 -41.4633 171.897C-41.4633 171.897 -20.2133 176.328 1.03669 180.759C22.2867 185.19 43.5366 189.622 43.5366 189.622C43.5366 189.622 38.1982 188.501 30.2683 186.871C26.2775 186.056 21.6129 185.089 16.6373 184.07C11.6617 183.051 6.32326 181.931 0.984852 180.861C-9.79562 178.62 -20.6279 176.379 -28.6096 174.749C-32.9114 173.833 -36.3322 173.119 -38.3535 172.712Z" fill="white"/>
<path d="M-37.5242 168.638C-37.7834 168.587 -38.0425 168.434 -38.2498 168.383C-38.509 168.332 -38.7681 168.179 -38.9754 168.128C-39.2346 168.077 -39.4937 167.925 -39.6492 167.874C-40.1675 167.721 -40.4267 167.619 -40.4267 167.619C-40.4267 167.619 -19.4358 173.12 1.55498 178.671C22.5458 184.172 43.5366 189.724 43.5366 189.724C43.5366 189.724 38.3019 188.349 30.4238 186.311C26.4848 185.293 21.872 184.07 16.9482 182.797C12.0245 181.524 6.78973 180.149 1.50315 178.773C-9.22549 175.972 -19.9023 173.222 -27.8322 171.133C-32.1858 170.013 -35.6065 169.147 -37.5242 168.638Z" fill="white"/>
<path d="M-36.4359 164.614C-36.6951 164.512 -36.9024 164.41 -37.1615 164.308C-37.4207 164.207 -37.628 164.105 -37.8353 164.003C-38.0945 163.901 -38.3018 163.799 -38.5091 163.748C-38.9755 163.595 -39.2347 163.443 -39.2347 163.443C-39.2347 163.443 -18.5549 170.013 2.12499 176.583C22.8048 183.153 43.4847 189.724 43.4847 189.724C43.4847 189.724 38.3018 188.094 30.5274 185.649C26.6402 184.427 22.1311 183.001 17.2591 181.473C12.3872 179.945 7.20425 178.315 2.02133 176.685C-8.55182 173.374 -19.1768 170.013 -26.9512 167.568C-31.253 166.244 -34.6219 165.174 -36.4359 164.614Z" fill="white"/>
<path d="M-35.1402 160.641C-35.3993 160.539 -35.6067 160.386 -35.814 160.335C-36.0731 160.234 -36.2804 160.081 -36.4878 160.03C-36.7469 159.928 -36.9024 159.775 -37.1097 159.724C-37.5762 159.571 -37.7835 159.368 -37.7835 159.368C-37.7835 159.368 -17.4664 166.957 2.8506 174.596C23.1676 182.185 43.4847 189.825 43.4847 189.825C43.4847 189.825 38.4054 187.941 30.7865 185.14C26.9512 183.713 22.5457 182.084 17.7774 180.301C13.0091 178.518 7.92986 176.634 2.8506 174.749C-7.6189 170.878 -18.0366 167.008 -25.7073 164.155C-30.1128 162.525 -33.4298 161.303 -35.1402 160.641Z" fill="white"/>
<path d="M-33.689 156.77C-33.8963 156.668 -34.1036 156.516 -34.3109 156.414C-34.5182 156.312 -34.7256 156.159 -34.9329 156.057C-35.1402 155.955 -35.3475 155.803 -35.503 155.701C-35.9176 155.497 -36.1249 155.344 -36.1249 155.344C-36.1249 155.344 -16.2225 163.952 3.62805 172.559C23.5305 181.167 43.381 189.775 43.381 189.775C43.381 189.775 38.4054 187.635 30.942 184.427C27.2103 182.848 22.8567 180.963 18.192 178.977C13.5274 176.99 8.55182 174.851 3.52439 172.712C-6.73779 168.332 -17.0518 163.901 -24.567 160.692C-28.7652 158.858 -32.0823 157.432 -33.689 156.77Z" fill="white"/>
<path d="M-32.0304 152.95C-32.2377 152.848 -32.3932 152.645 -32.6006 152.543C-32.8079 152.441 -32.9634 152.237 -33.1707 152.135C-33.378 152.033 -33.5335 151.881 -33.689 151.779C-34.1036 151.575 -34.2591 151.371 -34.2591 151.371C-34.2591 151.371 -14.8231 160.947 4.56098 170.522C23.9969 180.097 43.381 189.673 43.381 189.673C43.381 189.673 38.5091 187.279 31.2012 183.713C27.5731 181.931 23.3231 179.843 18.7622 177.652C14.2012 175.411 9.32926 173.069 4.45732 170.675C-5.59755 165.785 -15.7042 160.845 -23.064 157.279C-27.2621 155.293 -30.5274 153.714 -32.0304 152.95Z" fill="white"/>
<path d="M-30.2164 149.283C-30.4237 149.181 -30.5274 148.977 -30.7347 148.876C-30.942 148.774 -31.0457 148.57 -31.253 148.468C-31.4603 148.366 -31.5639 148.162 -31.7194 148.112C-32.0822 147.908 -32.2377 147.704 -32.2377 147.704C-32.2377 147.704 -13.3201 158.247 5.54575 168.79C24.4116 179.333 43.3292 189.876 43.3292 189.876C43.3292 189.876 38.6128 187.279 31.4603 183.357C27.8841 181.421 23.7378 179.129 19.3323 176.685C14.875 174.24 10.1585 171.642 5.39026 168.994C-4.45729 163.595 -14.3048 158.145 -21.5091 154.223C-25.6036 151.779 -28.817 150.047 -30.2164 149.283Z" fill="white"/>
<path d="M-28.1951 145.667C-28.4024 145.565 -28.506 145.361 -28.6615 145.259C-28.8688 145.158 -28.9725 144.954 -29.128 144.852C-29.3353 144.75 -29.3871 144.546 -29.5426 144.445C-29.9054 144.241 -30.0091 143.986 -30.0091 143.986C-30.0091 143.986 -11.6616 155.446 6.68598 166.906C25.0335 178.366 43.381 189.825 43.381 189.825C43.381 189.825 38.7682 186.973 31.875 182.746C28.4024 180.607 24.4116 178.162 20.1097 175.462C15.8079 172.814 11.1951 169.962 6.58232 167.11C-3.00608 161.201 -12.6463 155.293 -19.5914 150.964C-23.7896 148.417 -26.8993 146.482 -28.1951 145.667Z" fill="white"/>
<path d="M-25.9664 142.203C-26.1219 142.102 -26.2255 141.847 -26.381 141.745C-26.5365 141.643 -26.6402 141.388 -26.7957 141.287C-26.9511 141.185 -27.0548 140.981 -27.1585 140.879C-27.4695 140.675 -27.5731 140.421 -27.5731 140.421C-27.5731 140.421 -9.84752 152.746 7.87806 165.123C25.6036 177.449 43.3292 189.774 43.3292 189.825C43.3292 189.825 38.8719 186.769 32.1859 182.185C28.8689 179.893 24.9299 177.245 20.7835 174.342C16.5854 171.49 12.1281 168.434 7.67075 165.378C-1.6585 158.96 -10.9878 152.594 -17.7256 147.959C-21.7682 145.107 -24.7743 143.018 -25.9664 142.203Z" fill="white"/>
<path d="M-23.6341 138.842C-23.7896 138.74 -23.8414 138.485 -23.9969 138.383C-24.1524 138.281 -24.2042 138.027 -24.3597 137.925C-24.5152 137.823 -24.567 137.619 -24.6707 137.517C-24.9817 137.314 -25.0335 137.059 -25.0335 137.059C-25.0335 137.059 -7.92986 150.25 9.17378 163.442C26.2774 176.633 43.381 189.825 43.381 189.825C43.381 189.825 39.0792 186.565 32.6524 181.676C29.439 179.231 25.6555 176.379 21.6646 173.323C17.6219 170.267 13.3201 167.007 9.01829 163.697C1.16797e-05 156.821 -9.0701 149.945 -15.5488 145.004C-19.5914 141.897 -22.5457 139.656 -23.6341 138.842Z" fill="white"/>
<path d="M-21.0945 135.582C-21.25 135.48 -21.25 135.226 -21.4054 135.124C-21.5609 135.022 -21.5609 134.767 -21.6646 134.665C-21.8201 134.564 -21.8201 134.36 -21.9237 134.258C-22.1829 134.054 -22.2347 133.8 -22.2347 133.8C-22.2347 133.8 -5.80487 147.806 10.5732 161.812C26.9512 175.819 43.381 189.825 43.381 189.825C43.381 189.825 39.2347 186.362 33.067 181.167C29.9573 178.569 26.3811 175.513 22.4939 172.305C18.6067 169.045 14.4604 165.581 10.3658 162.118C1.65854 154.784 -7.04876 147.449 -13.3201 142.203C-17.2591 138.791 -20.1097 136.397 -21.0945 135.582Z" fill="white"/>
<path d="M-18.3993 132.424C-18.5029 132.322 -18.5029 132.068 -18.6584 131.966C-18.7621 131.864 -18.7621 131.609 -18.8657 131.507C-18.9694 131.406 -18.9694 131.151 -19.073 131.1C-19.3322 130.896 -19.3322 130.642 -19.2803 130.642C-19.2803 130.642 -3.5761 145.412 12.0763 160.233C27.7806 175.004 43.433 189.825 43.433 189.825C43.433 189.825 39.494 186.158 33.5854 180.657C30.6312 177.907 27.1586 174.698 23.4787 171.286C19.747 167.822 15.808 164.155 11.869 160.488C3.52449 152.746 -4.87184 144.954 -10.884 139.402C-14.7712 135.837 -17.5182 133.29 -18.3993 132.424Z" fill="white"/>
<path d="M-15.5487 129.47C-15.6523 129.368 -15.6523 129.114 -15.7042 129.012C-15.8078 128.91 -15.8078 128.655 -15.8596 128.553C-15.9633 128.452 -15.9633 128.248 -16.0151 128.146C-16.2224 127.942 -16.1706 127.688 -16.1706 127.688C-16.1706 127.688 -1.2438 143.222 13.683 158.757C28.6098 174.291 43.5366 189.825 43.5366 189.825C43.5366 189.825 39.7531 185.954 34.1555 180.199C31.3568 177.296 28.0397 173.934 24.5153 170.369C20.9909 166.753 17.2074 162.882 13.4239 159.062C5.44216 150.862 -2.59137 142.713 -8.29258 136.856C-12.1279 132.985 -14.7712 130.285 -15.5487 129.47Z" fill="white"/>
<path d="M-12.5427 126.567C-12.6463 126.465 -12.5945 126.21 -12.6982 126.109C-12.8018 126.007 -12.75 125.752 -12.8018 125.65C-12.9055 125.548 -12.8536 125.345 -12.9055 125.243C-13.1128 125.039 -13.0091 124.784 -13.0091 124.784C-13.0091 124.784 1.08841 141.032 15.2378 157.279C29.3871 173.527 43.4847 189.774 43.4847 189.774C43.4847 189.774 39.9085 185.751 34.5701 179.69C31.8749 176.685 28.7652 173.17 25.4481 169.401C22.0792 165.632 18.503 161.609 14.9268 157.534C7.30792 148.926 -0.310985 140.37 -5.70122 134.207C-9.32926 130.234 -11.8689 127.382 -12.5427 126.567Z" fill="white"/>
<path d="M-9.43288 123.868C-9.53654 123.766 -9.43288 123.511 -9.53654 123.409C-9.6402 123.307 -9.53653 123.053 -9.64019 123.002C-9.74385 122.9 -9.64019 122.696 -9.69202 122.594C-9.84751 122.391 -9.74386 122.136 -9.74386 122.136C-9.74386 122.136 3.52441 139.046 16.7927 155.955C30.061 172.865 43.3292 189.774 43.3292 189.774C43.3292 189.774 39.9603 185.598 34.9329 179.282C32.3933 176.124 29.4908 172.457 26.3293 168.536C23.1677 164.614 19.7988 160.386 16.4299 156.21C9.22562 147.246 2.02136 138.231 -3.10973 131.864C-6.4268 127.637 -8.81093 124.632 -9.43288 123.868Z" fill="white"/>
<path d="M-6.11583 121.27C-6.16766 121.169 -6.064 120.965 -6.16766 120.863C-6.21949 120.761 -6.11583 120.557 -6.21949 120.455C-6.27132 120.354 -6.21948 120.15 -6.27131 120.048C-6.4268 119.844 -6.27131 119.59 -6.27131 119.59C-6.27131 119.59 6.11586 137.11 18.5549 154.631C30.9939 172.152 43.381 189.673 43.381 189.673C43.381 189.673 40.2195 185.344 35.503 178.773C33.1707 175.514 30.3719 171.694 27.4695 167.619C24.5152 163.544 21.3536 159.164 18.1921 154.784C11.4024 145.412 4.66464 136.092 -0.155472 129.471C-3.36888 125.141 -5.59753 122.034 -6.11583 121.27Z" fill="white"/>
<path d="M-2.6951 118.876C-2.74693 118.774 -2.64327 118.57 -2.6951 118.469C-2.74693 118.367 -2.64327 118.163 -2.6951 118.061C-2.74693 117.959 -2.64327 117.755 -2.6951 117.705C-2.79876 117.501 -2.64327 117.297 -2.64327 117.297C-2.64327 117.297 8.8628 135.429 20.3689 153.561C31.875 171.693 43.381 189.825 43.381 189.825C43.381 189.825 40.4786 185.343 36.0731 178.569C33.8963 175.207 31.3048 171.286 28.6097 167.058C25.8628 162.831 22.9085 158.298 20.0061 153.816C13.6829 144.088 7.35975 134.41 2.90244 127.535C-0.103649 122.798 -2.22864 119.589 -2.6951 118.876Z" fill="white"/>
<path d="M0.984734 116.584C0.932907 116.482 1.0884 116.279 1.03657 116.228C0.984737 116.126 1.14022 115.922 1.08839 115.871C1.03656 115.769 1.19205 115.617 1.14022 115.515C1.03657 115.362 1.19206 115.107 1.19206 115.107C1.19206 115.107 11.7652 133.749 22.3384 152.441C32.9115 171.133 43.4847 189.774 43.4847 189.774C43.4847 189.774 40.7896 185.14 36.7469 178.213C34.7255 174.749 32.3932 170.675 29.8536 166.345C27.314 161.965 24.6189 157.33 21.9237 152.696C16.067 142.662 10.2622 132.628 6.16766 125.548C3.26522 120.608 1.34754 117.246 0.984734 116.584Z" fill="white"/>
<path d="M4.71645 114.496C4.66462 114.394 4.87194 114.242 4.82011 114.14C4.76828 114.038 4.9756 113.885 4.92377 113.783C4.87194 113.681 5.02742 113.528 5.02742 113.478C4.92376 113.325 5.13108 113.121 5.13108 113.121C5.13108 113.121 14.7195 132.272 24.3079 151.422C33.8963 170.573 43.4847 189.724 43.4847 189.724C43.4847 189.724 41.0487 184.987 37.3688 177.805C35.5548 174.24 33.378 170.064 31.0975 165.632C28.7652 161.15 26.3292 156.363 23.8414 151.626C18.503 141.287 13.1646 130.947 9.4329 123.664C6.84145 118.571 5.02742 115.107 4.71645 114.496Z" fill="white"/>
<path d="M8.60378 112.561C8.55195 112.459 8.75927 112.306 8.75927 112.255C8.70744 112.153 8.91476 112 8.91476 111.949C8.86293 111.848 9.07024 111.695 9.07024 111.644C9.01841 111.491 9.22573 111.287 9.22573 111.287C9.22573 111.287 17.8294 130.896 26.433 150.505C35.0367 170.114 43.6403 189.723 43.6403 189.723C43.6403 189.723 41.4117 184.834 38.0946 177.551C36.4361 173.883 34.5184 169.656 32.4452 165.072C30.372 160.488 28.1434 155.599 25.9147 150.709C21.0946 140.064 16.2745 129.419 12.9056 121.983C10.4696 116.686 8.86292 113.121 8.60378 112.561Z" fill="white"/>
<path d="M12.6463 110.829C12.5945 110.778 12.8536 110.574 12.8536 110.523C12.8018 110.472 13.061 110.269 13.061 110.218C13.0091 110.167 13.2683 110.014 13.2164 109.963C13.1646 109.81 13.4238 109.657 13.4238 109.657C13.4238 109.657 20.9908 129.674 28.5579 149.69C36.1249 169.707 43.692 189.723 43.692 189.723C43.692 189.723 41.7225 184.732 38.8201 177.296C37.3689 173.578 35.6585 169.198 33.7926 164.563C31.9786 159.877 30.0091 154.886 28.0396 149.894C23.7378 138.995 19.4878 128.095 16.4817 120.455C14.253 115.005 12.8018 111.338 12.6463 110.829Z" fill="white"/>
<path d="M16.741 109.25C16.741 109.199 17.0001 109.046 16.9483 108.995C16.9483 108.944 17.2074 108.791 17.1556 108.741C17.1556 108.69 17.3629 108.537 17.3629 108.486C17.3111 108.384 17.6221 108.231 17.6221 108.231C17.6221 108.231 24.1525 128.604 30.6312 148.977C37.1617 169.35 43.6403 189.723 43.6403 189.723C43.6403 189.723 41.93 184.63 39.3903 177.041C38.0946 173.221 36.6434 168.841 35.0367 164.053C33.43 159.266 31.7196 154.223 30.0611 149.13C26.3294 137.976 22.5977 126.873 20.0062 119.08C18.1404 113.477 16.8965 109.708 16.741 109.25Z" fill="white"/>
<path d="M20.939 107.926C20.939 107.875 21.1981 107.773 21.1981 107.722C21.1981 107.671 21.4573 107.569 21.4573 107.518C21.4573 107.467 21.7164 107.366 21.6646 107.315C21.6128 107.213 21.9238 107.06 21.9238 107.06C21.9238 107.06 27.3658 127.739 32.8079 148.417C38.25 169.096 43.692 189.774 43.692 189.774C43.692 189.774 42.2408 184.63 40.1158 176.889C39.0274 173.018 37.7835 168.536 36.4359 163.748C35.0884 158.909 33.6372 153.765 32.2378 148.57C29.0762 137.212 25.9146 125.854 23.7378 117.96C22.1311 112.102 21.0427 108.282 20.939 107.926Z" fill="white"/>
<path d="M25.2411 106.754C25.2411 106.704 25.552 106.602 25.5002 106.551C25.5002 106.5 25.8112 106.398 25.7594 106.347C25.7594 106.296 26.0185 106.194 26.0185 106.194C26.0185 106.092 26.3295 105.99 26.3295 105.99C26.3295 105.99 30.6831 126.924 35.0368 147.857C39.3904 168.79 43.7441 189.724 43.7441 189.724C43.7441 189.724 42.6038 184.528 40.8417 176.685C39.9606 172.763 38.9758 168.23 37.8874 163.341C36.799 158.451 35.6069 153.205 34.4667 147.959C31.8752 136.448 29.3356 124.886 27.5215 116.89C26.174 110.982 25.2929 107.06 25.2411 106.754Z" fill="white"/>
<path d="M29.6463 105.787C29.6463 105.736 29.9573 105.685 29.9573 105.634C29.9573 105.583 30.2682 105.532 30.2682 105.481C30.2682 105.43 30.5274 105.379 30.5274 105.328C30.5274 105.277 30.8384 105.175 30.8384 105.175C30.8384 105.175 34.0518 126.312 37.317 147.398C40.5304 168.535 43.7957 189.622 43.7957 189.622C43.7957 189.622 42.9146 184.375 41.567 176.481C40.8932 172.559 40.1158 167.924 39.2865 163.035C38.4572 158.094 37.5762 152.797 36.6951 147.5C34.7255 135.786 32.756 124.122 31.4085 116.024C30.3201 110.014 29.6463 105.99 29.6463 105.787Z" fill="white"/>
<path d="M34.1036 105.023C34.1036 105.023 34.4146 104.972 34.4146 104.921C34.4146 104.921 34.7255 104.87 34.7255 104.819C34.7255 104.819 35.0365 104.768 35.0365 104.717C35.0365 104.666 35.3993 104.615 35.3993 104.615C35.3993 104.615 37.5243 125.854 39.5975 147.144C41.6707 168.434 43.7957 189.673 43.7957 189.673C43.7957 189.673 43.1737 184.376 42.2926 176.43C41.8261 172.458 41.3078 167.823 40.7377 162.882C40.1676 157.891 39.5457 152.594 38.9237 147.246C37.5761 135.43 36.2286 123.613 35.2957 115.464C34.5701 109.25 34.1036 105.176 34.1036 105.023Z" fill="white"/>
<path d="M38.6129 104.513L38.9757 104.463L39.3385 104.412L39.6494 104.361L40.0122 104.31C40.0122 104.31 40.997 125.65 41.9299 146.991C42.9147 168.332 43.8476 189.673 43.8476 189.673C43.8476 189.673 43.5366 184.325 43.0183 176.379C42.7592 172.407 42.5 167.721 42.1891 162.78C41.8781 157.789 41.5671 152.441 41.2043 147.093C40.4787 135.175 39.7531 123.257 39.2348 115.057C38.872 108.69 38.6129 104.615 38.6129 104.513Z" fill="white"/>
<path d="M44.2621 104.259C44.2621 104.259 44.1066 125.6 43.8993 146.992C43.692 168.383 43.5365 189.724 43.5365 189.724C43.5365 189.724 43.381 168.383 43.1737 146.992C42.9664 125.6 42.8109 104.259 42.8109 104.259L43.1737 104.259L43.5365 104.259L44.2621 104.259Z" fill="white"/>
<path d="M126.722 185.343C127.033 185.343 127.344 185.343 127.655 185.293C127.966 185.293 128.277 185.293 128.588 185.242C128.899 185.242 129.21 185.242 129.417 185.191C130.039 185.14 130.35 185.14 130.35 185.14C130.35 185.14 108.634 186.26 86.9694 187.381C65.2529 188.501 43.5883 189.622 43.5883 189.622C43.5883 189.622 49.2895 189.316 57.1676 188.909C61.1066 188.705 66.134 188.45 71.0578 188.196C75.9816 187.941 81.7346 187.635 87.0212 187.381C97.5425 186.821 109.1 186.26 116.978 185.853C120.814 185.649 124.442 185.445 126.722 185.343Z" fill="white"/>
<path d="M126.515 181.014C126.826 180.963 127.137 180.963 127.396 180.963C127.707 180.913 128.018 180.913 128.277 180.913C128.588 180.862 128.847 180.862 129.107 180.862C129.677 180.811 130.039 180.811 130.039 180.811C130.039 180.811 108.427 183.001 86.8139 185.242C65.2012 187.483 43.5884 189.673 43.5884 189.673C43.5884 189.673 49.4969 189.062 57.1158 188.298C60.8993 187.89 66.2378 187.33 70.9542 186.872C75.6707 186.413 81.7865 185.751 86.8139 185.242C96.9206 184.223 109.152 182.899 116.719 182.135C120.451 181.626 124.286 181.218 126.515 181.014Z" fill="white"/>
<path d="M126.049 176.736C126.36 176.685 126.619 176.685 126.878 176.634C127.189 176.583 127.448 176.583 127.707 176.532C128.018 176.481 128.277 176.481 128.485 176.43C129.055 176.328 129.366 176.328 129.366 176.328C129.366 176.328 107.908 179.639 86.4511 182.95C64.9938 186.26 43.5365 189.571 43.5365 189.571C43.5365 189.571 49.7042 188.603 56.9603 187.483C60.5883 186.922 66.1859 186.056 70.695 185.343C75.2042 184.63 81.631 183.612 86.4511 182.899C96.1432 181.371 108.945 179.384 116.253 178.264C119.881 177.703 123.924 177.092 126.049 176.736Z" fill="white"/>
<path d="M125.375 172.508C125.686 172.457 125.945 172.457 126.204 172.406C126.515 172.355 126.774 172.355 127.033 172.305C127.292 172.254 127.552 172.254 127.811 172.203C128.329 172.101 128.64 172.101 128.64 172.101C128.64 172.101 107.39 176.481 86.0883 180.912C64.8383 185.292 43.5365 189.724 43.5365 189.724C43.5365 189.724 49.8596 188.399 56.8048 186.973C60.2773 186.26 66.0822 185.038 70.4358 184.121C74.7895 183.204 81.4236 181.829 86.0364 180.861C95.3139 178.926 108.686 176.125 115.631 174.698C119.103 173.833 123.353 172.967 125.375 172.508Z" fill="white"/>
<path d="M124.494 168.332C124.753 168.281 125.012 168.23 125.271 168.179C125.53 168.077 125.789 168.077 126.049 168.026C126.308 167.975 126.567 167.924 126.774 167.873C127.292 167.721 127.603 167.721 127.603 167.721C127.603 167.721 106.613 173.17 85.57 178.62C64.5792 184.07 43.5365 189.52 43.5365 189.52C43.5365 189.52 50.067 187.788 56.6493 186.056C59.9664 185.19 65.9785 183.612 70.1249 182.542C74.2712 181.472 81.1127 179.639 85.5182 178.467C94.3291 176.175 108.219 172.508 114.853 170.777C118.119 169.962 122.524 168.79 124.494 168.332Z" fill="white"/>
<path d="M123.353 164.206C123.613 164.104 123.872 164.104 124.079 164.054C124.338 163.952 124.597 163.952 124.805 163.901C125.064 163.799 125.323 163.799 125.478 163.748C125.945 163.595 126.256 163.595 126.256 163.595C126.256 163.595 105.576 170.115 84.8444 176.583C64.1646 183.102 43.4329 189.571 43.4329 189.571C43.4329 189.571 50.1188 187.432 56.3383 185.445C59.4481 184.478 65.6676 182.491 69.6066 181.218C73.5456 179.945 80.6981 177.754 84.8962 176.43C93.2407 173.782 107.597 169.198 113.869 167.211C116.978 166.244 121.539 164.767 123.353 164.206Z" fill="white"/>
<path d="M122.058 160.183C122.317 160.081 122.576 160.081 122.783 159.979C123.043 159.877 123.302 159.877 123.509 159.826C123.768 159.724 123.976 159.724 124.183 159.673C124.649 159.52 124.908 159.47 124.908 159.47C124.908 159.47 104.591 167.008 84.2225 174.546C63.8537 182.084 43.5366 189.622 43.5366 189.622C43.5366 189.622 50.3263 187.075 56.2348 184.885C59.189 183.764 65.564 181.371 69.2439 179.995C72.9238 178.62 80.2317 175.87 84.1707 174.393C92.0487 171.439 106.768 165.887 112.677 163.697C115.579 162.576 120.347 160.845 122.058 160.183Z" fill="white"/>
<path d="M120.503 156.261C120.71 156.159 120.969 156.159 121.177 156.057C121.384 155.955 121.643 155.955 121.85 155.853C122.058 155.752 122.317 155.752 122.472 155.701C122.887 155.497 123.198 155.497 123.198 155.497C123.198 155.497 103.296 164.003 83.3413 172.559C63.4389 181.065 43.4846 189.622 43.4846 189.622C43.4846 189.622 50.3779 186.617 55.9236 184.223C58.6706 183.051 65.2011 180.199 68.6736 178.722C72.1462 177.245 79.5578 173.985 83.2895 172.407C90.6492 169.249 105.783 162.678 111.329 160.285C114.076 159.062 118.896 156.923 120.503 156.261Z" fill="white"/>
<path d="M118.793 152.39C119 152.288 119.259 152.288 119.415 152.186C119.622 152.085 119.881 152.085 120.036 151.983C120.244 151.881 120.451 151.881 120.658 151.779C121.073 151.575 121.332 151.575 121.332 151.575C121.332 151.575 101.844 161.049 82.4085 170.573C62.9207 180.047 43.4848 189.571 43.4848 189.571C43.4848 189.571 50.4299 186.108 55.6128 183.561C58.2043 182.288 64.8384 178.977 68.0518 177.398C71.2652 175.819 78.8323 172.05 82.3048 170.369C89.1981 166.957 104.591 159.368 109.722 156.821C112.366 155.599 117.29 153.154 118.793 152.39Z" fill="white"/>
<path d="M116.927 148.672C117.134 148.57 117.393 148.57 117.549 148.468C117.756 148.366 118.015 148.366 118.17 148.265C118.378 148.163 118.585 148.163 118.741 148.061C119.103 147.857 119.363 147.857 119.363 147.857C119.363 147.857 100.393 158.298 81.4236 168.739C62.4541 179.181 43.4846 189.622 43.4846 189.622C43.4846 189.622 50.4816 185.7 55.3017 183.052C57.6858 181.727 64.4236 177.958 67.4297 176.278C70.4358 174.597 78.1065 170.318 81.3199 168.536C87.7467 164.97 103.295 156.261 108.116 153.613C110.5 152.237 115.527 149.436 116.927 148.672Z" fill="white"/>
<path d="M114.802 145.056C115.009 144.954 115.216 144.954 115.372 144.852C115.579 144.75 115.786 144.75 115.942 144.648C116.149 144.546 116.357 144.546 116.46 144.445C116.823 144.241 117.082 144.241 117.082 144.241C117.082 144.241 98.6828 155.599 80.2834 166.957C61.8841 178.315 43.4847 189.673 43.4847 189.673C43.4847 189.673 50.4817 185.292 54.939 182.542C57.1676 181.167 63.9054 176.94 66.7042 175.208C69.503 173.476 77.2255 168.638 80.1798 166.804C86.0883 163.137 101.793 153.256 106.25 150.506C108.479 149.028 113.506 145.82 114.802 145.056Z" fill="white"/>
<path d="M112.573 141.542C112.728 141.44 112.988 141.44 113.143 141.338C113.299 141.236 113.558 141.236 113.713 141.134C113.869 141.032 114.076 141.032 114.231 140.93C114.542 140.727 114.802 140.727 114.802 140.727C114.802 140.727 96.9723 152.95 79.1431 165.174C61.3139 177.398 43.4846 189.622 43.4846 189.622C43.4846 189.622 50.4816 184.732 54.5761 181.931C56.5974 180.505 63.387 175.768 65.9785 174.037C68.5181 172.254 76.2925 166.855 78.9876 164.971C84.4297 161.202 100.186 150.2 104.28 147.399C106.302 145.922 111.381 142.356 112.573 141.542Z" fill="white"/>
<path d="M110.137 138.129C110.293 138.027 110.552 138.027 110.655 137.925C110.811 137.823 111.07 137.823 111.174 137.721C111.329 137.619 111.536 137.619 111.64 137.518C111.951 137.314 112.21 137.314 112.21 137.314C112.21 137.314 95.0029 150.403 77.8475 163.442C60.692 176.481 43.4847 189.571 43.4847 189.571C43.4847 189.571 50.4298 184.172 54.1615 181.32C56.0274 179.893 62.817 174.647 65.1493 172.865C67.4816 171.082 75.2042 165.072 77.692 163.188C82.6676 159.368 98.3718 147.195 102.104 144.342C103.918 142.916 109.049 138.944 110.137 138.129Z" fill="white"/>
<path d="M107.494 134.869C107.649 134.767 107.856 134.767 108.012 134.665C108.167 134.563 108.375 134.563 108.53 134.461C108.686 134.36 108.893 134.36 108.997 134.258C109.256 134.054 109.515 134.054 109.515 134.054C109.515 134.054 92.9814 147.959 76.4998 161.812C59.9662 175.717 43.4846 189.571 43.4846 189.571C43.4846 189.571 50.326 183.713 53.7467 180.81C55.4571 179.384 62.1431 173.629 64.2681 171.795C66.3931 169.961 74.0638 163.442 76.2924 161.507C80.8016 157.687 96.454 144.291 99.8229 141.439C101.481 140.013 106.509 135.684 107.494 134.869Z" fill="white"/>
<path d="M104.747 131.711C104.85 131.609 105.11 131.609 105.213 131.507C105.317 131.405 105.576 131.405 105.68 131.304C105.783 131.202 106.043 131.202 106.094 131.1C106.354 130.896 106.613 130.896 106.613 130.896C106.613 130.896 90.8048 145.565 74.9969 160.233C59.189 174.902 43.3811 189.57 43.3811 189.57C43.3811 189.57 50.1189 183.204 53.1768 180.352C54.6798 178.925 61.314 172.661 63.2316 170.878C65.1493 169.096 72.7164 161.914 74.7377 160.03C78.7804 156.21 94.2255 141.592 97.2834 138.74C98.8383 137.263 103.866 132.526 104.747 131.711Z" fill="white"/>
<path d="M101.793 128.706C101.896 128.604 102.155 128.604 102.259 128.503C102.363 128.401 102.622 128.401 102.725 128.299C102.829 128.197 103.036 128.197 103.14 128.095C103.347 127.891 103.607 127.891 103.607 127.891C103.607 127.891 88.5761 143.273 73.4938 158.706C58.4115 174.138 43.381 189.52 43.381 189.52C43.381 189.52 49.9634 182.644 52.7103 179.843C54.0579 178.417 60.5883 171.642 62.2987 169.86C64.0091 168.128 71.4206 160.335 73.2347 158.451C76.8627 154.733 92.0487 138.842 94.7438 136.041C96.0913 134.665 101.015 129.521 101.793 128.706Z" fill="white"/>
<path d="M98.7347 125.854C98.8384 125.752 99.0975 125.752 99.1493 125.65C99.253 125.549 99.5121 125.549 99.564 125.447C99.6676 125.345 99.8749 125.345 99.9786 125.294C100.186 125.09 100.445 125.09 100.445 125.09C100.445 125.09 86.192 141.185 71.939 157.331C57.686 173.476 43.433 189.571 43.433 189.571C43.433 189.571 49.8598 182.186 52.2439 179.435C53.436 178.06 59.811 170.726 61.314 168.994C62.8171 167.262 70.0732 158.909 71.6799 157.076C74.8933 153.409 89.7164 136.295 92.1006 133.596C93.2408 132.17 98.0091 126.618 98.7347 125.854Z" fill="white"/>
<path d="M95.5212 123.104C95.6248 123.002 95.8321 123.002 95.9358 122.9C96.0395 122.798 96.2468 122.798 96.3504 122.696C96.4541 122.595 96.6614 122.595 96.7132 122.544C96.8687 122.34 97.1279 122.34 97.1279 122.34C97.1279 122.34 83.7041 139.097 70.2285 155.905C56.7529 172.712 43.3292 189.469 43.3292 189.469C43.3292 189.469 49.4968 181.575 51.6218 178.926C52.6584 177.602 58.8261 169.707 60.1737 168.077C61.5212 166.448 68.5182 157.432 69.9175 155.65C72.7163 152.136 87.073 133.749 89.198 131.1C90.2346 129.827 94.8992 123.868 95.5212 123.104Z" fill="white"/>
<path d="M92.1004 120.557C92.1522 120.455 92.4114 120.455 92.515 120.404C92.5669 120.303 92.826 120.303 92.9297 120.252C92.9815 120.15 93.2406 120.15 93.2925 120.099C93.4479 119.895 93.7071 119.946 93.7071 119.946C93.7071 119.946 81.1126 137.365 68.5181 154.784C55.9236 172.203 43.3291 189.622 43.3291 189.622C43.3291 189.622 49.2377 181.218 51.0517 178.671C51.9846 177.398 57.8931 168.994 59.0334 167.415C60.1736 165.836 66.9114 156.261 68.1553 154.529C70.5913 151.168 84.3778 131.559 86.1919 129.012C87.073 127.688 91.5821 121.27 92.1004 120.557Z" fill="white"/>
<path d="M88.6278 118.164C88.6796 118.062 88.9388 118.113 88.9906 118.011C89.0424 117.909 89.3016 117.96 89.3534 117.858C89.4053 117.756 89.6644 117.807 89.7162 117.705C89.8199 117.501 90.1309 117.552 90.1309 117.552C90.1309 117.552 78.4175 135.532 66.7559 153.562C55.0943 171.592 43.3809 189.571 43.3809 189.571C43.3809 189.571 49.0303 180.658 50.5852 178.264C51.3626 177.042 57.012 168.128 57.9968 166.6C58.9815 165.123 65.4083 154.937 66.4449 153.307C68.5181 150.098 81.6827 129.267 83.2376 126.873C83.8595 125.651 88.1614 118.826 88.6278 118.164Z" fill="white"/>
<path d="M84.9481 115.922C84.9999 115.821 85.2591 115.872 85.3109 115.77C85.3627 115.668 85.6219 115.719 85.6737 115.617C85.7255 115.515 85.9847 115.566 85.9847 115.464C86.0883 115.311 86.3475 115.311 86.3475 115.311C86.3475 115.311 75.567 133.851 64.7865 152.39C54.0061 170.93 43.2256 189.469 43.2256 189.469C43.2256 189.469 48.5122 180.047 49.8079 177.806C50.4298 176.685 55.7683 167.212 56.5975 165.836C57.4268 164.41 63.4908 153.664 64.3719 152.136C66.0823 149.131 78.5213 127.077 79.817 124.836C80.5426 123.766 84.5853 116.534 84.9481 115.922Z" fill="white"/>
<path d="M81.1647 113.834C81.2165 113.732 81.4757 113.783 81.5275 113.681C81.5793 113.579 81.8385 113.63 81.8903 113.528C81.9421 113.427 82.2013 113.477 82.2013 113.427C82.3049 113.274 82.5641 113.274 82.5641 113.325C82.5641 113.325 72.7165 132.373 62.9208 151.422C53.1251 170.471 43.2776 189.52 43.2776 189.52C43.2776 189.52 48.2013 179.639 49.2897 177.551C49.808 176.532 54.7836 166.549 55.4574 165.225C56.1312 163.901 61.7806 152.543 62.5062 151.168C63.9056 148.417 75.5153 125.141 76.6037 123.053C77.0702 122.034 80.8537 114.445 81.1647 113.834Z" fill="white"/>
<path d="M77.2772 111.95C77.3291 111.848 77.5882 111.899 77.6401 111.848C77.6919 111.746 77.951 111.797 78.0029 111.746C78.0547 111.644 78.3138 111.695 78.3138 111.644C78.3657 111.491 78.6766 111.542 78.6766 111.542C78.6766 111.542 69.8138 131.049 61.0029 150.556C52.1919 170.064 43.3291 189.571 43.3291 189.571C43.3291 189.571 47.8383 179.232 48.7194 177.347C49.134 176.379 53.695 165.938 54.2651 164.767C54.7834 163.595 60.0181 151.626 60.5882 150.404C61.7285 147.857 72.4053 123.409 73.2346 121.525C73.5455 120.506 77.0181 112.51 77.2772 111.95Z" fill="white"/>
<path d="M73.2347 110.269C73.2866 110.218 73.5457 110.218 73.5457 110.167C73.5975 110.117 73.8567 110.117 73.8567 110.066C73.9085 110.015 74.1677 110.015 74.1677 109.964C74.2195 109.811 74.5305 109.862 74.5305 109.862C74.5305 109.862 66.7042 129.777 58.878 149.691C51.0518 169.606 43.2256 189.52 43.2256 189.52C43.2256 189.52 47.3201 178.723 47.9421 177.042C48.2531 176.176 52.3994 165.226 52.814 164.156C53.2287 163.086 57.9451 150.608 58.3597 149.487C59.2408 147.246 68.8811 121.627 69.503 119.947C69.9177 119.132 73.0274 110.728 73.2347 110.269Z" fill="white"/>
<path d="M69.0884 108.741C69.0884 108.69 69.3993 108.69 69.3993 108.639C69.3993 108.588 69.7103 108.588 69.7103 108.537C69.7103 108.486 70.0213 108.486 70.0213 108.435C70.0731 108.334 70.3841 108.334 70.3841 108.334C70.3841 108.334 63.5945 128.605 56.8048 148.927C50.0152 169.198 43.2256 189.52 43.2256 189.52C43.2256 189.52 46.8018 178.264 47.2683 176.787C47.5274 176.074 51.1555 164.614 51.4664 163.697C51.7774 162.78 55.9238 149.742 56.2347 148.774C56.8567 146.788 65.4085 120.099 65.875 118.622C66.1859 117.909 68.9847 109.199 69.0884 108.741Z" fill="white"/>
<path d="M64.8901 107.468C64.8901 107.417 65.2011 107.468 65.2011 107.417C65.2011 107.366 65.5121 107.417 65.5121 107.366C65.5121 107.315 65.823 107.315 65.823 107.315C65.8749 107.213 66.1859 107.264 66.1859 107.264C66.1859 107.264 60.4328 127.841 54.7316 148.468C48.9786 169.045 43.2774 189.673 43.2774 189.673C43.2774 189.673 46.3353 178.009 46.6463 176.787C46.8017 176.176 49.9115 164.257 50.1188 163.493C50.3261 162.729 53.9023 149.181 54.1097 148.316C54.5761 146.635 61.8322 118.877 62.195 117.603C62.4023 116.89 64.7865 107.824 64.8901 107.468Z" fill="white"/>
<path d="M60.5365 106.347C60.5365 106.296 60.8475 106.347 60.8475 106.296C60.8475 106.245 61.1584 106.296 61.1584 106.245C61.1584 106.194 61.4694 106.245 61.4694 106.194C61.4694 106.092 61.8322 106.143 61.8322 106.143C61.8322 106.143 57.1676 127.026 52.5548 147.857C47.942 168.689 43.2774 189.571 43.2774 189.571C43.2774 189.571 45.7652 177.551 45.9725 176.532C46.0761 176.023 48.6158 163.697 48.7713 163.086C48.9267 162.475 51.8292 148.417 51.9328 147.755C52.2438 146.431 58.1523 117.603 58.4115 116.585C58.5151 116.075 60.4847 106.653 60.5365 106.347Z" fill="white"/>
<path d="M56.131 105.481C56.131 105.43 56.4419 105.481 56.4419 105.43C56.4419 105.379 56.7529 105.43 56.7529 105.379C56.7529 105.328 57.0639 105.379 57.0639 105.328C57.0639 105.277 57.4267 105.277 57.4267 105.277C57.4267 105.277 53.9023 126.363 50.3261 147.398C46.8017 168.485 43.2255 189.52 43.2255 189.52C43.2255 189.52 45.0914 177.092 45.2468 176.328C45.2987 175.921 47.2682 163.239 47.32 162.729C47.3718 162.22 49.6005 147.755 49.7041 147.246C49.8596 146.227 54.4206 116.482 54.5243 115.718C54.5761 115.464 56.0791 105.736 56.131 105.481Z" fill="white"/>
<path d="M51.6218 104.819L51.9846 104.819L52.3474 104.819L52.6584 104.819C52.6584 104.768 53.0212 104.819 53.0212 104.819C53.0212 104.819 50.5852 126.058 48.1492 147.246C45.7133 168.434 43.2773 189.673 43.2773 189.673C43.2773 189.673 44.5212 176.939 44.573 176.43C44.6249 176.175 45.8687 163.086 45.9206 162.78C45.9724 162.475 47.4236 147.551 47.4755 147.195C47.5273 146.533 50.5852 115.871 50.637 115.362C50.637 115.056 51.6218 104.972 51.6218 104.819Z" fill="white"/>
<path d="M47.0611 104.411L47.4239 104.411L47.7867 104.411L48.0976 104.411L48.4604 104.411C48.4604 104.411 47.1647 125.752 45.869 147.042C44.5733 168.332 43.2775 189.673 43.2257 189.673C43.2257 189.673 43.7958 176.634 43.8476 176.379C43.8476 176.226 44.4696 162.831 44.4696 162.678C44.4696 162.525 45.1434 147.195 45.1952 147.042C45.1952 146.685 46.6464 115.26 46.6464 115.005C46.5946 114.802 47.0611 104.513 47.0611 104.411Z" fill="white"/>
<path d="M44.2621 104.259C44.2621 104.259 44.1066 125.6 43.8993 146.992C43.7438 168.332 43.5365 189.724 43.5365 189.724L43.1737 146.992L42.8109 104.259L43.1737 104.259L43.5365 104.259L44.2621 104.259Z" fill="white"/>
</g>
<path d="M43.5366 90.9656C29.4909 90.9656 18.0885 79.7605 18.0885 65.9577C18.0885 52.155 29.4909 40.9499 43.5366 40.9499C57.5823 40.9499 68.9847 52.155 68.9847 65.9577C68.9847 79.7605 57.5823 90.9656 43.5366 90.9656ZM43.5366 41.7648C29.9574 41.7648 18.9177 52.6134 18.9177 65.9577C18.9177 79.3021 29.9574 90.1507 43.5366 90.1507C57.1159 90.1507 68.1555 79.3021 68.1555 65.9577C68.1555 52.6134 57.1159 41.7648 43.5366 41.7648Z" fill="white"/>
<path d="M43.5367 87.6037C31.4087 87.6037 21.5093 77.8755 21.5093 65.9573C21.5093 54.0391 31.4087 44.311 43.5367 44.311C55.6648 44.311 65.5641 54.0391 65.5641 65.9573C65.5641 77.9265 55.6648 87.6037 43.5367 87.6037ZM43.5367 45.024C31.7715 45.024 22.2349 54.4466 22.2349 65.9573C22.2349 77.4681 31.8233 86.8906 43.5367 86.8906C55.2501 86.8906 64.8385 77.4681 64.8385 65.9573C64.8385 54.4466 55.302 45.024 43.5367 45.024Z" fill="white"/>
<path d="M43.5366 84.242C33.2744 84.242 24.9299 76.0418 24.9299 65.9572C24.9299 55.8725 33.2744 47.6724 43.5366 47.6724C53.7988 47.6724 62.1432 55.8725 62.1432 65.9572C62.1432 76.0418 53.7988 84.242 43.5366 84.242ZM43.5366 48.2836C33.6372 48.2836 25.5519 56.2291 25.5519 65.9572C25.5519 75.6853 33.6372 83.6308 43.5366 83.6308C53.436 83.6308 61.5213 75.7362 61.5213 65.9572C61.5213 56.1781 53.436 48.2836 43.5366 48.2836Z" fill="white"/>
<path d="M43.5368 80.8805C35.1404 80.8805 28.3508 74.2084 28.3508 65.9573C28.3508 57.7062 35.1404 51.0341 43.5368 51.0341C51.9331 51.0341 58.7227 57.7062 58.7227 65.9573C58.7227 74.2084 51.8813 80.8805 43.5368 80.8805ZM43.5368 51.5434C35.4514 51.5434 28.8691 58.0118 28.8691 65.9573C28.8691 73.9028 35.4514 80.3712 43.5368 80.3712C51.6221 80.3712 58.2044 73.9028 58.2044 65.9573C58.2044 58.0118 51.6221 51.5434 43.5368 51.5434Z" fill="white"/>
<path d="M43.5367 77.5189C37.0581 77.5189 31.7715 72.3237 31.7715 65.9572C31.7715 59.5906 37.0581 54.3955 43.5367 54.3955C50.0154 54.3955 55.3019 59.5906 55.3019 65.9572C55.3019 72.3237 50.0154 77.5189 43.5367 77.5189ZM43.5367 54.8029C37.2654 54.8029 32.1861 59.7943 32.1861 65.9572C32.1861 72.12 37.2654 77.1114 43.5367 77.1114C49.808 77.1114 54.8873 72.12 54.8873 65.9572C54.8873 59.7943 49.808 54.8029 43.5367 54.8029Z" fill="white"/>
<path d="M43.5365 74.1574C38.9238 74.1574 35.192 70.4903 35.192 65.9573C35.192 61.4243 38.9237 57.7571 43.5365 57.7571C48.1493 57.7571 51.881 61.4243 51.881 65.9573C51.881 70.4903 48.0975 74.1574 43.5365 74.1574ZM43.5365 58.0627C39.1311 58.0627 35.503 61.5771 35.503 65.9573C35.503 70.2865 39.0792 73.8518 43.5365 73.8518C47.942 73.8518 51.5701 70.3375 51.5701 65.9573C51.5701 61.628 47.942 58.0627 43.5365 58.0627Z" fill="white"/>
<path d="M43.5367 70.7962C40.8416 70.7962 38.613 68.657 38.613 65.9576C38.613 63.3091 40.7898 61.119 43.5367 61.119C46.2319 61.119 48.4605 63.2582 48.4605 65.9576C48.4087 68.6061 46.2319 70.7962 43.5367 70.7962ZM43.5367 61.3227C40.9453 61.3227 38.8203 63.411 38.8203 65.9576C38.8203 68.5042 40.9453 70.5925 43.5367 70.5925C46.1282 70.5925 48.2532 68.5042 48.2532 65.9576C48.2532 63.411 46.1282 61.3227 43.5367 61.3227Z" fill="white"/>
<path d="M43.5366 67.4345C42.7073 67.4345 42.0335 66.7724 42.0335 65.9575C42.0335 65.1426 42.7073 64.4804 43.5366 64.4804C44.3658 64.4804 45.0396 65.1426 45.0396 65.9575C44.9878 66.7724 44.3658 67.4345 43.5366 67.4345ZM43.5366 64.5823C42.7591 64.5823 42.1372 65.1935 42.1372 65.9575C42.1372 66.7215 42.7591 67.3327 43.5366 67.3327C44.314 67.3327 44.936 66.7215 44.936 65.9575C44.8841 65.1935 44.2622 64.5823 43.5366 64.5823Z" fill="white"/>
<path d="M43.5368 27.6564C35.7624 27.6564 29.491 21.4426 29.491 13.8537C29.491 6.26471 35.7624 2.60202e-07 43.5368 1.67493e-07C51.3111 7.47848e-08 57.5825 6.21377 57.5825 13.8027C57.5825 21.3917 51.2593 27.6564 43.5368 27.6564ZM43.5368 0.101865C35.8142 0.101865 29.5947 6.26471 29.5947 13.8027C29.5947 21.3407 35.866 27.5036 43.5368 27.5036C51.2075 27.5036 57.4788 21.3917 57.4788 13.8027C57.4788 6.21377 51.2075 0.101865 43.5368 0.101865Z" fill="white"/>
<path d="M43.5368 25.2627C37.11 25.2627 31.9271 20.1185 31.9271 13.8538C31.9271 7.58907 37.11 2.39395 43.5368 2.39395C49.9636 2.39395 55.1465 7.53814 55.1465 13.8028C55.1465 20.0675 49.9118 25.2627 43.5368 25.2627ZM43.5368 2.64861C37.2655 2.64861 32.1862 7.64 32.1862 13.8028C32.1862 19.9657 37.2655 24.9571 43.5368 24.9571C49.8081 24.9571 54.8874 19.9657 54.8874 13.8028C54.8874 7.64 49.8081 2.64861 43.5368 2.64861Z" fill="white"/>
<path d="M43.5367 22.8683C38.4575 22.8683 34.363 18.8447 34.363 13.8533C34.363 8.86187 38.4575 4.8382 43.5367 4.8382C48.616 4.8382 52.7105 8.86187 52.7105 13.8533C52.7105 18.8447 48.616 22.8683 43.5367 22.8683ZM43.5367 5.19472C38.7166 5.19472 34.7776 9.0656 34.7776 13.8023C34.7776 18.5391 38.7166 22.4099 43.5367 22.4099C48.3569 22.4099 52.2959 18.5391 52.2959 13.8023C52.2959 9.0656 48.3569 5.19472 43.5367 5.19472Z" fill="white"/>
<path d="M43.5367 20.4237C39.805 20.4237 36.7989 17.4696 36.7989 13.8025C36.7989 10.1353 39.805 7.18124 43.5367 7.18124C47.2684 7.18124 50.2745 10.1353 50.2745 13.8025C50.2745 17.4696 47.2684 20.4237 43.5367 20.4237ZM43.5367 7.79243C40.1678 7.79243 37.369 10.4919 37.369 13.8534C37.369 17.215 40.116 19.8635 43.5367 19.8635C46.9056 19.8635 49.7044 17.164 49.7044 13.8025C49.7044 10.4409 46.9056 7.79243 43.5367 7.79243Z" fill="white"/>
<path d="M43.5366 18.0302C41.1524 18.0302 39.2347 16.1457 39.2347 13.8028C39.2347 11.4599 41.1524 9.57541 43.5366 9.57541C45.9207 9.57541 47.8384 11.4599 47.8384 13.8028C47.8384 16.1457 45.9207 18.0302 43.5366 18.0302ZM43.5366 10.3394C41.567 10.3394 40.0122 11.9183 40.0122 13.8028C40.0122 15.7382 41.6189 17.2662 43.5366 17.2662C45.5061 17.2662 47.0609 15.6873 47.0609 13.8028C47.0609 11.9183 45.5061 10.3394 43.5366 10.3394Z" fill="white"/>
<path d="M43.5367 15.6361C42.5002 15.6361 41.6709 14.8212 41.6709 13.8025C41.6709 12.7839 42.5002 11.9689 43.5367 11.9689C44.5733 11.9689 45.4026 12.7839 45.4026 13.8025C45.4026 14.8212 44.5733 15.6361 43.5367 15.6361ZM43.5367 12.8857C43.0185 12.8857 42.6038 13.2932 42.6038 13.8025C42.6038 14.3118 43.0185 14.7193 43.5367 14.7193C44.055 14.7193 44.4697 14.3118 44.4697 13.8025C44.4697 13.2932 44.055 12.8857 43.5367 12.8857Z" fill="white"/>
</svg>
