<svg width="87" height="230" viewBox="0 0 87 230" fill="none" xmlns="http://www.w3.org/2000/svg">
<path d="M43.8946 0.526421C55.3579 0.526421 66.1559 4.90166 74.2928 12.8978C82.4297 20.8939 86.882 31.4549 86.882 42.7701C86.882 54.0351 82.4297 64.6463 74.2928 72.6425C66.1559 80.6386 55.4091 85.0139 43.8946 85.0139C32.4313 85.0139 21.6333 80.6386 13.4964 72.6425C5.35949 64.6463 0.907227 54.0854 0.907227 42.7701C0.907227 31.5051 5.35949 20.8939 13.4964 12.8978C21.6333 4.90166 32.4313 0.526421 43.8946 0.526421ZM43.8946 84.863C55.3579 84.863 66.1048 80.4877 74.1905 72.5419C82.2762 64.5961 86.7285 53.9848 86.7285 42.7701C86.7285 31.5554 82.2762 20.9442 74.1905 12.9984C66.1048 5.05253 55.3067 0.677293 43.8946 0.677292C32.4825 0.677292 21.6845 5.05253 13.5987 12.9984C5.51302 20.8939 1.06076 31.4549 1.06075 42.7198C1.06075 53.9848 5.51302 64.5458 13.5987 72.4916C21.6845 80.4374 32.4313 84.863 43.8946 84.863Z" fill="white"/>
<path d="M43.8945 3.5435C65.9 3.5435 83.8114 21.145 83.8114 42.7698C83.8114 64.3946 65.9 81.9961 43.8945 81.9961C21.8891 81.9961 3.97766 64.3946 3.97766 42.7698C3.97766 21.145 21.8891 3.5435 43.8945 3.5435ZM43.8945 81.7949C65.7976 81.7949 83.6067 64.294 83.6067 42.7698C83.6067 21.2456 65.7976 3.74465 43.8945 3.74465C21.9914 3.74465 4.18236 21.2456 4.18236 42.7698C4.18236 64.294 21.9914 81.7949 43.8945 81.7949Z" fill="white"/>
<path d="M43.8945 6.56145C64.2111 6.56145 80.7408 22.8052 80.7408 42.7703C80.7408 62.7355 64.2111 78.9792 43.8945 78.9792C23.5778 78.9792 7.04816 62.7355 7.04816 42.7703C7.04816 22.8052 23.5778 6.56145 43.8945 6.56145ZM43.8945 78.6775C64.0576 78.6775 80.4849 62.5344 80.4849 42.72C80.4849 22.9057 64.0576 6.7626 43.8945 6.7626C23.7314 6.7626 7.30403 22.9057 7.30403 42.72C7.30403 62.5344 23.7314 78.6775 43.8945 78.6775Z" fill="white"/>
<path d="M43.8944 9.57874C62.5222 9.57874 77.6702 24.4646 77.6702 42.7702C77.6702 61.0758 62.5222 75.9617 43.8944 75.9617C25.2665 75.9617 10.1186 61.0758 10.1186 42.7702C10.1186 24.4646 25.3177 9.57874 43.8944 9.57874ZM43.8944 75.6097C62.3687 75.6097 77.3631 60.8747 77.3631 42.7199C77.3631 24.5652 62.3687 9.83019 43.8944 9.83019C25.4201 9.83019 10.4256 24.5652 10.4256 42.7199C10.4256 60.8747 25.4712 75.6097 43.8944 75.6097Z" fill="white"/>
<path d="M43.8947 12.596C60.8337 12.596 74.5999 26.1241 74.5999 42.7701C74.5999 59.4161 60.8337 72.9442 43.8947 72.9442C26.9556 72.9442 13.1894 59.4161 13.1894 42.7701C13.1894 26.1241 27.0068 12.596 43.8947 12.596ZM43.8947 72.5418C60.629 72.5418 74.2417 59.1647 74.2417 42.7198C74.2417 26.2749 60.629 12.8977 43.8947 12.8977C27.1603 12.8977 13.5476 26.2749 13.5476 42.7198C13.5476 59.1647 27.1603 72.5418 43.8947 72.5418Z" fill="white"/>
<path d="M43.8945 15.6137C59.1448 15.6137 71.5292 27.7839 71.5292 42.7704C71.5292 57.7569 59.1448 69.9271 43.8945 69.9271C28.6442 69.9271 16.2598 57.7569 16.2598 42.7704C16.2598 27.7839 28.6954 15.6137 43.8945 15.6137ZM43.8945 69.4744C58.8889 69.4744 71.1198 57.5054 71.1198 42.7201C71.1198 27.9348 58.9401 15.9658 43.8945 15.9658C28.8489 15.9658 16.6692 27.9348 16.6692 42.7201C16.6692 57.5054 28.9001 69.4744 43.8945 69.4744Z" fill="white"/>
<path d="M43.8947 18.6308C57.405 18.6308 68.4589 29.4432 68.4589 42.77C68.4589 56.0969 57.4561 66.9093 43.8947 66.9093C30.3332 66.9093 19.3304 56.0969 19.3304 42.77C19.3304 29.4431 30.3843 18.6308 43.8947 18.6308ZM43.8947 66.4064C57.1491 66.4064 67.9471 55.7952 67.9471 42.77C67.9471 29.7449 57.1491 19.1337 43.8947 19.1337C30.6402 19.1337 19.8422 29.7449 19.8422 42.77C19.8422 55.7952 30.6402 66.4064 43.8947 66.4064Z" fill="white"/>
<path d="M43.8944 21.6483C55.716 21.6483 65.3881 31.1028 65.3881 42.7701C65.3881 54.4375 55.7672 63.892 43.8944 63.892C32.0217 63.892 22.4008 54.4375 22.4008 42.7701C22.4008 31.1028 32.0729 21.6483 43.8944 21.6483ZM43.8944 63.2885C55.4601 63.2885 64.8252 54.0351 64.8252 42.7198C64.8252 31.4046 55.4089 22.1512 43.8944 22.1512C32.38 22.1512 22.9637 31.4046 22.9637 42.7198C22.9637 54.0351 32.38 63.2885 43.8944 63.2885Z" fill="white"/>
<path d="M43.8945 24.6658C54.0273 24.6658 62.3177 32.7625 62.3177 42.7702C62.3177 52.778 54.0784 60.8747 43.8945 60.8747C33.7106 60.8747 25.4714 52.778 25.4714 42.7702C25.4714 32.7625 33.7618 24.6658 43.8945 24.6658ZM43.8945 60.2209C53.7202 60.2209 61.7036 52.3756 61.7036 42.7199C61.7036 33.0642 53.7202 25.219 43.8945 25.219C34.0688 25.219 26.0855 33.0642 26.0855 42.7199C26.0855 52.3756 34.0688 60.2209 43.8945 60.2209Z" fill="white"/>
<path d="M43.8947 27.6833C52.3386 27.6833 59.2473 34.4222 59.2473 42.7703C59.2473 51.1185 52.3898 57.8574 43.8947 57.8574C35.3996 57.8574 28.5421 51.1185 28.5421 42.7703C28.5421 34.4222 35.4507 27.6833 43.8947 27.6833ZM43.8947 57.1533C51.9804 57.1533 58.582 50.6659 58.582 42.72C58.582 34.7742 51.9804 28.2868 43.8947 28.2868C35.809 28.2868 29.2073 34.7742 29.2073 42.72C29.2073 50.6659 35.809 57.1533 43.8947 57.1533Z" fill="white"/>
<path d="M43.8946 30.7008C50.6498 30.7008 56.1767 36.0818 56.1767 42.7704C56.1767 49.459 50.7009 54.8401 43.8946 54.8401C37.1394 54.8401 31.6125 49.459 31.6125 42.7704C31.6125 36.0818 37.1394 30.7008 43.8946 30.7008ZM43.8946 54.0857C50.2403 54.0857 55.4602 49.0064 55.4602 42.7201C55.4602 36.4842 50.2915 31.3546 43.8946 31.3546C37.4977 31.3546 32.3289 36.4339 32.3289 42.7201C32.3801 49.0064 37.5488 54.0857 43.8946 54.0857Z" fill="white"/>
<path d="M43.8945 33.7181C48.9609 33.7181 53.1061 37.7916 53.1061 42.7703C53.1061 47.749 48.9609 51.8225 43.8945 51.8225C38.8281 51.8225 34.6829 47.749 34.6829 42.7703C34.6829 37.7916 38.8281 33.7181 43.8945 33.7181ZM43.8945 51.0179C48.5515 51.0179 52.2873 47.2964 52.2873 42.7703C52.2873 38.2442 48.5003 34.5227 43.8945 34.5227C39.2375 34.5227 35.5017 38.2442 35.5017 42.7703C35.5017 47.2964 39.2887 51.0179 43.8945 51.0179Z" fill="white"/>
<path d="M43.8945 36.7356C47.2721 36.7356 50.0355 39.4512 50.0355 42.7704C50.0355 46.0895 47.272 48.8052 43.8945 48.8052C40.5169 48.8052 37.7534 46.0895 37.7534 42.7704C37.7534 39.4512 40.5169 36.7356 43.8945 36.7356ZM43.8945 47.9C46.8115 47.9 49.1655 45.5866 49.1655 42.7201C49.1655 39.8536 46.8115 37.5402 43.8945 37.5402C40.9775 37.5402 38.6234 39.8536 38.6234 42.7201C38.6234 45.5866 40.9775 47.9 43.8945 47.9Z" fill="white"/>
<path d="M43.8946 39.7533C45.5834 39.7533 46.9651 41.1111 46.9651 42.7707C46.9651 44.4303 45.5834 45.7881 43.8946 45.7881C42.2058 45.7881 40.8241 44.4303 40.8241 42.7707C40.8241 41.1111 42.2058 39.7533 43.8946 39.7533ZM43.8946 44.8326C45.0717 44.8326 46.044 43.8771 46.044 42.7204C46.044 41.5637 45.0717 40.6082 43.8946 40.6082C42.7176 40.6082 41.7453 41.5637 41.7453 42.7204C41.7453 43.8771 42.7176 44.8326 43.8946 44.8326Z" fill="white"/>
<mask id="mask0_1_1031" style="mask-type:alpha" maskUnits="userSpaceOnUse" x="0" y="42" width="87" height="86">
<path d="M86.8311 84.9132C86.8311 61.6104 67.6079 42.7197 43.8949 42.7197C20.1819 42.7197 0.958741 61.6104 0.958741 84.9132C0.95874 108.216 20.1819 127.107 43.8949 127.107C67.6079 127.107 86.8311 108.216 86.8311 84.9132Z" fill="white"/>
</mask>
<g mask="url(#mask0_1_1031)">
<path d="M126.082 46.9441C126.389 46.9441 126.696 46.9944 127.004 46.9944C127.311 46.9944 127.618 47.0447 127.925 47.0447C128.232 47.0447 128.539 47.095 128.743 47.095C129.358 47.1452 129.665 47.1452 129.665 47.1452C129.665 47.1452 108.222 46.0389 86.8308 44.9325C65.4395 43.8261 43.9969 42.7197 43.9969 42.7197C43.9969 42.7197 49.3704 42.9712 57.4049 43.4238C61.4478 43.6249 66.1047 43.8764 71.1199 44.1278C76.1351 44.3793 81.5085 44.681 86.882 44.9325C97.6288 45.4857 108.376 46.0389 116.461 46.4412C120.402 46.6926 123.779 46.8435 126.082 46.9441Z" fill="white"/>
<path d="M125.827 51.1686C126.134 51.2189 126.441 51.2692 126.697 51.2692C127.004 51.3195 127.311 51.3697 127.567 51.3697C127.874 51.42 128.129 51.4703 128.385 51.4703C128.948 51.5206 129.255 51.5709 129.255 51.5709C129.255 51.5709 107.915 49.3581 86.575 47.1454C65.2348 44.9326 43.8947 42.7198 43.8947 42.7198C43.8947 42.7198 49.2169 43.273 57.2514 44.0777C61.2431 44.48 65.9001 44.9829 70.9153 45.4858C75.9305 45.9887 81.2527 46.5419 86.575 47.0951C97.3218 48.2015 108.069 49.3078 116.103 50.1125C120.3 50.6154 123.677 50.9674 125.827 51.1686Z" fill="white"/>
<path d="M125.417 55.3428C125.724 55.3931 125.98 55.4434 126.236 55.4937C126.543 55.544 126.799 55.5943 127.055 55.6446C127.362 55.6949 127.618 55.7452 127.822 55.7954C128.385 55.896 128.692 55.9463 128.692 55.9463C128.692 55.9463 107.506 52.6272 86.3192 49.3583C65.1326 46.0391 43.9459 42.7703 43.9459 42.7703C43.9459 42.7703 49.2682 43.5749 57.2004 44.8322C61.192 45.4357 65.7978 46.1397 70.7619 46.9444C75.7259 47.6987 81.0481 48.5034 86.3192 49.3583C97.066 51.0179 107.762 52.6774 115.745 53.8844C119.941 54.4879 123.319 55.0411 125.417 55.3428Z" fill="white"/>
<path d="M124.752 59.4663C125.059 59.5166 125.315 59.6172 125.52 59.6675C125.827 59.7178 126.082 59.8184 126.287 59.8687C126.543 59.919 126.799 60.0195 127.004 60.0698C127.515 60.1704 127.822 60.271 127.822 60.271C127.822 60.271 106.84 55.8957 85.8585 51.5205C64.8766 47.1453 43.8947 42.77 43.8947 42.77C43.8947 42.77 49.1657 43.8764 56.9956 45.4857C60.9361 46.2903 65.5419 47.2458 70.4547 48.2516C75.3676 49.2574 80.6386 50.3638 85.9097 51.4199C96.5542 53.6327 107.25 55.8454 115.131 57.4547C119.378 58.36 122.756 59.064 124.752 59.4663Z" fill="white"/>
<path d="M123.933 63.4893C124.189 63.5396 124.445 63.6905 124.65 63.7408C124.905 63.7911 125.161 63.9419 125.366 63.9922C125.622 64.0425 125.878 64.1934 126.031 64.2437C126.543 64.3946 126.799 64.4951 126.799 64.4951C126.799 64.4951 106.073 59.0638 85.3468 53.5822C64.6207 48.1508 43.8947 42.6692 43.8947 42.6692C43.8947 42.6692 49.0634 44.0271 56.842 46.0387C60.7314 47.0445 65.286 48.2514 70.1477 49.5087C75.0093 50.7659 80.178 52.1238 85.3979 53.4816C95.9913 56.2476 106.533 58.9632 114.363 61.0251C118.662 62.1315 122.04 62.9864 123.933 63.4893Z" fill="white"/>
<path d="M122.858 67.4623C123.114 67.5629 123.319 67.6635 123.575 67.764C123.831 67.8646 124.035 67.9652 124.24 68.0658C124.496 68.1664 124.701 68.2669 124.905 68.3172C125.366 68.4681 125.622 68.619 125.622 68.619C125.622 68.619 105.203 62.1315 84.7839 55.6441C64.3649 49.1567 43.9459 42.6693 43.9459 42.6693C43.9459 42.6693 49.0635 44.2786 56.7398 46.6925C60.5779 47.8994 65.0302 49.3076 69.8407 50.8163C74.6512 52.325 79.7687 53.9343 84.8863 55.5435C95.3261 58.8124 105.817 62.1315 113.493 64.5455C117.741 65.853 121.067 66.9091 122.858 67.4623Z" fill="white"/>
<path d="M121.579 71.3852C121.835 71.4858 122.04 71.6367 122.244 71.687C122.5 71.7876 122.705 71.9384 122.91 71.9887C123.166 72.0893 123.319 72.2402 123.524 72.2905C123.984 72.4413 124.189 72.6425 124.189 72.6425C124.189 72.6425 104.128 65.1493 84.0675 57.6058C64.0067 50.1125 43.9459 42.569 43.9459 42.569C43.9459 42.569 48.9611 44.4297 56.4839 47.1957C60.2709 48.6038 64.6208 50.2131 69.3289 51.9733C74.0371 53.7334 79.0523 55.5941 84.0675 57.4549C94.4049 61.2769 104.691 65.099 112.265 67.9152C116.615 69.5245 119.89 70.7315 121.579 71.3852Z" fill="white"/>
<path d="M120.146 75.207C120.351 75.3076 120.556 75.4584 120.76 75.559C120.965 75.6596 121.17 75.8105 121.374 75.911C121.579 76.0116 121.784 76.1625 121.937 76.2631C122.347 76.4642 122.551 76.6151 122.551 76.6151C122.551 76.6151 102.9 68.1161 83.2998 59.617C63.6484 51.118 44.0482 42.619 44.0482 42.619C44.0482 42.619 48.9611 44.7311 56.3303 47.8994C60.015 49.4584 64.3137 51.3192 68.9195 53.2805C73.5253 55.2418 78.4381 57.354 83.4021 59.4662C93.5349 63.7911 103.719 68.1664 111.139 71.3346C115.284 73.1451 118.56 74.5532 120.146 75.207Z" fill="white"/>
<path d="M118.508 78.9791C118.713 79.0797 118.867 79.2808 119.071 79.3814C119.276 79.482 119.43 79.6832 119.634 79.7837C119.839 79.8843 119.993 80.0352 120.146 80.1358C120.556 80.3369 120.709 80.5381 120.709 80.5381C120.709 80.5381 101.518 71.0836 82.3786 61.629C63.1878 52.1745 44.0482 42.7199 44.0482 42.7199C44.0482 42.7199 48.8587 45.0835 56.0744 48.6039C59.6567 50.364 63.8531 52.4259 68.3566 54.5884C72.86 56.8012 77.6705 59.1145 82.481 61.4781C92.409 66.306 102.388 71.1841 109.655 74.7044C113.8 76.6658 117.024 78.2248 118.508 78.9791Z" fill="white"/>
<path d="M116.717 82.5998C116.922 82.7004 117.024 82.9016 117.229 83.0022C117.434 83.1027 117.536 83.3039 117.741 83.4045C117.946 83.5051 118.048 83.7062 118.202 83.7565C118.56 83.9577 118.713 84.1588 118.713 84.1588C118.713 84.1588 100.034 73.7488 81.4064 63.3387C62.7785 52.9287 44.0995 42.5186 44.0995 42.5186C44.0995 42.5186 48.7565 45.0834 55.8187 48.9557C59.3498 50.8668 63.4438 53.1298 67.7937 55.5438C72.1948 57.9577 76.8518 60.5225 81.5599 63.1376C91.2832 68.4683 101.007 73.8494 108.12 77.7217C112.163 80.1356 115.336 81.8455 116.717 82.5998Z" fill="white"/>
<path d="M114.722 86.1705C114.926 86.2711 115.029 86.4722 115.182 86.5728C115.387 86.6734 115.489 86.8745 115.643 86.9751C115.847 87.0757 115.899 87.2769 116.052 87.3774C116.41 87.5786 116.513 87.83 116.513 87.83C116.513 87.83 98.3965 76.5148 80.2804 65.1995C62.1643 53.8842 44.0482 42.5689 44.0482 42.5689C44.0482 42.5689 48.6028 45.3852 55.4092 49.5593C58.8379 51.6715 62.7784 54.0854 67.026 56.7508C71.2736 59.3658 75.8282 62.1821 80.3828 64.9983C89.8502 70.832 99.3689 76.6656 106.226 80.9403C110.372 83.4548 113.442 85.3658 114.722 86.1705Z" fill="white"/>
<path d="M112.521 89.5903C112.675 89.6909 112.777 89.9424 112.93 90.0429C113.084 90.1435 113.186 90.395 113.34 90.4955C113.493 90.5961 113.596 90.7973 113.698 90.8979C114.005 91.099 114.107 91.3505 114.107 91.3505C114.107 91.3505 96.6055 79.1803 79.1035 66.9598C61.6015 54.7895 44.0995 42.6193 44.0995 42.569C44.0995 42.569 48.5006 45.5864 55.1022 50.1126C58.3774 52.3756 62.2668 54.9907 66.3608 57.8573C70.506 60.6735 74.9071 63.6909 79.3082 66.7083C88.5198 73.0449 97.7313 79.3311 104.384 83.9075C108.376 86.7238 111.344 88.7857 112.521 89.5903Z" fill="white"/>
<path d="M110.218 92.9097C110.372 93.0102 110.423 93.2617 110.576 93.3623C110.73 93.4628 110.781 93.7143 110.935 93.8149C111.088 93.9155 111.139 94.1166 111.242 94.2172C111.549 94.4184 111.6 94.6698 111.6 94.6698C111.6 94.6698 94.7119 81.6447 77.824 68.6195C60.9361 55.5944 44.0482 42.5692 44.0482 42.5692C44.0482 42.5692 48.2958 45.7878 54.6415 50.6157C57.8144 53.0296 61.5502 55.8458 65.4907 58.8633C69.4824 61.8807 73.73 65.0992 77.9775 68.3681C86.8821 75.1572 95.8378 81.9464 102.235 86.8246C106.226 89.8923 109.143 92.105 110.218 92.9097Z" fill="white"/>
<path d="M107.71 96.1278C107.864 96.2284 107.864 96.4799 108.018 96.5805C108.171 96.681 108.171 96.9325 108.273 97.0331C108.427 97.1336 108.427 97.3348 108.529 97.4354C108.785 97.6365 108.836 97.888 108.836 97.888C108.836 97.888 92.6137 84.0582 76.4423 70.2284C60.2708 56.3986 44.0482 42.5688 44.0482 42.5688C44.0482 42.5688 48.1423 45.9886 54.2321 51.1182C57.3027 53.683 60.8338 56.7004 64.6719 59.8687C68.5101 63.0872 72.6041 66.507 76.647 69.9267C85.2445 77.1685 93.8419 84.4102 100.034 89.5901C103.923 92.9596 106.738 95.3232 107.71 96.1278Z" fill="white"/>
<path d="M105.049 99.2461C105.152 99.3467 105.152 99.5981 105.305 99.6987C105.408 99.7993 105.408 100.051 105.51 100.151C105.612 100.252 105.612 100.503 105.715 100.554C105.97 100.755 105.97 101.006 105.919 101.006C105.919 101.006 90.4131 86.4221 74.9581 71.7877C59.4519 57.2036 43.9969 42.5691 43.9969 42.5691C43.9969 42.5691 47.8863 46.19 53.7203 51.6214C56.6373 54.337 60.066 57.5053 63.6995 60.8748C67.3841 64.2945 71.2735 67.9154 75.1628 71.5363C83.4021 79.1804 91.6925 86.8747 97.6288 92.3564C101.467 95.8767 104.179 98.3912 105.049 99.2461Z" fill="white"/>
<path d="M102.235 102.163C102.337 102.263 102.337 102.515 102.388 102.615C102.491 102.716 102.491 102.967 102.542 103.068C102.644 103.168 102.644 103.37 102.695 103.47C102.9 103.671 102.849 103.923 102.849 103.923C102.849 103.923 88.1102 88.5843 73.3717 73.2459C58.6332 57.9074 43.8947 42.5689 43.8947 42.5689C43.8947 42.5689 47.6305 46.3909 53.1574 52.0737C55.9209 54.9403 59.1961 58.2594 62.676 61.7797C66.156 65.3503 69.8918 69.1724 73.6276 72.9441C81.5086 81.0408 89.4408 89.0872 95.0701 94.8706C98.8571 98.6927 101.467 101.358 102.235 102.163Z" fill="white"/>
<path d="M99.2666 105.029C99.3689 105.13 99.3178 105.381 99.4201 105.482C99.5225 105.583 99.4713 105.834 99.5224 105.935C99.6248 106.035 99.5736 106.236 99.6248 106.337C99.8295 106.538 99.7271 106.79 99.7271 106.79C99.7271 106.79 85.8074 90.747 71.8365 74.7045C57.8656 58.6619 43.9459 42.6194 43.9459 42.6194C43.9459 42.6194 47.477 46.5923 52.7481 52.5768C55.4092 55.5439 58.4797 59.0139 61.755 62.7354C65.0814 66.4569 68.6125 70.4298 72.1436 74.453C79.6664 82.9521 87.1892 91.4008 92.5114 97.4859C96.0937 101.409 98.6013 104.225 99.2666 105.029Z" fill="white"/>
<path d="M96.1961 107.695C96.2984 107.795 96.1961 108.047 96.2984 108.147C96.4008 108.248 96.2984 108.499 96.4008 108.55C96.5031 108.65 96.4008 108.851 96.452 108.952C96.6055 109.153 96.5031 109.405 96.5031 109.405C96.5031 109.405 83.4022 92.7082 70.3013 76.0119C57.2004 59.3155 44.0995 42.6192 44.0995 42.6192C44.0995 42.6192 47.4259 46.743 52.3899 52.979C54.8975 56.097 57.7633 59.7179 60.885 63.5902C64.0067 67.4626 67.3331 71.6366 70.6595 75.7604C77.7729 84.6115 84.8863 93.5128 89.9527 99.7991C93.2279 103.973 95.582 106.94 96.1961 107.695Z" fill="white"/>
<path d="M92.9208 110.259C92.9719 110.36 92.8696 110.561 92.9719 110.661C93.0231 110.762 92.9208 110.963 93.0231 111.064C93.0743 111.164 93.0231 111.366 93.0743 111.466C93.2278 111.667 93.0743 111.919 93.0743 111.919C93.0743 111.919 80.8434 94.6189 68.5613 77.3191C56.2791 60.0193 44.0482 42.7195 44.0482 42.7195C44.0482 42.7195 47.1699 46.9942 51.8269 53.4816C54.1298 56.7002 56.8933 60.4719 59.7591 64.4951C62.6761 68.5184 65.7978 72.8433 68.9195 77.1683C75.6235 86.4216 82.2763 95.6247 87.0356 102.162C90.2085 106.437 92.409 109.505 92.9208 110.259Z" fill="white"/>
<path d="M89.5432 112.624C89.5944 112.724 89.492 112.925 89.5432 113.026C89.5944 113.126 89.492 113.328 89.5432 113.428C89.5944 113.529 89.492 113.73 89.5432 113.78C89.6455 113.981 89.492 114.182 89.492 114.182C89.492 114.182 78.1311 96.2792 66.7701 78.3759C55.4092 60.4726 44.0482 42.5694 44.0482 42.5694C44.0482 42.5694 46.914 46.9949 51.264 53.6835C53.4133 57.0026 55.9721 60.875 58.6332 65.049C61.3455 69.2231 64.2625 73.6989 67.1283 78.1245C73.3718 87.7299 79.6152 97.285 84.0162 104.074C86.9844 108.751 89.0826 111.919 89.5432 112.624Z" fill="white"/>
<path d="M85.9098 114.886C85.961 114.987 85.8074 115.188 85.8586 115.238C85.9098 115.339 85.7563 115.54 85.8074 115.59C85.8586 115.691 85.7051 115.842 85.7563 115.942C85.8586 116.093 85.7051 116.345 85.7051 116.345C85.7051 116.345 75.2653 97.9384 64.8255 79.482C54.3857 61.0255 43.9459 42.6193 43.9459 42.6193C43.9459 42.6193 46.607 47.1957 50.5987 54.0351C52.5946 57.4549 54.8975 61.4781 57.4051 65.7527C59.9127 70.0777 62.5738 74.6541 65.2349 79.2305C71.0177 89.1377 76.7494 99.0448 80.7923 106.035C83.6581 110.913 85.5516 114.232 85.9098 114.886Z" fill="white"/>
<path d="M82.2252 116.948C82.2763 117.049 82.0716 117.2 82.1228 117.3C82.174 117.401 81.9693 117.552 82.0205 117.652C82.0716 117.753 81.9181 117.904 81.9181 117.954C82.0205 118.105 81.8158 118.306 81.8158 118.306C81.8158 118.306 72.3483 99.3968 62.8808 80.4877C53.4134 61.5786 43.9459 42.6695 43.9459 42.6695C43.9459 42.6695 46.3512 47.3465 49.9846 54.4374C51.7758 57.9577 53.9251 62.0815 56.1769 66.4568C58.4797 70.8823 60.885 75.6096 63.3414 80.2866C68.6125 90.4955 73.8836 100.704 77.5682 107.896C80.127 112.925 81.9181 116.345 82.2252 116.948Z" fill="white"/>
<path d="M78.3868 118.859C78.438 118.96 78.2333 119.111 78.2333 119.161C78.2845 119.261 78.0798 119.412 78.0798 119.463C78.131 119.563 77.9263 119.714 77.9263 119.764C77.9774 119.915 77.7727 120.116 77.7727 120.116C77.7727 120.116 69.2776 100.755 60.7825 81.393C52.2874 62.0313 43.7922 42.6696 43.7922 42.6696C43.7922 42.6696 45.9928 47.4974 49.268 54.6889C50.9056 58.3098 52.7991 62.4839 54.8461 67.01C56.8932 71.5361 59.0937 76.364 61.2942 81.1918C66.0536 91.7024 70.8129 102.213 74.1393 109.555C76.5445 114.786 78.131 118.306 78.3868 118.859Z" fill="white"/>
<path d="M74.3953 120.569C74.4465 120.619 74.1906 120.82 74.1906 120.871C74.2418 120.921 73.9859 121.122 73.9859 121.172C74.0371 121.223 73.7812 121.374 73.8324 121.424C73.8836 121.575 73.6277 121.726 73.6277 121.726C73.6277 121.726 66.1561 101.962 58.6844 82.1975C51.2128 62.4335 43.7412 42.6695 43.7412 42.6695C43.7412 42.6695 45.6859 47.5979 48.5517 54.9403C49.9846 58.6114 51.6734 62.9364 53.5157 67.5128C55.3069 72.1395 57.2515 77.0679 59.1962 81.9964C63.4438 92.7585 67.6401 103.521 70.6083 111.064C72.8089 116.445 74.2418 120.066 74.3953 120.569Z" fill="white"/>
<path d="M70.3523 122.128C70.3523 122.178 70.0964 122.329 70.1476 122.38C70.1476 122.43 69.8917 122.581 69.9429 122.631C69.9429 122.681 69.7382 122.832 69.7382 122.882C69.7894 122.983 69.4823 123.134 69.4823 123.134C69.4823 123.134 63.0342 103.018 56.6373 82.9018C50.1892 62.7857 43.7922 42.6697 43.7922 42.6697C43.7922 42.6697 45.481 47.6987 47.9886 55.1919C49.268 58.9637 50.7009 63.2886 52.2874 68.0159C53.8738 72.7432 55.5626 77.7219 57.2002 82.7509C60.8848 93.7645 64.5695 104.728 67.1282 112.422C68.9706 117.954 70.1988 121.675 70.3523 122.128Z" fill="white"/>
<path d="M66.2072 123.435C66.2072 123.486 65.9514 123.586 65.9514 123.636C65.9514 123.687 65.6955 123.787 65.6955 123.838C65.6955 123.888 65.4396 123.989 65.4908 124.039C65.542 124.139 65.2349 124.29 65.2349 124.29C65.2349 124.29 59.8615 103.872 54.4881 83.4547C49.1146 63.0369 43.7412 42.6191 43.7412 42.6191C43.7412 42.6191 45.1741 47.6984 47.2723 55.3425C48.347 59.1645 49.5752 63.5901 50.9058 68.3173C52.2363 73.0949 53.6693 78.1742 55.051 83.3038C58.1727 94.5185 61.2944 105.733 63.4438 113.528C65.0302 119.312 66.1049 123.083 66.2072 123.435Z" fill="white"/>
<path d="M61.9593 124.592C61.9593 124.642 61.6523 124.743 61.7035 124.793C61.7035 124.844 61.3964 124.944 61.4476 124.994C61.4476 125.045 61.1917 125.145 61.1917 125.145C61.1917 125.246 60.8846 125.347 60.8846 125.347C60.8846 125.347 56.5859 104.677 52.2872 84.008C47.9884 63.3388 43.6897 42.6696 43.6897 42.6696C43.6897 42.6696 44.8156 47.7992 46.5555 55.5438C47.4255 59.4162 48.3978 63.892 49.4725 68.7198C50.5472 73.5477 51.7242 78.7276 52.8501 83.9075C55.4089 95.273 57.9165 106.689 59.7076 114.584C61.0382 120.418 61.9082 124.29 61.9593 124.592Z" fill="white"/>
<path d="M57.6097 125.548C57.6097 125.598 57.3026 125.648 57.3026 125.699C57.3026 125.749 56.9956 125.799 56.9956 125.849C56.9956 125.9 56.7397 125.95 56.7397 126C56.7397 126.051 56.4327 126.151 56.4327 126.151C56.4327 126.151 53.2598 105.281 50.0357 84.4607C46.8628 63.5903 43.6388 42.7702 43.6388 42.7702C43.6388 42.7702 44.5088 47.9501 45.8393 55.745C46.5046 59.6174 47.2723 64.1938 48.0911 69.0216C48.9099 73.8998 49.7798 79.1299 50.6498 84.3601C52.5945 95.9268 54.5392 107.443 55.8697 115.439C56.9444 121.374 57.6097 125.347 57.6097 125.548Z" fill="white"/>
<path d="M53.2086 126.302C53.2086 126.302 52.9016 126.352 52.9016 126.402C52.9016 126.402 52.5945 126.453 52.5945 126.503C52.5945 126.503 52.2874 126.553 52.2874 126.604C52.2874 126.654 51.9292 126.704 51.9292 126.704C51.9292 126.704 49.831 105.733 47.784 84.7119C45.737 63.6906 43.6388 42.7196 43.6388 42.7196C43.6388 42.7196 44.2529 47.9498 45.1229 55.7951C45.5835 59.7177 46.0952 64.2941 46.6582 69.1722C47.2211 74.1007 47.8352 79.3308 48.4493 84.6113C49.7799 96.2786 51.1104 107.946 52.0316 115.992C52.748 122.128 53.2086 126.151 53.2086 126.302Z" fill="white"/>
<path d="M48.7562 126.805L48.398 126.855L48.0398 126.905L47.7327 126.956L47.3745 127.006C47.3745 127.006 46.4022 105.934 45.481 84.8628C44.5087 63.7913 43.5875 42.7197 43.5875 42.7197C43.5875 42.7197 43.8946 48.0002 44.4063 55.8454C44.6622 59.7681 44.9181 64.3948 45.2251 69.2729C45.5322 74.2013 45.8392 79.4818 46.1975 84.7623C46.9139 96.5302 47.6304 108.298 48.1421 116.395C48.5004 122.681 48.7562 126.704 48.7562 126.805Z" fill="white"/>
<path d="M43.1782 127.056C43.1782 127.056 43.3317 105.984 43.5364 84.8624C43.7412 63.7405 43.8947 42.669 43.8947 42.669C43.8947 42.669 44.0482 63.7405 44.2529 84.8624C44.4576 105.984 44.6111 127.056 44.6111 127.056L44.2529 127.056L43.8947 127.056L43.1782 127.056Z" fill="white"/>
<path d="M-38.2419 46.9941C-38.549 46.9941 -38.856 46.9941 -39.1631 47.0444C-39.4701 47.0444 -39.7772 47.0444 -40.0843 47.0947C-40.3913 47.0947 -40.6984 47.0947 -40.9031 47.145C-41.5172 47.1953 -41.8242 47.1953 -41.8242 47.1953C-41.8242 47.1953 -20.3817 46.0889 1.00964 44.9825C22.4521 43.8762 43.8435 42.7698 43.8435 42.7698C43.8435 42.7698 38.2142 43.0715 30.4355 43.4738C26.5462 43.675 21.5822 43.9264 16.7205 44.1779C11.8588 44.4293 6.17836 44.7311 0.958462 44.9825C-9.43015 45.5357 -20.8423 46.0889 -28.621 46.4912C-32.4079 46.6924 -35.9902 46.8936 -38.2419 46.9941Z" fill="white"/>
<path d="M-38.0373 51.2688C-38.3444 51.3191 -38.6514 51.3191 -38.9073 51.3191C-39.2144 51.3694 -39.5214 51.3693 -39.7773 51.3693C-40.0844 51.4196 -40.3402 51.4196 -40.5961 51.4196C-41.159 51.4699 -41.5173 51.4699 -41.5173 51.4699C-41.5173 51.4699 -20.1771 49.3074 1.16305 47.0947C22.5032 44.8819 43.8434 42.7194 43.8434 42.7194C43.8434 42.7194 38.0094 43.3229 30.4866 44.0773C26.7508 44.4796 21.4797 45.0328 16.8227 45.4854C12.1658 45.938 6.12707 46.5918 1.16305 47.0947C-8.81616 48.1005 -20.8936 49.408 -28.3652 50.1624C-32.0498 50.6653 -35.8368 51.0676 -38.0373 51.2688Z" fill="white"/>
<path d="M-37.5768 55.4935C-37.8838 55.5438 -38.1397 55.5438 -38.3956 55.5941C-38.7026 55.6444 -38.9585 55.6444 -39.2144 55.6947C-39.5214 55.7449 -39.7773 55.745 -39.982 55.7952C-40.5449 55.8958 -40.852 55.8958 -40.852 55.8958C-40.852 55.8958 -19.6654 52.627 1.52128 49.3581C22.7079 46.0892 43.8945 42.8204 43.8945 42.8204C43.8945 42.8204 37.8047 43.7759 30.6401 44.8823C27.0578 45.4355 21.5309 46.2904 17.0786 46.9945C12.6264 47.6985 6.2806 48.7043 1.52128 49.4084C-8.04853 50.9171 -20.6889 52.8784 -27.9046 53.9848C-31.4869 54.538 -35.4786 55.1415 -37.5768 55.4935Z" fill="white"/>
<path d="M-36.9114 59.6676C-37.2184 59.7179 -37.4743 59.7179 -37.7302 59.7682C-38.0372 59.8185 -38.2931 59.8185 -38.549 59.8688C-38.8049 59.919 -39.0608 59.919 -39.3166 59.9693C-39.8284 60.0699 -40.1354 60.0699 -40.1354 60.0699C-40.1354 60.0699 -19.1535 55.745 1.8796 51.3697C22.8615 47.0448 43.8946 42.6695 43.8946 42.6695C43.8946 42.6695 37.6512 43.9771 30.7937 45.3852C27.365 46.0893 21.6333 47.2962 17.3346 48.2014C13.0358 49.1067 6.48539 50.4645 1.93077 51.42C-7.22963 53.331 -20.4329 56.097 -27.2904 57.5051C-30.7192 58.36 -34.9155 59.215 -36.9114 59.6676Z" fill="white"/>
<path d="M-36.0414 63.7913C-36.2973 63.8416 -36.5532 63.8919 -36.809 63.9422C-37.0649 64.0428 -37.3208 64.0428 -37.5767 64.0931C-37.8326 64.1434 -38.0884 64.1937 -38.2931 64.2439C-38.8049 64.3948 -39.1119 64.3948 -39.1119 64.3948C-39.1119 64.3948 -18.3859 59.0138 2.39135 53.6327C23.1174 48.2517 43.8946 42.8706 43.8946 42.8706C43.8946 42.8706 37.4465 44.5805 30.9473 46.2904C27.672 47.1453 21.7357 48.7043 17.6416 49.7604C13.5476 50.8165 6.79244 52.6269 2.44253 53.7836C-6.2573 56.0467 -19.9723 59.6675 -26.5228 61.3774C-29.7468 62.1821 -34.0967 63.3387 -36.0414 63.7913Z" fill="white"/>
<path d="M-34.9156 67.8649C-35.1715 67.9655 -35.4274 67.9655 -35.6321 68.0158C-35.8879 68.1164 -36.1438 68.1164 -36.3485 68.1667C-36.6044 68.2673 -36.8603 68.2672 -37.0138 68.3175C-37.4744 68.4684 -37.7814 68.4684 -37.7814 68.4684C-37.7814 68.4684 -17.3624 62.0313 3.10775 55.6444C23.5268 49.2073 43.9969 42.8204 43.9969 42.8204C43.9969 42.8204 37.3953 44.9326 31.2542 46.8939C28.1837 47.8494 22.0427 49.8108 18.1533 51.068C14.264 52.3253 7.20179 54.4878 3.05657 55.7953C-5.18267 58.4104 -19.3583 62.9365 -25.5505 64.8978C-28.621 65.8533 -33.1245 67.3117 -34.9156 67.8649Z" fill="white"/>
<path d="M-33.6363 71.8379C-33.8922 71.9385 -34.148 71.9385 -34.3527 72.0391C-34.6086 72.1396 -34.8645 72.1396 -35.0692 72.1899C-35.3251 72.2905 -35.5298 72.2905 -35.7345 72.3408C-36.1951 72.4917 -36.4509 72.542 -36.4509 72.542C-36.4509 72.542 -16.3902 65.099 3.72179 57.6561C23.8337 50.2131 43.8945 42.7702 43.8945 42.7702C43.8945 42.7702 37.1905 45.2847 31.3565 47.4472C28.4395 48.5536 22.145 50.9172 18.5115 52.275C14.878 53.6329 7.6623 56.3485 3.77297 57.807C-4.0057 60.7238 -18.5395 66.2054 -24.3735 68.3679C-27.2393 69.4743 -31.9475 71.1841 -33.6363 71.8379Z" fill="white"/>
<path d="M-32.1009 75.7099C-32.3056 75.8105 -32.5615 75.8105 -32.7662 75.9111C-32.9709 76.0117 -33.2268 76.0117 -33.4315 76.1123C-33.6362 76.2128 -33.892 76.2128 -34.0456 76.2631C-34.455 76.4643 -34.762 76.4643 -34.762 76.4643C-34.762 76.4643 -15.1107 68.0658 4.5919 59.6171C24.2433 51.2187 43.9458 42.7699 43.9458 42.7699C43.9458 42.7699 37.1395 45.737 31.6637 48.1007C28.9514 49.2573 22.5033 52.0736 19.0745 53.532C15.6458 54.9904 8.3277 58.209 4.64307 59.768C-2.62384 62.886 -17.5671 69.3734 -23.0428 71.737C-25.7551 72.944 -30.5145 75.0562 -32.1009 75.7099Z" fill="white"/>
<path d="M-30.4121 79.5319C-30.6168 79.6325 -30.8727 79.6325 -31.0262 79.7331C-31.2309 79.8337 -31.4868 79.8337 -31.6404 79.9343C-31.8451 80.0348 -32.0498 80.0348 -32.2545 80.1354C-32.6639 80.3366 -32.9197 80.3366 -32.9197 80.3366C-32.9197 80.3366 -13.6778 70.9826 5.51302 61.5784C24.755 52.2244 43.9458 42.8201 43.9458 42.8201C43.9458 42.8201 37.0883 46.2399 31.9707 48.7544C29.412 50.0116 22.8615 53.2805 19.6886 54.8395C16.5157 56.3985 9.04413 60.12 5.61538 61.7795C-1.19096 65.149 -16.3901 72.6422 -21.4564 75.1567C-24.0664 76.3637 -28.9281 78.7776 -30.4121 79.5319Z" fill="white"/>
<path d="M-28.5697 83.2032C-28.7744 83.3037 -29.0303 83.3037 -29.1838 83.4043C-29.3885 83.5049 -29.6444 83.5049 -29.7979 83.6055C-30.0026 83.706 -30.2073 83.706 -30.3609 83.8066C-30.7191 84.0078 -30.975 84.0078 -30.975 84.0078C-30.975 84.0078 -12.2448 73.6983 6.48545 63.3888C25.2157 53.0794 43.9459 42.7699 43.9459 42.7699C43.9459 42.7699 37.0372 46.6422 32.2779 49.2573C29.9238 50.5649 23.271 54.2863 20.3028 55.9459C17.3346 57.6055 9.76068 61.8298 6.5878 63.59C0.242047 67.1103 -15.1106 75.7099 -19.8699 78.325C-22.224 79.6828 -27.188 82.4488 -28.5697 83.2032Z" fill="white"/>
<path d="M-26.4717 86.7739C-26.6764 86.8744 -26.8811 86.8744 -27.0346 86.975C-27.2393 87.0756 -27.444 87.0756 -27.5975 87.1762C-27.8022 87.2768 -28.0069 87.2768 -28.1093 87.3773C-28.4675 87.5785 -28.7234 87.5785 -28.7234 87.5785C-28.7234 87.5785 -10.5561 76.3638 7.61118 65.1491C25.7785 53.9344 43.9457 42.7197 43.9457 42.7197C43.9457 42.7197 37.0371 47.0447 32.636 49.7603C30.4354 51.1182 23.7826 55.2922 21.0191 57.0021C18.2557 58.712 10.6305 63.4895 7.71353 65.3C1.87953 68.9209 -13.6266 78.6771 -18.0277 81.3928C-20.2283 82.8512 -25.1923 86.0195 -26.4717 86.7739Z" fill="white"/>
<path d="M-24.271 90.2438C-24.4245 90.3444 -24.6804 90.3444 -24.8339 90.4449C-24.9874 90.5455 -25.2433 90.5455 -25.3968 90.6461C-25.5503 90.7467 -25.755 90.7467 -25.9086 90.8473C-26.2156 91.0484 -26.4715 91.0484 -26.4715 91.0484C-26.4715 91.0484 -8.86715 78.9788 8.73721 66.9092C26.3416 54.8395 43.9459 42.7699 43.9459 42.7699C43.9459 42.7699 37.0372 47.5977 32.9944 50.3637C30.9985 51.7718 24.2945 56.4488 21.7358 58.1587C19.2282 59.9188 11.5519 65.2496 8.89074 67.1103C3.51732 70.8318 -12.04 81.6945 -16.0829 84.4604C-18.0787 85.9188 -23.0939 89.4391 -24.271 90.2438Z" fill="white"/>
<path d="M-21.8658 93.6136C-22.0194 93.7142 -22.2752 93.7142 -22.3776 93.8148C-22.5311 93.9154 -22.787 93.9154 -22.8893 94.016C-23.0429 94.1165 -23.2476 94.1165 -23.3499 94.2171C-23.657 94.4183 -23.9128 94.4183 -23.9128 94.4183C-23.9128 94.4183 -6.92259 81.4937 10.0165 68.6194C26.9556 55.7452 43.9458 42.8206 43.9458 42.8206C43.9458 42.8206 37.0883 48.1514 33.4037 50.9676C31.5613 52.3757 24.8574 57.5556 22.5545 59.3158C20.2516 61.0759 12.6264 67.0102 10.17 68.8709C5.25717 72.6427 -10.249 84.662 -13.9336 87.4782C-15.7248 88.8864 -20.7911 92.809 -21.8658 93.6136Z" fill="white"/>
<path d="M-19.2558 96.8322C-19.4093 96.9328 -19.614 96.9328 -19.7676 97.0334C-19.9211 97.134 -20.1258 97.134 -20.2793 97.2346C-20.4328 97.3351 -20.6375 97.3351 -20.7399 97.4357C-20.9958 97.6369 -21.2516 97.6369 -21.2516 97.6369C-21.2516 97.6369 -4.92668 83.9077 11.3471 70.2288C27.6721 56.4995 43.9459 42.8206 43.9459 42.8206C43.9459 42.8206 37.1907 48.604 33.8131 51.4705C32.1243 52.8787 25.5227 58.5615 23.4245 60.3719C21.3263 62.1823 13.7524 68.6195 11.5518 70.5305C7.09955 74.3023 -8.35544 87.5286 -11.6818 90.3448C-13.3195 91.7529 -18.2835 96.0276 -19.2558 96.8322Z" fill="white"/>
<path d="M-16.5437 99.9503C-16.646 100.051 -16.9019 100.051 -17.0042 100.151C-17.1066 100.252 -17.3625 100.252 -17.4648 100.353C-17.5672 100.453 -17.8231 100.453 -17.8742 100.554C-18.1301 100.755 -18.386 100.755 -18.386 100.755C-18.386 100.755 -2.77747 86.2714 12.831 71.7878C28.4396 57.3043 44.0481 42.8207 44.0481 42.8207C44.0481 42.8207 37.3953 49.107 34.3759 51.9232C32.8918 53.3313 26.3414 59.517 24.4479 61.2772C22.5544 63.0373 15.0828 70.1282 13.0869 71.989C9.09523 75.7607 -6.15505 90.194 -9.17441 93.0103C-10.7097 94.4687 -15.6737 99.1457 -16.5437 99.9503Z" fill="white"/>
<path d="M-13.6266 102.917C-13.7289 103.018 -13.9848 103.018 -14.0872 103.118C-14.1895 103.219 -14.4454 103.219 -14.5477 103.319C-14.6501 103.42 -14.8548 103.42 -14.9571 103.521C-15.1618 103.722 -15.4177 103.722 -15.4177 103.722C-15.4177 103.722 -0.576841 88.5342 14.3152 73.2962C29.2073 58.0583 44.0482 42.8707 44.0482 42.8707C44.0482 42.8707 37.5489 49.6599 34.8366 52.4258C33.506 53.834 27.0579 60.5226 25.3691 62.2827C23.6803 63.9926 16.3622 71.687 14.5711 73.5477C10.9888 77.2189 -4.0056 92.9094 -6.66672 95.6754C-7.99728 97.0332 -12.859 102.112 -13.6266 102.917Z" fill="white"/>
<path d="M-10.6074 105.733C-10.7098 105.834 -10.9656 105.834 -11.0168 105.934C-11.1192 106.035 -11.375 106.035 -11.4262 106.135C-11.5286 106.236 -11.7333 106.236 -11.8356 106.286C-12.0403 106.488 -12.2962 106.488 -12.2962 106.488C-12.2962 106.488 1.77704 90.5958 15.8503 74.6539C29.9235 58.7119 43.9968 42.8202 43.9968 42.8202C43.9968 42.8202 37.651 50.1123 35.297 52.828C34.1199 54.1858 27.8253 61.4276 26.3413 63.1374C24.8572 64.8473 17.6926 73.0949 16.1062 74.9053C12.9333 78.5262 -1.70289 95.4237 -4.05696 98.0891C-5.18282 99.4972 -9.89096 104.979 -10.6074 105.733Z" fill="white"/>
<path d="M-7.43425 108.449C-7.5366 108.549 -7.74131 108.549 -7.84366 108.65C-7.94601 108.75 -8.15071 108.75 -8.25306 108.851C-8.35541 108.952 -8.56011 108.952 -8.61129 109.002C-8.76482 109.203 -9.02069 109.203 -9.02069 109.203C-9.02069 109.203 4.23375 92.6576 17.5394 76.0618C30.845 59.4661 44.0994 42.9206 44.0994 42.9206C44.0994 42.9206 38.0095 50.7156 35.9114 53.3307C34.8878 54.6382 28.798 62.4332 27.4674 64.0425C26.1368 65.6518 19.2282 74.5531 17.8464 76.3133C15.0829 79.7833 0.907343 97.938 -1.19085 100.553C-2.21436 101.81 -6.82015 107.694 -7.43425 108.449Z" fill="white"/>
<path d="M-4.05669 110.963C-4.10787 111.064 -4.36374 111.064 -4.46609 111.114C-4.51727 111.215 -4.77314 111.215 -4.8755 111.265C-4.92667 111.366 -5.18255 111.366 -5.23373 111.416C-5.38725 111.617 -5.64313 111.567 -5.64313 111.567C-5.64313 111.567 6.7925 94.3676 19.2281 77.1684C31.6638 59.9692 44.0994 42.7699 44.0994 42.7699C44.0994 42.7699 38.2654 51.0678 36.4743 53.5823C35.5531 54.8396 29.7191 63.1374 28.5932 64.6964C27.4674 66.2554 20.8146 75.71 19.5864 77.4198C17.1811 80.739 3.56845 100.101 1.77731 102.615C0.907329 103.923 -3.54494 110.259 -4.05669 110.963Z" fill="white"/>
<path d="M-0.627854 113.327C-0.679029 113.428 -0.934905 113.377 -0.98608 113.478C-1.03726 113.578 -1.29313 113.528 -1.34431 113.629C-1.39548 113.729 -1.65136 113.679 -1.70254 113.78C-1.80489 113.981 -2.11194 113.93 -2.11194 113.93C-2.11194 113.93 9.45371 96.178 20.9682 78.3753C32.4827 60.5726 44.0483 42.8202 44.0483 42.8202C44.0483 42.8202 38.4702 51.621 36.9349 53.9846C36.1673 55.1916 30.5892 63.9923 29.6168 65.501C28.6445 66.9595 22.2988 77.0175 21.2752 78.6268C19.2282 81.7951 6.22966 102.364 4.69439 104.727C4.08029 105.934 -0.167274 112.673 -0.627854 113.327Z" fill="white"/>
<path d="M3.00546 115.54C2.95428 115.64 2.6984 115.59 2.64723 115.691C2.59605 115.791 2.34018 115.741 2.289 115.842C2.23783 115.942 1.98195 115.892 1.98195 115.992C1.8796 116.143 1.62372 116.143 1.62372 116.143C1.62372 116.143 12.2682 97.8377 22.9127 79.5321C33.5572 61.2265 44.2017 42.9209 44.2017 42.9209C44.2017 42.9209 38.9818 52.2246 37.7024 54.4373C37.0883 55.5437 31.8172 64.8977 30.9984 66.2555C30.1796 67.6636 24.1921 78.2749 23.3221 79.7836C21.6333 82.7507 9.35121 104.526 8.07182 106.739C7.35537 107.795 3.36369 114.936 3.00546 115.54Z" fill="white"/>
<path d="M6.74111 117.602C6.68994 117.702 6.43406 117.652 6.38288 117.753C6.33171 117.853 6.07583 117.803 6.02465 117.903C5.97348 118.004 5.7176 117.954 5.7176 118.004C5.61525 118.155 5.35937 118.155 5.35938 118.105C5.35938 118.105 15.0827 99.2961 24.7549 80.4876C34.427 61.6791 44.1504 42.8706 44.1504 42.8706C44.1504 42.8706 39.2887 52.6269 38.214 54.6888C37.7023 55.6946 32.7894 65.5515 32.1241 66.859C31.4589 68.1665 25.8807 79.3812 25.1643 80.7391C23.7825 83.4548 12.3192 106.437 11.2446 108.499C10.784 109.505 7.04816 116.998 6.74111 117.602Z" fill="white"/>
<path d="M10.5795 119.462C10.5283 119.563 10.2724 119.513 10.2213 119.563C10.1701 119.664 9.91421 119.613 9.86303 119.664C9.81186 119.764 9.55598 119.714 9.55598 119.764C9.50481 119.915 9.19775 119.865 9.19775 119.865C9.19775 119.865 17.9488 100.604 26.6486 81.3425C35.3484 62.0814 44.0994 42.8203 44.0994 42.8203C44.0994 42.8203 39.6471 53.0292 38.7772 54.8899C38.3678 55.8454 33.8643 66.1549 33.3014 67.3116C32.7896 68.4682 27.6209 80.2864 27.058 81.4934C25.9321 84.0079 15.39 108.147 14.5712 110.008C14.2641 111.014 10.8354 118.909 10.5795 119.462Z" fill="white"/>
<path d="M14.571 121.121C14.5198 121.172 14.264 121.172 14.264 121.222C14.2128 121.272 13.9569 121.272 13.9569 121.323C13.9057 121.373 13.6499 121.373 13.6499 121.423C13.5987 121.574 13.2916 121.524 13.2916 121.524C13.2916 121.524 21.0191 101.86 28.7466 82.1969C36.4741 62.5334 44.2016 42.87 44.2016 42.87C44.2016 42.87 40.1587 53.5315 39.5446 55.1911C39.2376 56.046 35.1435 66.8584 34.7341 67.9145C34.3247 68.9706 29.6678 81.2917 29.2584 82.398C28.3884 84.6108 18.8697 109.907 18.2556 111.566C17.8462 112.371 14.7757 120.669 14.571 121.121Z" fill="white"/>
<path d="M18.6651 122.63C18.6651 122.681 18.3581 122.681 18.3581 122.731C18.3581 122.781 18.051 122.781 18.051 122.832C18.051 122.882 17.744 122.882 17.744 122.932C17.6928 123.033 17.3857 123.033 17.3857 123.033C17.3857 123.033 24.0897 103.017 30.7937 82.9515C37.4977 62.936 44.2017 42.8702 44.2017 42.8702C44.2017 42.8702 40.6706 53.9844 40.21 55.4428C39.9541 56.1468 36.3718 67.4621 36.0648 68.3673C35.7577 69.2726 31.6637 82.1468 31.3566 83.1023C30.7425 85.0637 22.2986 111.416 21.838 112.874C21.531 113.578 18.7675 122.178 18.6651 122.63Z" fill="white"/>
<path d="M22.8103 123.888C22.8103 123.938 22.5033 123.888 22.5033 123.938C22.5033 123.988 22.1962 123.938 22.1962 123.988C22.1962 124.039 21.8892 124.039 21.8892 124.039C21.838 124.139 21.5309 124.089 21.5309 124.089C21.5309 124.089 27.2114 103.772 32.8407 83.4043C38.5212 63.0871 44.1505 42.7196 44.1505 42.7196C44.1505 42.7196 41.1311 54.236 40.8241 55.443C40.6706 56.0465 37.6 67.8144 37.3953 68.5687C37.1906 69.3231 33.6595 82.7002 33.4548 83.5552C32.9942 85.2147 25.8297 112.623 25.4715 113.88C25.2668 114.584 22.9127 123.536 22.8103 123.888Z" fill="white"/>
<path d="M27.1092 124.994C27.1092 125.045 26.8021 124.994 26.8021 125.045C26.8021 125.095 26.4951 125.045 26.4951 125.095C26.4951 125.145 26.188 125.095 26.188 125.145C26.188 125.246 25.8298 125.196 25.8298 125.196C25.8298 125.196 30.4356 104.577 34.9902 84.0079C39.5448 63.4393 44.1506 42.8203 44.1506 42.8203C44.1506 42.8203 41.6942 54.6888 41.4895 55.6946C41.3871 56.1975 38.8795 68.3677 38.726 68.9712C38.5725 69.5746 35.7066 83.4547 35.6043 84.1085C35.2972 85.416 29.4632 113.88 29.2074 114.886C29.105 115.389 27.1603 124.693 27.1092 124.994Z" fill="white"/>
<path d="M31.4591 125.849C31.4591 125.9 31.152 125.849 31.152 125.9C31.152 125.95 30.845 125.9 30.845 125.95C30.845 126 30.5379 125.95 30.5379 126C30.5379 126.05 30.1797 126.05 30.1797 126.05C30.1797 126.05 33.6596 105.23 37.1907 84.4605C40.6707 63.6404 44.2018 42.8706 44.2018 42.8706C44.2018 42.8706 42.3594 55.1414 42.2059 55.8957C42.1547 56.298 40.2101 68.8203 40.1589 69.3232C40.1077 69.8261 37.9072 84.1085 37.8048 84.6114C37.6513 85.6172 33.1479 114.987 33.0455 115.741C32.9943 115.992 31.5102 125.598 31.4591 125.849Z" fill="white"/>
<path d="M35.9113 126.503L35.5531 126.503L35.1949 126.503L34.8878 126.503C34.8878 126.553 34.5296 126.503 34.5296 126.503C34.5296 126.503 36.9349 105.532 39.3401 84.6114C41.7453 63.6907 44.1506 42.7198 44.1506 42.7198C44.1506 42.7198 42.9224 55.2923 42.8712 55.7952C42.82 56.0466 41.5918 68.9712 41.5406 69.2729C41.4895 69.5747 40.0566 84.3097 40.0054 84.6617C39.9542 85.3155 36.9349 115.59 36.8837 116.093C36.8837 116.395 35.9113 126.352 35.9113 126.503Z" fill="white"/>
<path d="M40.4147 126.905L40.0565 126.905L39.6982 126.905L39.3912 126.905L39.033 126.905C39.033 126.905 40.3123 105.834 41.5917 84.8126C42.8711 63.7913 44.1505 42.7198 44.2017 42.7198C44.2017 42.7198 43.6388 55.5941 43.5876 55.8455C43.5876 55.9964 42.9735 69.2227 42.9735 69.3735C42.9735 69.5244 42.3082 84.6617 42.257 84.8126C42.257 85.1646 40.8241 116.194 40.8241 116.445C40.8753 116.646 40.4147 126.805 40.4147 126.905Z" fill="white"/>
<path d="M43.1782 127.056C43.1782 127.056 43.3317 105.984 43.5364 84.8624C43.69 63.7908 43.8947 42.669 43.8947 42.669L44.2529 84.8624L44.6111 127.056L44.2529 127.056L43.8947 127.056L43.1782 127.056Z" fill="white"/>
</g>
<path d="M43.8945 140.182C57.7631 140.182 69.0217 151.245 69.0217 164.874C69.0217 178.503 57.7631 189.567 43.8945 189.567C30.026 189.567 18.7674 178.503 18.7674 164.874C18.7674 151.245 30.026 140.182 43.8945 140.182ZM43.8945 188.762C57.3025 188.762 68.2029 178.05 68.2029 164.874C68.2029 151.698 57.3025 140.986 43.8945 140.986C30.4866 140.986 19.5862 151.698 19.5862 164.874C19.5862 178.05 30.4866 188.762 43.8945 188.762Z" fill="white"/>
<path d="M43.8944 143.501C55.8695 143.501 65.644 153.107 65.644 164.874C65.644 176.642 55.8695 186.248 43.8944 186.248C31.9193 186.248 22.1448 176.642 22.1448 164.874C22.1448 153.056 31.9193 143.501 43.8944 143.501ZM43.8944 185.544C55.5112 185.544 64.9275 176.24 64.9275 164.874C64.9275 153.509 55.4601 144.205 43.8944 144.205C32.3288 144.205 22.8613 153.509 22.8613 164.874C22.8613 176.24 32.2776 185.544 43.8944 185.544Z" fill="white"/>
<path d="M43.8946 146.82C54.0274 146.82 62.2666 154.917 62.2666 164.874C62.2666 174.832 54.0274 182.929 43.8946 182.929C33.7619 182.929 25.5226 174.832 25.5226 164.874C25.5226 154.917 33.7619 146.82 43.8946 146.82ZM43.8946 182.325C53.6691 182.325 61.6525 174.48 61.6525 164.874C61.6525 155.269 53.6691 147.424 43.8946 147.424C34.1201 147.424 26.1367 155.219 26.1367 164.874C26.1367 174.53 34.1201 182.325 43.8946 182.325Z" fill="white"/>
<path d="M43.8943 150.139C52.1847 150.139 58.8887 156.727 58.8887 164.874C58.8887 173.021 52.1847 179.609 43.8943 179.609C35.6039 179.609 28.8999 173.021 28.8999 164.874C28.8999 156.727 35.6551 150.139 43.8943 150.139ZM43.8943 179.107C51.8777 179.107 58.377 172.72 58.377 164.874C58.377 157.029 51.8777 150.642 43.8943 150.642C35.9109 150.642 29.4117 157.029 29.4117 164.874C29.4117 172.72 35.9109 179.107 43.8943 179.107Z" fill="white"/>
<path d="M43.8945 153.459C50.2914 153.459 55.5113 158.588 55.5113 164.875C55.5113 171.161 50.2914 176.291 43.8945 176.291C37.4975 176.291 32.2776 171.161 32.2776 164.875C32.2776 158.588 37.4975 153.459 43.8945 153.459ZM43.8945 175.888C50.0867 175.888 55.1019 170.96 55.1019 164.875C55.1019 158.79 50.0867 153.861 43.8945 153.861C37.7022 153.861 32.6871 158.79 32.6871 164.875C32.6871 170.96 37.7022 175.888 43.8945 175.888Z" fill="white"/>
<path d="M43.8946 156.778C48.4492 156.778 52.1338 160.399 52.1338 164.874C52.1338 169.35 48.4492 172.971 43.8946 172.971C39.34 172.971 35.6553 169.35 35.6553 164.874C35.6553 160.399 39.3911 156.778 43.8946 156.778ZM43.8946 172.669C48.2445 172.669 51.8268 169.199 51.8268 164.874C51.8268 160.6 48.2957 157.08 43.8946 157.08C39.5447 157.08 35.9624 160.55 35.9624 164.874C35.9624 169.149 39.5447 172.669 43.8946 172.669Z" fill="white"/>
<path d="M43.8944 160.096C46.5555 160.096 48.756 162.209 48.756 164.874C48.756 167.489 46.6067 169.652 43.8944 169.652C41.2333 169.652 39.0327 167.539 39.0327 164.874C39.0839 162.259 41.2333 160.096 43.8944 160.096ZM43.8944 169.45C46.4532 169.45 48.5513 167.389 48.5513 164.874C48.5513 162.36 46.4532 160.298 43.8944 160.298C41.3356 160.298 39.2374 162.36 39.2374 164.874C39.2374 167.389 41.3356 169.45 43.8944 169.45Z" fill="white"/>
<path d="M43.8946 163.416C44.7134 163.416 45.3787 164.07 45.3787 164.874C45.3787 165.679 44.7134 166.333 43.8946 166.333C43.0758 166.333 42.4105 165.679 42.4105 164.874C42.4617 164.07 43.0758 163.416 43.8946 163.416ZM43.8946 166.232C44.6622 166.232 45.2763 165.629 45.2763 164.874C45.2763 164.12 44.6622 163.516 43.8946 163.516C43.127 163.516 42.5129 164.12 42.5129 164.874C42.564 165.629 43.1782 166.232 43.8946 166.232Z" fill="white"/>
<path d="M43.8945 202.692C51.5709 202.692 57.7631 208.828 57.7631 216.321C57.7631 223.814 51.5709 230 43.8945 230C36.2182 230 30.026 223.865 30.026 216.371C30.026 208.878 36.2694 202.692 43.8945 202.692ZM43.8945 229.899C51.5197 229.899 57.6607 223.814 57.6607 216.371C57.6607 208.928 51.4685 202.843 43.8945 202.843C36.3206 202.843 30.1284 208.878 30.1284 216.371C30.1284 223.865 36.3206 229.899 43.8945 229.899Z" fill="white"/>
<path d="M43.8945 205.056C50.2402 205.056 55.3578 210.135 55.3578 216.321C55.3578 222.507 50.2402 227.636 43.8945 227.636C37.5487 227.636 32.4312 222.557 32.4312 216.371C32.4312 210.185 37.5999 205.056 43.8945 205.056ZM43.8945 227.385C50.0867 227.385 55.1019 222.456 55.1019 216.371C55.1019 210.286 50.0867 205.358 43.8945 205.358C37.7022 205.358 32.687 210.286 32.687 216.371C32.687 222.456 37.7022 227.385 43.8945 227.385Z" fill="white"/>
<path d="M43.8945 207.42C48.9097 207.42 52.9526 211.393 52.9526 216.322C52.9526 221.25 48.9097 225.223 43.8945 225.223C38.8793 225.223 34.8365 221.25 34.8365 216.322C34.8365 211.393 38.8793 207.42 43.8945 207.42ZM43.8945 224.871C48.6539 224.871 52.5432 221.049 52.5432 216.372C52.5432 211.695 48.6539 207.873 43.8945 207.873C39.1352 207.873 35.2459 211.695 35.2459 216.372C35.2459 221.049 39.1352 224.871 43.8945 224.871Z" fill="white"/>
<path d="M43.8946 209.834C47.5792 209.834 50.5474 212.751 50.5474 216.372C50.5474 219.993 47.5792 222.91 43.8946 222.91C40.2099 222.91 37.2418 219.993 37.2418 216.372C37.2418 212.751 40.2099 209.834 43.8946 209.834ZM43.8946 222.306C47.221 222.306 49.9844 219.641 49.9844 216.322C49.9844 213.002 47.2721 210.387 43.8946 210.387C40.5682 210.387 37.8047 213.053 37.8047 216.372C37.8047 219.691 40.5682 222.306 43.8946 222.306Z" fill="white"/>
<path d="M43.8947 212.197C46.2488 212.197 48.1423 214.058 48.1423 216.371C48.1423 218.685 46.2488 220.545 43.8947 220.545C41.5406 220.545 39.6472 218.685 39.6472 216.371C39.6472 214.058 41.5406 212.197 43.8947 212.197ZM43.8947 219.791C45.8394 219.791 47.3747 218.232 47.3747 216.371C47.3747 214.46 45.7882 212.952 43.8947 212.952C41.9501 212.952 40.4148 214.511 40.4148 216.371C40.4148 218.232 41.9501 219.791 43.8947 219.791Z" fill="white"/>
<path d="M43.8945 214.561C44.918 214.561 45.7368 215.366 45.7368 216.372C45.7368 217.377 44.918 218.182 43.8945 218.182C42.871 218.182 42.0522 217.377 42.0522 216.372C42.0522 215.366 42.871 214.561 43.8945 214.561ZM43.8945 217.277C44.4063 217.277 44.8157 216.875 44.8157 216.372C44.8157 215.869 44.4063 215.466 43.8945 215.466C43.3827 215.466 42.9733 215.869 42.9733 216.372C42.9733 216.875 43.3827 217.277 43.8945 217.277Z" fill="white"/>
</svg>
