<svg width="363" height="136" viewBox="0 0 363 136" fill="none" xmlns="http://www.w3.org/2000/svg">
<path d="M362.531 67.913C362.531 86.0232 355.619 103.082 342.986 115.937C330.353 128.792 313.669 135.826 295.793 135.826C277.996 135.826 261.232 128.792 248.599 115.937C235.967 103.082 229.054 86.104 229.054 67.913C229.054 49.8029 235.967 32.7438 248.599 19.8888C261.232 7.03383 277.916 -3.05176e-05 295.793 -3.05176e-05C313.589 -3.05176e-05 330.353 7.03383 342.986 19.8888C355.619 32.7438 362.531 49.8029 362.531 67.913ZM229.293 67.913C229.293 86.0232 236.205 103.001 248.758 115.776C261.311 128.55 278.075 135.584 295.793 135.584C313.51 135.584 330.274 128.55 342.827 115.776C355.38 103.001 362.292 85.9423 362.292 67.913C362.292 49.8837 355.38 32.8246 342.827 20.0505C330.353 7.27637 313.669 0.242519 295.872 0.242519C278.075 0.242519 261.391 7.27637 248.838 20.0505C236.284 32.8246 229.293 49.8029 229.293 67.913Z" fill="white"/>
<path d="M357.764 67.9131C357.764 102.678 329.957 130.975 295.793 130.975C261.629 130.975 233.822 102.678 233.822 67.9131C233.822 33.1481 261.629 4.85097 295.793 4.85097C329.957 4.85097 357.764 33.1481 357.764 67.9131ZM234.14 67.9131C234.14 102.516 261.788 130.652 295.793 130.652C329.798 130.652 357.446 102.516 357.446 67.9131C357.446 33.3098 329.798 5.17436 295.793 5.17436C261.788 5.17436 234.14 33.3098 234.14 67.9131Z" fill="white"/>
<path d="M352.997 67.9129C352.997 100.01 327.334 126.124 295.792 126.124C264.251 126.124 238.588 100.01 238.588 67.9129C238.588 35.8159 264.251 9.70173 295.792 9.70173C327.334 9.70173 352.997 35.8159 352.997 67.9129ZM239.065 67.9129C239.065 99.7674 264.569 125.72 295.872 125.72C327.175 125.72 352.679 99.7674 352.679 67.9129C352.679 36.0585 327.175 10.106 295.872 10.106C264.569 10.106 239.065 36.0585 239.065 67.9129Z" fill="white"/>
<path d="M348.23 67.913C348.23 97.3419 324.712 121.273 295.793 121.273C266.873 121.273 243.355 97.3419 243.355 67.913C243.355 38.484 266.873 14.5527 295.793 14.5527C324.712 14.5527 348.23 38.5648 348.23 67.913ZM243.912 67.913C243.912 97.0994 267.19 120.788 295.872 120.788C324.554 120.788 347.832 97.0994 347.832 67.913C347.832 38.7265 324.554 15.0378 295.872 15.0378C267.19 15.0378 243.912 38.8074 243.912 67.913Z" fill="white"/>
<path d="M343.463 67.9132C343.463 94.6742 322.09 116.423 295.792 116.423C269.494 116.423 248.122 94.6742 248.122 67.9132C248.122 41.1523 269.494 19.4039 295.792 19.4039C322.09 19.4039 343.463 41.2331 343.463 67.9132ZM248.758 67.9132C248.758 94.3508 269.892 115.857 295.872 115.857C321.852 115.857 342.986 94.3508 342.986 67.9132C342.986 41.4757 321.852 19.9699 295.872 19.9699C269.892 19.9699 248.758 41.4757 248.758 67.9132Z" fill="white"/>
<path d="M338.696 67.9131C338.696 92.006 319.469 111.571 295.793 111.571C272.116 111.571 252.889 92.006 252.889 67.9131C252.889 43.8201 272.116 24.2547 295.793 24.2547C319.469 24.2547 338.696 43.9009 338.696 67.9131ZM253.604 67.9131C253.604 91.6018 272.514 110.925 295.872 110.925C319.23 110.925 338.139 91.6826 338.139 67.9131C338.139 44.1435 319.23 24.9015 295.872 24.9015C272.514 24.9015 253.604 44.2243 253.604 67.9131Z" fill="white"/>
<path d="M333.929 67.9131C333.929 89.2572 316.847 106.721 295.793 106.721C274.739 106.721 257.657 89.338 257.657 67.9131C257.657 46.4882 274.739 29.1057 295.793 29.1057C316.847 29.1057 333.929 46.569 333.929 67.9131ZM258.451 67.9131C258.451 88.853 275.215 105.912 295.793 105.912C316.371 105.912 333.135 88.853 333.135 67.9131C333.135 46.9732 316.371 29.9141 295.793 29.9141C275.215 29.9141 258.451 46.9732 258.451 67.9131Z" fill="white"/>
<path d="M329.162 67.9129C329.162 86.589 314.225 101.869 295.793 101.869C277.36 101.869 262.424 86.6699 262.424 67.9129C262.424 49.156 277.36 33.9564 295.793 33.9564C314.225 33.9564 329.162 49.2368 329.162 67.9129ZM263.377 67.9129C263.377 86.1848 277.996 100.98 295.872 100.98C313.749 100.98 328.368 86.1039 328.368 67.9129C328.368 49.7219 313.749 34.8458 295.872 34.8458C277.996 34.8458 263.377 49.7219 263.377 67.9129Z" fill="white"/>
<path d="M324.395 67.913C324.395 83.9211 311.603 97.0186 295.793 97.0186C279.982 97.0186 267.19 84.0019 267.19 67.913C267.19 51.8241 279.982 38.8074 295.793 38.8074C311.603 38.8074 324.395 51.9049 324.395 67.913ZM268.223 67.913C268.223 83.436 280.618 96.0484 295.872 96.0484C311.126 96.0484 323.521 83.436 323.521 67.913C323.521 52.39 311.126 39.7776 295.872 39.7776C280.618 39.7776 268.223 52.39 268.223 67.913Z" fill="white"/>
<path d="M319.628 67.913C319.628 81.2531 308.981 92.1677 295.792 92.1677C282.604 92.1677 271.957 81.334 271.957 67.913C271.957 54.4921 282.604 43.6584 295.792 43.6584C308.981 43.6584 319.628 54.573 319.628 67.913ZM273.07 67.913C273.07 80.6872 283.319 91.1167 295.872 91.1167C308.425 91.1167 318.674 80.6872 318.674 67.913C318.674 55.1389 308.425 44.7094 295.872 44.7094C283.319 44.7094 273.07 55.1389 273.07 67.913Z" fill="white"/>
<path d="M314.861 67.9131C314.861 78.5851 306.359 87.3168 295.793 87.3168C285.226 87.3168 276.724 78.666 276.724 67.9131C276.724 57.241 285.226 48.5094 295.793 48.5094C306.359 48.5094 314.861 57.241 314.861 67.9131ZM277.916 67.9131C277.916 77.9383 285.941 86.1849 295.872 86.1849C305.724 86.1849 313.828 78.0192 313.828 67.9131C313.828 57.807 305.803 49.6412 295.872 49.6412C285.941 49.7221 277.916 57.8878 277.916 67.9131Z" fill="white"/>
<path d="M310.093 67.9131C310.093 75.9172 303.658 82.4659 295.792 82.4659C287.927 82.4659 281.491 75.9172 281.491 67.9131C281.491 59.9091 287.927 53.3603 295.792 53.3603C303.658 53.3603 310.093 59.9091 310.093 67.9131ZM282.763 67.9131C282.763 75.2704 288.642 81.1724 295.792 81.1724C302.943 81.1724 308.822 75.1895 308.822 67.9131C308.822 60.5559 302.943 54.6539 295.792 54.6539C288.642 54.6539 282.763 60.6367 282.763 67.9131Z" fill="white"/>
<path d="M305.327 67.913C305.327 73.249 301.036 77.6148 295.793 77.6148C290.549 77.6148 286.258 73.249 286.258 67.913C286.258 62.5769 290.549 58.2111 295.793 58.2111C301.036 58.2111 305.327 62.5769 305.327 67.913ZM287.689 67.913C287.689 72.5213 291.343 76.2404 295.872 76.2404C300.401 76.2404 304.055 72.5213 304.055 67.913C304.055 63.3046 300.401 59.5855 295.872 59.5855C291.343 59.5855 287.689 63.3046 287.689 67.913Z" fill="white"/>
<path d="M300.559 67.913C300.559 70.581 298.414 72.7639 295.792 72.7639C293.171 72.7639 291.025 70.581 291.025 67.913C291.025 65.245 293.171 63.0621 295.792 63.0621C298.414 63.0621 300.559 65.245 300.559 67.913ZM292.535 67.913C292.535 69.7725 294.045 71.3087 295.872 71.3087C297.699 71.3087 299.209 69.7725 299.209 67.913C299.209 66.0535 297.699 64.5174 295.872 64.5174C294.045 64.5174 292.535 66.0535 292.535 67.913Z" fill="white"/>
<mask id="mask0_1_13" style="mask-type:alpha" maskUnits="userSpaceOnUse" x="162" y="0" width="134" height="136">
<path d="M229.214 135.746C266.028 135.746 295.872 105.376 295.872 67.9136C295.872 30.4509 266.028 0.0813942 229.214 0.0813942C192.399 0.0813942 162.555 30.4509 162.555 67.9136C162.555 105.376 192.399 135.746 229.214 135.746Z" fill="white"/>
</mask>
<g mask="url(#mask0_1_13)">
<path d="M289.199 197.756C289.199 198.241 289.119 198.727 289.119 199.212C289.119 199.697 289.04 200.182 289.04 200.667C289.04 201.152 288.96 201.637 288.96 201.961C288.881 202.931 288.881 203.416 288.881 203.416C288.881 203.416 290.629 169.54 292.377 135.745C294.125 101.951 295.872 68.0748 295.872 68.0748C295.872 68.0748 295.475 76.564 294.76 89.2572C294.442 95.6443 294.045 103.002 293.648 110.925C293.251 118.848 292.774 127.337 292.377 135.826C291.503 152.804 290.629 169.783 289.993 182.557C289.596 188.782 289.358 194.118 289.199 197.756Z" fill="white"/>
<path d="M282.525 197.352C282.445 197.837 282.366 198.322 282.366 198.727C282.286 199.212 282.207 199.697 282.207 200.101C282.128 200.586 282.048 200.99 282.048 201.395C281.969 202.284 281.889 202.769 281.889 202.769C281.889 202.769 285.385 169.055 288.881 135.341C292.377 101.627 295.872 67.9132 295.872 67.9132C295.872 67.9132 294.998 76.3215 293.727 89.0148C293.092 95.321 292.297 102.678 291.503 110.601C290.708 118.525 289.834 126.933 288.96 135.341C287.212 152.319 285.464 169.298 284.193 181.991C283.399 188.621 282.843 193.957 282.525 197.352Z" fill="white"/>
<path d="M275.93 196.706C275.85 197.191 275.771 197.595 275.692 197.999C275.612 198.484 275.533 198.888 275.453 199.293C275.374 199.778 275.294 200.182 275.215 200.505C275.056 201.395 274.977 201.88 274.977 201.88C274.977 201.88 280.22 168.408 285.384 134.937C290.628 101.466 295.792 67.9941 295.792 67.9941C295.792 67.9941 294.521 76.4024 292.535 88.934C291.582 95.2402 290.469 102.517 289.198 110.359C288.006 118.201 286.735 126.61 285.384 134.937C282.763 151.915 280.141 168.813 278.234 181.425C277.281 188.055 276.407 193.391 275.93 196.706Z" fill="white"/>
<path d="M269.415 195.654C269.336 196.14 269.177 196.544 269.098 196.867C269.018 197.352 268.859 197.757 268.78 198.08C268.7 198.484 268.541 198.888 268.462 199.212C268.303 200.02 268.144 200.505 268.144 200.505C268.144 200.505 275.056 167.357 281.968 134.209C288.881 101.061 295.793 67.9132 295.793 67.9132C295.793 67.9132 294.045 76.2407 291.503 88.6105C290.231 94.8359 288.722 102.112 287.133 109.874C285.544 117.635 283.796 125.963 282.127 134.29C278.632 151.107 275.136 168.004 272.593 180.455C271.163 187.165 270.051 192.501 269.415 195.654Z" fill="white"/>
<path d="M263.06 194.361C262.98 194.765 262.742 195.169 262.662 195.493C262.583 195.897 262.345 196.301 262.265 196.625C262.186 197.029 261.947 197.433 261.868 197.676C261.63 198.484 261.471 198.888 261.471 198.888C261.471 198.888 270.051 166.145 278.711 133.401C287.292 100.657 295.952 67.9132 295.952 67.9132C295.952 67.9132 293.807 76.079 290.629 88.368C289.04 94.5125 287.133 101.708 285.147 109.389C283.161 117.069 281.015 125.235 278.87 133.482C274.5 150.217 270.21 166.872 266.953 179.242C265.205 186.033 263.854 191.369 263.06 194.361Z" fill="white"/>
<path d="M256.783 192.663C256.624 193.067 256.465 193.391 256.306 193.795C256.147 194.199 255.989 194.523 255.83 194.846C255.671 195.25 255.512 195.574 255.432 195.897C255.194 196.625 254.956 197.029 254.956 197.029C254.956 197.029 265.205 164.77 275.454 132.512C285.703 100.253 295.952 67.9941 295.952 67.9941C295.952 67.9941 293.41 76.079 289.596 88.2063C287.689 94.27 285.465 101.304 283.081 108.904C280.698 116.503 278.155 124.588 275.613 132.673C270.448 149.166 265.205 165.74 261.391 177.868C259.325 184.578 257.657 189.833 256.783 192.663Z" fill="white"/>
<path d="M250.586 190.642C250.427 191.046 250.188 191.369 250.109 191.693C249.95 192.097 249.712 192.421 249.632 192.744C249.473 193.148 249.235 193.391 249.155 193.714C248.917 194.442 248.599 194.765 248.599 194.765C248.599 194.765 260.437 163.072 272.355 131.38C284.193 99.6869 296.111 67.9941 296.111 67.9941C296.111 67.9941 293.171 75.9173 288.801 87.8021C286.577 93.7849 284.034 100.657 281.253 108.095C278.473 115.533 275.533 123.456 272.593 131.38C266.555 147.711 260.517 163.962 256.068 175.927C253.525 182.799 251.618 187.974 250.586 190.642Z" fill="white"/>
<path d="M244.547 188.378C244.389 188.701 244.15 189.025 243.991 189.348C243.832 189.672 243.594 189.995 243.435 190.318C243.276 190.642 243.038 190.965 242.879 191.208C242.561 191.855 242.323 192.178 242.323 192.178C242.323 192.178 255.75 161.132 269.177 130.167C282.604 99.1208 296.031 68.1557 296.031 68.1557C296.031 68.1557 292.694 75.9172 287.689 87.5595C285.226 93.3806 282.286 100.172 279.188 107.448C276.089 114.725 272.752 122.486 269.415 130.329C262.583 146.337 255.671 162.426 250.665 174.149C247.805 180.697 245.58 185.872 244.547 188.378Z" fill="white"/>
<path d="M238.589 185.791C238.43 186.114 238.112 186.357 237.953 186.68C237.794 187.004 237.477 187.246 237.318 187.57C237.159 187.893 236.92 188.135 236.761 188.378C236.444 189.025 236.126 189.267 236.126 189.267C236.126 189.267 251.062 158.949 265.999 128.712C280.936 98.3932 295.872 68.1557 295.872 68.1557C295.872 68.1557 292.138 75.7555 286.577 87.1552C283.796 92.8146 280.538 99.4442 277.122 106.559C273.626 113.674 269.972 121.273 266.237 128.873C258.61 144.558 250.904 160.323 245.342 171.804C242.244 178.353 239.781 183.446 238.589 185.791Z" fill="white"/>
<path d="M232.868 182.961C232.709 183.285 232.392 183.446 232.233 183.77C232.074 184.093 231.756 184.255 231.597 184.578C231.438 184.902 231.12 185.063 231.041 185.306C230.723 185.872 230.405 186.114 230.405 186.114C230.405 186.114 246.852 156.604 263.298 127.175C279.744 97.7465 296.19 68.2366 296.19 68.2366C296.19 68.2366 292.138 75.5939 286.02 86.751C283.001 92.3296 279.426 98.7975 275.612 105.67C271.799 112.623 267.747 119.98 263.616 127.418C255.194 142.779 246.693 158.141 240.575 169.379C236.761 175.766 234.06 180.778 232.868 182.961Z" fill="white"/>
<path d="M227.227 179.808C227.068 180.131 226.751 180.293 226.592 180.536C226.433 180.859 226.115 181.021 225.956 181.263C225.797 181.587 225.479 181.668 225.321 181.91C225.003 182.476 224.605 182.638 224.605 182.638C224.605 182.638 242.482 154.017 260.358 125.397C278.234 96.7762 296.111 68.1557 296.111 68.1557C296.111 68.1557 291.661 75.3513 285.067 86.1042C281.73 91.521 277.917 97.7464 273.706 104.457C269.574 111.167 265.125 118.363 260.676 125.558C251.46 140.515 242.243 155.553 235.49 166.387C231.518 172.936 228.499 177.787 227.227 179.808Z" fill="white"/>
<path d="M221.825 176.332C221.666 176.574 221.268 176.736 221.11 176.978C220.951 177.221 220.553 177.383 220.395 177.625C220.236 177.868 219.918 178.029 219.759 178.191C219.441 178.676 219.044 178.838 219.044 178.838C219.044 178.838 238.271 151.188 257.577 123.537C276.804 95.8869 296.031 68.2366 296.111 68.2366C296.111 68.2366 291.344 75.1896 284.193 85.6191C280.618 90.7935 276.486 96.938 271.958 103.406C267.508 109.955 262.741 116.908 257.974 123.861C247.964 138.413 238.032 152.966 230.803 163.477C226.353 169.783 223.096 174.472 221.825 176.332Z" fill="white"/>
<path d="M216.58 172.693C216.422 172.936 216.024 173.017 215.865 173.259C215.706 173.502 215.309 173.583 215.15 173.825C214.991 174.068 214.674 174.149 214.515 174.31C214.197 174.795 213.8 174.876 213.8 174.876C213.8 174.876 234.377 148.196 254.955 121.516C275.532 94.8359 296.11 68.1557 296.11 68.1557C296.11 68.1557 291.025 74.8662 283.398 84.8914C279.584 89.9041 275.135 95.806 270.368 102.031C265.601 108.338 260.516 115.048 255.352 121.759C244.626 135.826 233.901 149.975 226.194 160.081C221.347 166.387 217.852 170.995 216.58 172.693Z" fill="white"/>
<path d="M211.496 168.732C211.337 168.974 210.94 168.974 210.781 169.217C210.622 169.459 210.225 169.459 210.066 169.621C209.907 169.864 209.589 169.864 209.43 170.025C209.112 170.43 208.715 170.51 208.715 170.51C208.715 170.51 230.564 144.881 252.413 119.333C274.262 93.7848 296.11 68.1557 296.11 68.1557C296.11 68.1557 290.708 74.6236 282.604 84.2446C278.552 89.0956 273.785 94.6742 268.78 100.738C263.695 106.801 258.292 113.269 252.89 119.656C241.449 133.239 230.008 146.822 221.824 156.604C216.501 162.749 212.767 167.196 211.496 168.732Z" fill="white"/>
<path d="M206.57 164.528C206.411 164.689 206.014 164.689 205.855 164.932C205.696 165.093 205.299 165.093 205.14 165.255C204.981 165.417 204.584 165.417 204.504 165.579C204.187 165.983 203.789 165.983 203.789 165.902C203.789 165.902 226.83 141.405 249.95 116.988C272.991 92.4912 296.111 68.0748 296.111 68.0748C296.111 68.0748 290.39 74.2193 281.809 83.4361C277.519 88.0445 272.514 93.4614 267.191 99.2016C261.788 105.023 256.068 111.167 250.347 117.312C238.271 130.328 226.115 143.426 217.455 152.804C211.893 158.868 207.921 163.153 206.57 164.528Z" fill="white"/>
<path d="M201.962 160.081C201.803 160.243 201.406 160.243 201.247 160.323C201.088 160.485 200.691 160.485 200.532 160.566C200.373 160.728 200.055 160.728 199.896 160.809C199.578 161.132 199.181 161.051 199.181 161.051C199.181 161.051 223.414 137.767 247.646 114.482C271.878 91.1977 296.11 67.9132 296.11 67.9132C296.11 67.9132 290.072 73.8152 281.094 82.5469C276.566 86.9127 271.322 92.087 265.76 97.5848C260.12 103.082 254.081 108.984 248.123 114.886C235.331 127.337 222.619 139.869 213.482 148.762C207.444 154.745 203.233 158.868 201.962 160.081Z" fill="white"/>
<path d="M197.433 155.392C197.274 155.553 196.877 155.473 196.718 155.634C196.559 155.796 196.162 155.715 196.003 155.796C195.844 155.958 195.526 155.877 195.368 155.958C195.05 156.281 194.652 156.119 194.652 156.119C194.652 156.119 219.997 134.129 245.342 112.057C270.686 89.985 296.031 67.9941 296.031 67.9941C296.031 67.9941 289.754 73.5727 280.3 81.9001C275.612 86.1043 270.13 90.9552 264.251 96.1295C258.372 101.385 252.095 106.963 245.739 112.542C232.312 124.427 218.964 136.311 209.351 144.72C203.154 150.379 198.704 154.341 197.433 155.392Z" fill="white"/>
<path d="M193.223 150.541C193.064 150.702 192.666 150.541 192.508 150.702C192.349 150.864 191.951 150.702 191.872 150.864C191.713 151.026 191.395 150.864 191.236 150.945C190.919 151.188 190.521 151.026 190.521 151.026C190.521 151.026 216.899 130.329 243.276 109.631C269.654 88.9339 296.031 68.2366 296.031 68.2366C296.031 68.2366 289.516 73.4918 279.664 81.3341C274.739 85.2957 269.018 89.8233 262.9 94.7551C256.783 99.6868 250.188 104.942 243.673 110.197C229.69 121.435 215.628 132.673 205.696 140.677C199.102 145.852 194.414 149.571 193.223 150.541Z" fill="white"/>
<path d="M189.171 145.366C189.012 145.447 188.694 145.286 188.535 145.447C188.376 145.528 188.059 145.366 187.9 145.528C187.741 145.609 187.423 145.528 187.264 145.609C186.946 145.851 186.549 145.609 186.549 145.609C186.549 145.609 213.88 126.286 241.211 106.882C268.542 87.4786 295.873 68.1557 295.873 68.1557C295.873 68.1557 289.119 73.0875 278.87 80.4448C273.785 84.083 267.827 88.4488 261.471 92.9763C255.115 97.5847 248.282 102.516 241.449 107.448C226.83 118.039 212.291 128.55 201.962 136.069C195.209 141.081 190.363 144.558 189.171 145.366Z" fill="white"/>
<path d="M185.436 140.03C185.277 140.111 184.96 139.95 184.801 140.03C184.642 140.111 184.324 139.95 184.165 140.03C184.006 140.111 183.688 139.95 183.609 140.03C183.291 140.192 182.973 139.95 182.973 139.95C182.973 139.95 211.258 122.001 239.542 104.053C267.826 86.1042 296.11 68.1557 296.11 68.1557C296.11 68.1557 289.119 72.6833 278.552 79.5554C273.308 82.9511 267.191 86.9935 260.596 91.1977C254.002 95.4826 246.931 100.091 239.939 104.619C224.764 114.482 209.669 124.346 198.943 131.299C191.554 135.988 186.549 139.303 185.436 140.03Z" fill="white"/>
<path d="M181.861 134.29C181.702 134.371 181.384 134.129 181.305 134.209C181.146 134.29 180.828 134.048 180.749 134.129C180.59 134.209 180.352 133.967 180.193 134.048C179.954 134.209 179.557 133.967 179.557 133.967C179.557 133.967 208.636 117.474 237.794 100.98C266.952 84.4873 296.031 67.9941 296.031 67.9941C296.031 67.9941 288.801 72.1983 277.996 78.5045C272.593 81.6576 266.237 85.2958 259.484 89.2574C252.651 93.219 245.421 97.4231 238.191 101.627C222.54 110.763 206.888 119.818 195.844 126.205C188.138 130.733 182.894 133.724 181.861 134.29Z" fill="white"/>
<path d="M178.604 128.469C178.445 128.55 178.207 128.227 178.048 128.307C177.889 128.388 177.65 128.065 177.492 128.146C177.333 128.227 177.094 127.984 177.015 127.984C176.777 128.146 176.459 127.822 176.459 127.822C176.459 127.822 206.332 112.865 236.205 97.9082C266.079 82.9512 295.952 67.9941 295.952 67.9941C295.952 67.9941 288.563 71.794 277.36 77.5343C271.799 80.364 265.284 83.7597 258.372 87.317C251.38 90.9552 243.912 94.7551 236.523 98.6359C220.395 106.963 204.266 115.291 192.905 121.112C184.96 125.154 179.557 127.984 178.604 128.469Z" fill="white"/>
<path d="M175.585 122.405C175.426 122.486 175.187 122.162 175.108 122.162C174.949 122.243 174.711 121.92 174.631 121.92C174.472 122.001 174.234 121.677 174.154 121.677C173.916 121.758 173.598 121.435 173.598 121.435C173.598 121.435 204.187 108.014 234.775 94.593C265.363 81.1721 295.952 67.7512 295.952 67.7512C295.952 67.7512 288.324 71.2277 276.963 76.402C271.243 78.9892 264.648 81.9806 257.498 85.2145C250.347 88.4485 242.72 91.925 235.093 95.4015C218.488 102.92 201.883 110.439 190.283 115.695C182.02 119.494 176.458 122.001 175.585 122.405Z" fill="white"/>
<path d="M172.883 116.099C172.804 116.18 172.486 115.776 172.407 115.776C172.327 115.857 172.009 115.452 171.93 115.452C171.85 115.533 171.612 115.129 171.533 115.21C171.294 115.291 171.056 114.886 171.056 114.886C171.056 114.886 202.28 103.083 233.504 91.2786C264.728 79.4747 295.952 67.6707 295.952 67.6707C295.952 67.6707 288.166 70.743 276.566 75.2705C270.766 77.5343 263.933 80.2023 256.703 83.1129C249.394 85.9426 241.608 89.0148 233.822 92.0871C216.819 98.7975 199.817 105.427 187.899 110.116C179.398 113.593 173.678 115.857 172.883 116.099Z" fill="white"/>
<path d="M170.42 109.712C170.341 109.712 170.102 109.308 170.023 109.388C169.943 109.388 169.705 108.984 169.626 109.065C169.546 109.065 169.308 108.742 169.228 108.742C169.07 108.822 168.831 108.337 168.831 108.337C168.831 108.337 200.611 98.1504 232.391 88.0443C264.171 77.8573 295.951 67.7512 295.951 67.7512C295.951 67.7512 288.006 70.4192 276.168 74.3808C270.21 76.402 263.377 78.6658 255.909 81.1721C248.44 83.6784 240.575 86.3464 232.63 88.9336C215.23 94.7547 197.91 100.576 185.754 104.618C177.015 107.529 171.135 109.469 170.42 109.712Z" fill="white"/>
<path d="M168.355 103.163C168.275 103.163 168.116 102.759 168.037 102.759C167.957 102.759 167.798 102.355 167.719 102.355C167.64 102.355 167.481 101.951 167.401 102.031C167.242 102.112 167.004 101.627 167.004 101.627C167.004 101.627 199.261 93.1381 231.518 84.649C263.774 76.1598 296.031 67.6707 296.031 67.6707C296.031 67.6707 288.007 69.9345 275.93 73.2493C269.892 74.9471 262.9 76.8875 255.432 78.9896C247.884 81.0916 239.86 83.3554 231.756 85.5383C214.038 90.4701 196.321 95.4019 184.006 98.7975C174.87 101.304 168.911 103.002 168.355 103.163Z" fill="white"/>
<path d="M166.527 96.4526C166.448 96.4526 166.289 95.9675 166.21 96.0484C166.13 96.0484 165.971 95.5633 165.892 95.6441C165.812 95.6441 165.653 95.2399 165.653 95.2399C165.495 95.2399 165.336 94.7548 165.336 94.7548C165.336 94.7548 197.99 87.9635 230.644 81.1722C263.298 74.3809 295.952 67.5896 295.952 67.5896C295.952 67.5896 287.848 69.3683 275.613 72.1171C269.495 73.4915 262.424 75.0277 254.797 76.7255C247.169 78.4233 238.986 80.2829 230.803 82.0615C212.847 86.104 194.812 90.0656 182.338 92.8953C173.122 94.9974 167.004 96.3718 166.527 96.4526Z" fill="white"/>
<path d="M165.018 89.5806C164.938 89.5806 164.859 89.0955 164.779 89.0955C164.7 89.0955 164.62 88.6105 164.541 88.6105C164.462 88.6105 164.382 88.2062 164.303 88.2062C164.223 88.2062 164.064 87.7211 164.064 87.7211C164.064 87.7211 197.036 82.7085 229.929 77.615C262.9 72.6024 295.793 67.5089 295.793 67.5089C295.793 67.5089 287.609 68.8833 275.295 70.9854C269.177 72.0364 261.947 73.2492 254.32 74.5428C246.613 75.8363 238.35 77.2108 230.087 78.5852C211.814 81.6575 193.62 84.7297 180.987 86.8318C171.612 88.5296 165.336 89.5806 165.018 89.5806Z" fill="white"/>
<path d="M163.826 82.6276C163.826 82.6276 163.747 82.1426 163.667 82.1426C163.667 82.1426 163.588 81.6575 163.508 81.6575C163.508 81.6575 163.429 81.1724 163.35 81.1724C163.27 81.1724 163.191 80.6064 163.191 80.6064C163.191 80.6064 196.321 77.2916 229.532 74.0577C262.742 70.8237 295.873 67.5089 295.873 67.5089C295.873 67.5089 287.61 68.4791 275.215 69.8535C269.018 70.5812 261.788 71.3897 254.082 72.279C246.296 73.1683 238.033 74.1385 229.691 75.1087C211.258 77.2108 192.826 79.3128 180.114 80.7681C170.421 81.9 164.065 82.6276 163.826 82.6276Z" fill="white"/>
<path d="M163.032 75.5937L162.952 75.0278L162.873 74.4618L162.793 73.9767L162.714 73.4108C162.714 73.4108 196.004 71.8747 229.293 70.4194C262.583 68.8833 295.873 67.428 295.873 67.428C295.873 67.428 287.53 67.9131 275.136 68.7216C268.939 69.1258 261.63 69.5301 253.923 70.0152C246.137 70.5002 237.794 70.9853 229.452 71.5513C210.861 72.6832 192.269 73.815 179.478 74.6235C169.547 75.1895 163.191 75.5937 163.032 75.5937Z" fill="white"/>
<path d="M162.635 66.7814C162.635 66.7814 195.924 67.0239 229.293 67.3473C262.662 67.6707 295.952 67.9133 295.952 67.9133C295.952 67.9133 262.662 68.1558 229.293 68.4792C195.924 68.8026 162.635 69.0452 162.635 69.0452V68.4792V67.9133V66.7814Z" fill="white"/>
<path d="M289.119 -61.8494C289.119 -62.3345 289.119 -62.8196 289.04 -63.3047C289.04 -63.7898 289.04 -64.2748 288.96 -64.7599C288.96 -65.245 288.96 -65.7301 288.881 -66.0535C288.801 -67.0237 288.801 -67.5088 288.801 -67.5088C288.801 -67.5088 290.549 -33.6331 292.297 0.161713C294.045 34.0374 295.793 67.8322 295.793 67.8322C295.793 67.8322 295.316 58.9388 294.681 46.6498C294.363 40.5053 293.966 32.663 293.568 24.9823C293.171 17.3017 292.694 8.32745 292.297 0.080864C291.423 -16.3315 290.549 -34.3608 289.914 -46.6498C289.596 -52.6326 289.278 -58.292 289.119 -61.8494Z" fill="white"/>
<path d="M282.366 -61.5261C282.287 -62.0112 282.286 -62.4963 282.286 -62.9005C282.207 -63.3856 282.207 -63.8707 282.207 -64.2749C282.128 -64.76 282.128 -65.1643 282.128 -65.5685C282.048 -66.4579 282.048 -67.0238 282.048 -67.0238C282.048 -67.0238 285.465 -33.3098 288.96 0.404152C292.456 34.1181 295.872 67.8321 295.872 67.8321C295.872 67.8321 294.919 58.6153 293.727 46.7306C293.092 40.8286 292.218 32.5012 291.503 25.1439C290.788 17.7867 289.755 8.24649 288.96 0.404152C287.371 -15.3614 285.306 -34.4417 284.114 -46.2456C283.319 -52.0668 282.684 -58.0496 282.366 -61.5261Z" fill="white"/>
<path d="M275.692 -60.7983C275.612 -61.2834 275.612 -61.6877 275.533 -62.0919C275.454 -62.577 275.454 -62.9812 275.374 -63.3855C275.295 -63.8706 275.295 -64.2748 275.215 -64.5982C275.056 -65.4876 275.056 -65.9727 275.056 -65.9727C275.056 -65.9727 280.221 -32.5012 285.385 0.9702C290.549 34.4416 295.713 67.913 295.713 67.913C295.713 67.913 294.204 58.292 292.456 46.9732C291.582 41.3138 290.231 32.5821 289.119 25.5482C288.007 18.5144 286.418 8.48914 285.305 0.9702C282.922 -14.1485 279.823 -34.1182 278.075 -45.5179C277.201 -51.1773 276.248 -57.4835 275.692 -60.7983Z" fill="white"/>
<path d="M269.097 -59.7471C269.018 -60.2322 269.018 -60.6365 268.938 -61.0407C268.859 -61.5258 268.859 -61.93 268.78 -62.3343C268.7 -62.7385 268.7 -63.1428 268.621 -63.547C268.462 -64.3555 268.462 -64.8406 268.462 -64.8406C268.462 -64.8406 275.294 -31.6926 282.207 1.53632C289.039 34.6843 295.952 67.9132 295.952 67.9132C295.952 67.9132 293.886 58.0497 291.661 47.2159C290.549 41.799 288.642 32.744 287.212 25.9527C285.782 19.1614 283.637 8.81271 282.127 1.61716C279.108 -12.8548 274.738 -33.7138 272.514 -44.5475C271.163 -49.9644 269.812 -56.594 269.097 -59.7471Z" fill="white"/>
<path d="M262.583 -58.3728C262.503 -58.7771 262.424 -59.1813 262.344 -59.5855C262.185 -59.9898 262.185 -60.394 262.106 -60.7983C262.026 -61.2025 261.947 -61.6068 261.868 -61.9302C261.629 -62.7387 261.629 -63.2237 261.629 -63.2237C261.629 -63.2237 270.13 -30.48 278.632 2.34469C287.133 35.0885 295.634 67.9131 295.634 67.9131C295.634 67.9131 292.933 57.7262 290.231 47.4584C288.881 42.284 286.418 32.9056 284.749 26.4377C283.081 19.9697 280.221 9.29769 278.393 2.42554C274.818 -11.3188 269.098 -32.9863 266.396 -43.3349C265.125 -48.4284 263.298 -55.3006 262.583 -58.3728Z" fill="white"/>
<path d="M256.147 -56.5941C255.989 -56.9984 255.989 -57.4026 255.909 -57.726C255.75 -58.1303 255.75 -58.5345 255.671 -58.8579C255.512 -59.2622 255.512 -59.6664 255.432 -59.9089C255.194 -60.6366 255.194 -61.1217 255.194 -61.1217C255.194 -61.1217 265.364 -28.863 275.454 3.47657C285.623 35.7353 295.714 68.0748 295.714 68.0748C295.714 68.0748 292.377 57.6453 289.278 47.9434C287.769 43.0925 284.67 33.3906 282.684 27.2461C280.698 21.1016 277.281 9.94448 275.215 3.39572C271.084 -9.62095 263.934 -32.0161 260.835 -41.7988C259.325 -46.6497 257.021 -53.7644 256.147 -56.5941Z" fill="white"/>
<path d="M249.871 -54.5729C249.712 -54.9771 249.712 -55.3814 249.553 -55.7048C249.394 -56.109 249.394 -56.5133 249.314 -56.8367C249.155 -57.2409 249.155 -57.5643 249.076 -57.8877C248.838 -58.6153 248.758 -59.0196 248.758 -59.0196C248.758 -59.0196 260.517 -27.3268 272.276 4.44676C284.034 36.2204 295.793 67.9131 295.793 67.9131C295.793 67.9131 291.82 57.3219 288.404 48.1051C286.656 43.4968 282.922 33.5524 280.777 27.8121C278.632 22.0718 274.341 10.6721 272.037 4.52762C267.429 -7.76141 258.769 -30.7225 255.353 -39.9393C253.605 -44.4668 250.903 -51.9049 249.871 -54.5729Z" fill="white"/>
<path d="M243.753 -52.1475C243.594 -52.4709 243.594 -52.8751 243.435 -53.1985C243.276 -53.5219 243.276 -53.9261 243.117 -54.2495C242.958 -54.5729 242.958 -54.9772 242.879 -55.2197C242.561 -55.8665 242.561 -56.3516 242.561 -56.3516C242.561 -56.3516 255.829 -25.3056 269.177 5.82118C282.445 36.8671 295.793 67.994 295.793 67.994C295.793 67.994 291.105 57.2411 287.371 48.5902C285.544 44.3052 281.095 34.1183 278.791 28.7014C276.486 23.2845 271.402 11.7232 268.939 5.90203C264.013 -5.57851 253.764 -29.1864 250.03 -37.8372C248.123 -42.1222 244.786 -49.6411 243.753 -52.1475Z" fill="white"/>
<path d="M237.715 -49.4795C237.556 -49.8029 237.556 -50.2071 237.397 -50.4497C237.238 -50.7731 237.238 -51.1773 237.079 -51.4199C236.92 -51.7433 236.92 -52.0667 236.762 -52.3901C236.444 -53.0369 236.444 -53.4411 236.444 -53.4411C236.444 -53.4411 251.222 -23.0419 266.079 7.2764C280.856 37.6756 295.714 67.9939 295.714 67.9939C295.714 67.9939 290.311 57.1601 286.339 49.0753C284.352 45.0328 279.188 34.6842 276.725 29.6715C274.262 24.6589 268.383 12.855 265.761 7.4381C260.438 -3.3148 248.6 -27.3269 244.627 -35.331C242.72 -39.4542 238.907 -47.1349 237.715 -49.4795Z" fill="white"/>
<path d="M231.915 -46.5687C231.756 -46.8921 231.756 -47.2963 231.597 -47.5389C231.438 -47.8622 231.438 -48.2665 231.279 -48.509C231.121 -48.8324 231.121 -49.1558 230.962 -49.3984C230.644 -49.9643 230.644 -50.3686 230.644 -50.3686C230.644 -50.3686 246.931 -20.7779 263.218 8.81281C279.506 38.4035 295.793 67.9942 295.793 67.9942C295.793 67.9942 289.675 57.0796 285.544 49.5606C283.478 45.8416 277.599 35.3312 274.977 30.642C272.355 25.9528 265.681 13.9871 262.901 8.97451C257.339 -1.05075 243.753 -25.3054 239.622 -32.8244C237.477 -36.5434 233.107 -44.3857 231.915 -46.5687Z" fill="white"/>
<path d="M226.274 -43.2541C226.115 -43.5775 226.115 -43.9009 225.956 -44.1434C225.797 -44.4668 225.797 -44.7902 225.638 -45.0328C225.479 -45.3562 225.479 -45.6796 225.32 -45.8413C225.003 -46.4072 225.003 -46.8115 225.003 -46.8115C225.003 -46.8115 242.72 -18.1101 260.437 10.5912C278.155 39.2926 295.872 67.9939 295.872 67.9939C295.872 67.9939 289.039 57.0793 284.749 50.1263C282.604 46.6498 276.01 36.1395 273.308 31.7736C270.607 27.4078 263.059 15.3613 260.199 10.7529C254.479 1.53617 239.065 -22.961 234.775 -29.914C232.471 -33.3905 227.466 -41.2329 226.274 -43.2541Z" fill="white"/>
<path d="M220.792 -39.7774C220.633 -40.02 220.633 -40.4242 220.474 -40.6667C220.315 -40.9093 220.315 -41.3135 220.156 -41.5561C219.997 -41.7986 219.997 -42.122 219.839 -42.3646C219.521 -42.8497 219.521 -43.2539 219.521 -43.2539C219.521 -43.2539 238.589 -15.4419 257.657 12.3701C276.725 40.1821 295.793 67.9941 295.793 67.9941C295.793 67.9941 288.166 57.0795 283.796 50.6925C281.571 47.5394 274.183 36.9482 271.481 32.9057C268.7 28.9441 260.279 16.8168 257.339 12.6127C251.46 4.12353 234.298 -20.4545 229.929 -26.8416C227.625 -29.9947 222.063 -37.9179 220.792 -39.7774Z" fill="white"/>
<path d="M215.468 -35.9776C215.31 -36.2202 215.309 -36.6244 215.151 -36.7861C214.992 -37.0286 214.992 -37.4329 214.833 -37.5946C214.674 -37.8371 214.674 -38.1605 214.515 -38.3222C214.197 -38.8073 214.197 -39.2116 214.197 -39.2116C214.197 -39.2116 234.616 -12.3697 254.955 14.3912C275.294 41.1522 295.713 67.994 295.713 67.994C295.713 67.994 287.291 57.1603 282.842 51.3392C280.618 48.4286 272.434 37.8374 269.653 34.1992C266.873 30.561 257.498 18.5145 254.558 14.6338C248.599 6.87229 229.611 -17.6249 225.161 -23.446C222.937 -26.2757 216.74 -34.2798 215.468 -35.9776Z" fill="white"/>
<path d="M210.384 -31.8543C210.225 -32.0969 210.225 -32.4203 210.066 -32.6628C209.907 -32.9053 209.907 -33.2287 209.748 -33.4713C209.589 -33.7138 209.589 -34.0372 209.43 -34.1989C209.112 -34.6032 209.112 -35.0074 209.112 -35.0074C209.112 -35.0074 230.802 -9.21663 252.413 16.4933C274.103 42.2841 295.713 67.9941 295.713 67.9941C295.713 67.9941 286.576 57.322 282.048 51.986C279.823 49.318 270.845 38.8885 267.985 35.5737C265.125 32.2589 254.955 20.2932 251.936 16.8167C245.977 9.78286 225.082 -14.6335 220.633 -19.8887C218.408 -22.4758 211.655 -30.3182 210.384 -31.8543Z" fill="white"/>
<path d="M205.458 -27.5695C205.299 -27.7312 205.299 -28.1355 205.14 -28.2972C204.981 -28.4588 204.981 -28.8631 204.822 -29.0248C204.663 -29.1865 204.663 -29.5907 204.504 -29.6716C204.186 -30.0758 204.186 -30.4801 204.186 -30.4801C204.186 -30.4801 227.068 -5.82117 249.95 18.8377C272.831 43.4966 295.713 68.1555 295.713 68.1555C295.713 68.1555 285.782 57.6452 281.333 52.8751C279.108 50.5305 269.336 40.1818 266.555 37.1904C263.774 34.199 252.572 22.3951 249.632 19.242C243.673 12.9358 220.871 -11.1572 216.422 -15.9273C214.118 -18.3527 206.729 -26.1951 205.458 -27.5695Z" fill="white"/>
<path d="M200.77 -22.961C200.611 -23.1227 200.611 -23.5269 200.452 -23.6886C200.293 -23.8503 200.293 -24.2546 200.135 -24.4162C199.976 -24.5779 199.976 -24.9013 199.817 -25.063C199.499 -25.3864 199.499 -25.7907 199.499 -25.7907C199.499 -25.7907 223.493 -2.34451 247.566 21.1825C271.64 44.7095 295.634 68.1557 295.634 68.1557C295.634 68.1557 284.908 57.8879 280.538 53.6029C278.314 51.5008 267.747 41.3139 264.966 38.6459C262.265 35.9779 250.109 24.4165 247.169 21.5868C241.369 15.9273 216.581 -7.76138 212.211 -11.9655C210.066 -14.0676 202.041 -21.7482 200.77 -22.961Z" fill="white"/>
<path d="M196.321 -18.191C196.162 -18.3527 196.162 -18.7569 196.004 -18.8378C195.845 -18.9995 195.845 -19.4037 195.686 -19.4846C195.527 -19.6463 195.527 -19.9697 195.447 -20.1314C195.13 -20.4548 195.13 -20.859 195.13 -20.859C195.13 -20.859 220.236 1.37443 245.422 23.6079C270.607 45.8413 295.714 68.0747 295.714 68.0747C295.714 68.0747 284.193 58.0495 279.903 54.3304C277.758 52.4709 266.317 42.5265 263.616 40.1819C260.914 37.8373 247.885 26.5184 245.024 24.0121C239.304 18.9995 212.609 -4.1233 208.398 -7.84234C206.173 -9.62102 197.513 -17.0591 196.321 -18.191Z" fill="white"/>
<path d="M192.031 -13.1783C191.872 -13.34 191.872 -13.6634 191.713 -13.8251C191.554 -13.9868 191.554 -14.3102 191.395 -14.4719C191.236 -14.6336 191.236 -14.957 191.157 -15.0378C190.839 -15.2804 190.839 -15.6846 190.839 -15.6846C190.839 -15.6846 216.978 5.25524 243.197 26.2759C269.415 47.2966 295.554 68.2365 295.554 68.2365C295.554 68.2365 283.24 58.6155 279.108 55.3007C277.043 53.6837 264.728 44.0627 262.185 41.9606C259.643 39.8586 245.58 28.944 242.799 26.761C237.317 22.3952 208.636 6.00815e-05 204.504 -3.31474C202.518 -4.93172 193.223 -12.2081 192.031 -13.1783Z" fill="white"/>
<path d="M188.059 -7.84231C187.9 -7.92316 187.9 -8.32741 187.82 -8.48911C187.661 -8.56995 187.661 -8.97419 187.582 -9.13589C187.423 -9.21674 187.423 -9.62099 187.343 -9.70184C187.026 -9.94438 187.105 -10.3486 187.105 -10.3486C187.105 -10.3486 214.277 9.29765 241.449 28.9439C268.621 48.5902 295.793 68.2365 295.793 68.2365C295.793 68.2365 282.684 59.0197 278.711 56.19C276.725 54.7347 263.616 45.5179 261.153 43.7393C258.69 41.9606 243.753 31.4502 241.052 29.5099C235.808 25.71 205.22 4.20417 201.247 1.37446C199.182 2.86102e-05 189.171 -7.03382 188.059 -7.84231Z" fill="white"/>
<path d="M184.324 -2.4253C184.166 -2.50615 184.245 -2.91039 184.086 -2.99124C183.927 -3.07209 184.007 -3.47633 183.848 -3.55718C183.689 -3.63803 183.768 -4.04228 183.609 -4.12313C183.292 -4.28482 183.371 -4.76991 183.371 -4.76991C183.371 -4.76991 211.417 13.5019 239.542 31.6929C267.668 49.8839 295.714 68.1558 295.714 68.1558C295.714 68.1558 281.81 59.3432 278.076 56.9178C276.169 55.705 262.265 46.8925 259.882 45.3564C257.578 43.8203 241.687 33.795 239.145 32.178C234.14 28.9441 201.645 8.40845 197.91 5.98298C196.004 5.0128 185.357 -1.69766 184.324 -2.4253Z" fill="white"/>
<path d="M180.829 3.31493C180.67 3.23408 180.749 2.82983 180.59 2.74898C180.431 2.66813 180.511 2.26389 180.352 2.18304C180.193 2.10219 180.272 1.69795 180.113 1.69795C179.875 1.53625 179.875 1.132 179.875 1.132C179.875 1.132 208.795 17.9486 237.715 34.7651C266.635 51.5817 295.555 68.3983 295.555 68.3983C295.555 68.3983 280.856 60.1517 277.361 58.1305C275.613 57.1603 260.835 48.8328 258.69 47.5392C256.465 46.2457 239.701 36.7864 237.318 35.4119C232.63 32.7439 198.228 13.3402 194.732 11.319C193.064 10.1871 181.782 3.88087 180.829 3.31493Z" fill="white"/>
<path d="M177.571 9.2166C177.412 9.13575 177.491 8.73151 177.333 8.65066C177.174 8.56981 177.253 8.16556 177.094 8.08472C176.935 8.00387 177.015 7.59962 176.935 7.59962C176.697 7.43793 176.697 7.03368 176.776 7.03368C176.776 7.03368 206.491 22.395 236.205 37.6754C265.92 52.9558 295.634 68.3171 295.634 68.3171C295.634 68.3171 280.221 60.6365 276.963 58.9387C275.374 58.1302 259.802 50.3687 257.736 49.3176C255.67 48.2666 237.953 39.4541 235.808 38.3222C231.518 36.1393 195.209 18.0291 191.951 16.3313C190.362 15.6037 178.524 9.70169 177.571 9.2166Z" fill="white"/>
<path d="M174.631 15.2806C174.472 15.1997 174.552 14.7955 174.472 14.7146C174.313 14.6338 174.393 14.2295 174.313 14.1487C174.155 14.0678 174.234 13.6636 174.155 13.6636C173.916 13.5827 173.996 13.0976 173.996 13.0976C173.996 13.0976 204.425 26.9228 234.855 40.6671C265.284 54.4114 295.713 68.2366 295.713 68.2366C295.713 68.2366 279.585 61.2027 276.645 59.8283C275.136 59.1815 258.848 52.0668 257.021 51.1774C255.194 50.369 236.523 42.2032 234.616 41.3139C230.644 39.5352 192.508 22.8803 189.568 21.5868C187.979 21.1017 175.505 15.6848 174.631 15.2806Z" fill="white"/>
<path d="M172.01 21.5867C171.931 21.5058 171.931 21.1016 171.851 21.1016C171.772 21.0207 171.772 20.6165 171.692 20.6165C171.613 20.5356 171.613 20.1314 171.533 20.1314C171.295 20.0506 171.375 19.5655 171.375 19.5655C171.375 19.5655 202.44 31.7736 233.505 43.9818C264.57 56.19 295.635 68.3982 295.635 68.3982C295.635 68.3982 278.791 62.0111 276.169 61.0409C274.819 60.5558 257.737 54.0879 256.068 53.4411C254.4 52.7943 234.935 45.4371 233.187 44.7903C229.691 43.4159 189.728 28.378 187.106 27.4078C185.834 26.761 172.725 21.9101 172.01 21.5867Z" fill="white"/>
<path d="M169.626 28.0545C169.547 28.0545 169.547 27.5694 169.467 27.5694C169.388 27.5694 169.388 27.0843 169.308 27.0843C169.229 27.0843 169.229 26.5992 169.149 26.5992C168.991 26.5184 168.991 26.0333 168.991 26.0333C168.991 26.0333 200.612 36.6245 232.312 47.2157C263.934 57.8069 295.634 68.3981 295.634 68.3981C295.634 68.3981 278.076 62.8195 275.772 62.0919C274.659 61.6876 256.783 56.0282 255.353 55.5431C253.923 55.058 233.584 48.5901 232.074 48.105C228.976 47.1348 187.344 33.7948 185.04 33.0671C183.927 32.582 170.341 28.2162 169.626 28.0545Z" fill="white"/>
<path d="M167.64 34.6035C167.561 34.6035 167.64 34.1184 167.561 34.1184C167.481 34.1184 167.561 33.6333 167.481 33.6333C167.402 33.6333 167.402 33.1482 167.402 33.1482C167.243 33.0673 167.322 32.5823 167.322 32.5823C167.322 32.5823 199.42 41.5565 231.597 50.4499C263.695 59.4241 295.873 68.3175 295.873 68.3175C295.873 68.3175 277.679 63.5474 275.772 63.0623C274.818 62.8197 256.227 57.9688 255.035 57.6454C253.844 57.322 232.71 51.7434 231.359 51.42C228.737 50.6924 185.437 39.3736 183.451 38.8076C182.338 38.4842 168.196 34.7652 167.64 34.6035Z" fill="white"/>
<path d="M165.892 41.3947C165.813 41.3947 165.892 40.9096 165.813 40.9096C165.733 40.9096 165.813 40.4245 165.733 40.4245C165.654 40.4245 165.733 39.9394 165.654 39.9394C165.495 39.9394 165.574 39.3735 165.574 39.3735C165.574 39.3735 198.149 46.6499 230.644 53.8454C263.139 61.041 295.714 68.3174 295.714 68.3174C295.714 68.3174 276.963 64.4366 275.374 64.1132C274.58 63.9515 255.353 59.99 254.4 59.7474C253.446 59.5049 231.518 54.9773 230.485 54.8156C228.419 54.3305 183.45 45.1138 181.861 44.7095C181.067 44.5478 166.369 41.4756 165.892 41.3947Z" fill="white"/>
<path d="M164.541 48.2669C164.461 48.2669 164.541 47.7818 164.461 47.7818C164.382 47.7818 164.461 47.2967 164.382 47.2967C164.303 47.2967 164.382 46.8116 164.303 46.8116C164.223 46.8116 164.223 46.2456 164.223 46.2456C164.223 46.2456 197.115 51.7434 229.928 57.3219C262.821 62.8197 295.634 68.3982 295.634 68.3982C295.634 68.3982 276.248 65.4877 275.056 65.2451C274.421 65.1643 254.637 62.092 253.843 62.0112C253.048 61.9303 230.485 58.4538 229.69 58.2921C228.101 58.0496 181.702 50.9349 180.51 50.7732C180.113 50.6923 164.938 48.3477 164.541 48.2669Z" fill="white"/>
<path d="M163.508 55.3009V54.735V54.169V53.684C163.429 53.684 163.508 53.118 163.508 53.118C163.508 53.118 196.639 56.9179 229.69 60.7178C262.741 64.5177 295.872 68.3176 295.872 68.3176C295.872 68.3176 276.01 66.3772 275.215 66.2964C274.818 66.2155 254.399 64.2752 253.922 64.1943C253.446 64.1135 230.167 61.8497 229.611 61.7689C228.578 61.688 180.749 56.9179 179.954 56.8371C179.478 56.8371 163.747 55.3009 163.508 55.3009Z" fill="white"/>
<path d="M162.873 62.4154V61.8494V61.2835V60.7984V60.2324C162.873 60.2324 196.162 62.2537 229.373 64.2749C262.583 66.2961 295.872 68.3173 295.872 68.3982C295.872 68.3982 275.533 67.5088 275.136 67.428C274.898 67.428 254.002 66.4578 253.764 66.4578C253.525 66.4578 229.611 65.4068 229.373 65.3259C228.816 65.3259 179.796 63.0622 179.398 63.0622C179.081 63.143 163.032 62.4154 162.873 62.4154Z" fill="white"/>
<path d="M162.635 66.7814C162.635 66.7814 195.924 67.0239 229.293 67.3473C262.583 67.5899 295.952 67.9133 295.952 67.9133L229.293 68.4792L162.635 69.0452V68.4792V67.9133V66.7814Z" fill="white"/>
</g>
<path d="M141.898 67.9131C141.898 89.8231 124.419 107.61 102.888 107.61C81.3572 107.61 63.8781 89.8231 63.8781 67.9131C63.8781 46.003 81.3572 28.2163 102.888 28.2163C124.419 28.2163 141.898 46.003 141.898 67.9131ZM65.1493 67.9131C65.1493 89.0955 82.0722 106.316 102.888 106.316C123.704 106.316 140.627 89.0955 140.627 67.9131C140.627 46.7307 123.704 29.5099 102.888 29.5099C82.0722 29.5099 65.1493 46.7307 65.1493 67.9131Z" fill="white"/>
<path d="M136.654 67.9131C136.654 86.8317 121.479 102.274 102.888 102.274C84.2965 102.274 69.1215 86.8317 69.1215 67.9131C69.1215 48.9945 84.2965 33.5523 102.888 33.5523C121.559 33.5523 136.654 48.9945 136.654 67.9131ZM70.2338 67.9131C70.2338 86.2658 84.9321 101.142 102.888 101.142C120.844 101.142 135.542 86.1849 135.542 67.9131C135.542 49.6413 120.844 34.6842 102.888 34.6842C84.9321 34.6842 70.2338 49.5604 70.2338 67.9131Z" fill="white"/>
<path d="M131.411 67.9133C131.411 83.9213 118.619 96.938 102.888 96.938C87.1568 96.938 74.3653 83.9213 74.3653 67.9133C74.3653 51.9052 87.1568 38.8885 102.888 38.8885C118.619 38.8885 131.411 51.9052 131.411 67.9133ZM75.3187 67.9133C75.3187 83.3554 87.7129 95.9678 102.888 95.9678C118.063 95.9678 130.457 83.3554 130.457 67.9133C130.457 52.4711 118.142 39.8587 102.888 39.8587C87.6335 39.8587 75.3187 52.4711 75.3187 67.9133Z" fill="white"/>
<path d="M126.167 67.913C126.167 81.0105 115.759 91.6018 102.888 91.6018C90.0169 91.6018 79.6089 81.0105 79.6089 67.913C79.6089 54.8155 90.0169 44.2243 102.888 44.2243C115.759 44.2243 126.167 54.8964 126.167 67.913ZM80.4034 67.913C80.4034 80.5255 90.4936 90.7933 102.888 90.7933C115.282 90.7933 125.372 80.5255 125.372 67.913C125.372 55.3006 115.282 45.0328 102.888 45.0328C90.4936 45.0328 80.4034 55.3006 80.4034 67.913Z" fill="white"/>
<path d="M120.923 67.9132C120.923 78.0193 112.819 86.2659 102.888 86.2659C92.9566 86.2659 84.8527 78.0193 84.8527 67.9132C84.8527 57.8071 92.9566 49.5605 102.888 49.5605C112.819 49.5605 120.923 57.8071 120.923 67.9132ZM85.4883 67.9132C85.4883 77.6959 93.2744 85.6191 102.888 85.6191C112.501 85.6191 120.288 77.6959 120.288 67.9132C120.288 58.1305 112.501 50.2073 102.888 50.2073C93.2744 50.2073 85.4883 58.1305 85.4883 67.9132Z" fill="white"/>
<path d="M115.679 67.9134C115.679 75.1089 109.959 80.9301 102.888 80.9301C95.8165 80.9301 90.0961 75.1089 90.0961 67.9134C90.0961 60.7178 95.8165 54.8967 102.888 54.8967C109.959 54.8967 115.679 60.7987 115.679 67.9134ZM90.5728 67.9134C90.5728 74.7855 96.0549 80.445 102.888 80.445C109.641 80.445 115.202 74.8664 115.202 67.9134C115.202 61.0412 109.72 55.3818 102.888 55.3818C96.1343 55.3818 90.5728 61.0412 90.5728 67.9134Z" fill="white"/>
<path d="M110.436 67.9131C110.436 72.1173 107.099 75.5938 102.888 75.5938C98.7567 75.5938 95.3403 72.1981 95.3403 67.9131C95.3403 63.709 98.6772 60.2325 102.888 60.2325C107.02 60.3134 110.436 63.709 110.436 67.9131ZM95.6581 67.9131C95.6581 71.9556 98.9156 75.2704 102.888 75.2704C106.861 75.2704 110.118 71.9556 110.118 67.9131C110.118 63.8707 106.861 60.5559 102.888 60.5559C98.9156 60.5559 95.6581 63.8707 95.6581 67.9131Z" fill="white"/>
<path d="M105.192 67.9133C105.192 69.2069 104.159 70.258 102.888 70.258C101.617 70.258 100.584 69.2069 100.584 67.9133C100.584 66.6197 101.617 65.5687 102.888 65.5687C104.159 65.6496 105.192 66.6197 105.192 67.9133ZM100.743 67.9133C100.743 69.1261 101.696 70.0962 102.888 70.0962C104.08 70.0962 105.033 69.1261 105.033 67.9133C105.033 66.7006 104.08 65.7304 102.888 65.7304C101.696 65.8113 100.743 66.7814 100.743 67.9133Z" fill="white"/>
<path d="M43.1415 67.913C43.1415 80.0403 33.4485 89.823 21.6105 89.823C9.77238 89.823 0 80.0403 0 67.913C0 55.7856 9.69293 46.0029 21.531 46.0029C33.3691 46.0029 43.1415 55.8665 43.1415 67.913ZM0.1589 67.913C0.1589 79.9594 9.77238 89.6613 21.531 89.6613C33.2896 89.6613 42.9031 79.8786 42.9031 67.913C42.9031 55.9473 33.3691 46.1646 21.531 46.1646C9.69293 46.1646 0.1589 55.9473 0.1589 67.913Z" fill="white"/>
<path d="M39.4073 67.913C39.4073 77.9382 31.3828 86.0231 21.6104 86.0231C11.8381 86.0231 3.73413 77.9382 3.73413 67.913C3.73413 57.8877 11.7586 49.8028 21.531 49.8028C31.3034 49.8028 39.4073 57.9685 39.4073 67.913ZM4.13138 67.913C4.13138 77.6957 11.9175 85.6189 21.531 85.6189C31.1445 85.6189 38.9306 77.6957 38.9306 67.913C38.9306 58.1302 31.1445 50.2071 21.531 50.2071C11.9175 50.2071 4.13138 58.1302 4.13138 67.913Z" fill="white"/>
<path d="M35.6726 67.9131C35.6726 75.8363 29.396 82.2234 21.6099 82.2234C13.8237 82.2234 7.54718 75.8363 7.54718 67.9131C7.54718 59.9899 13.8237 53.6029 21.6099 53.6029C29.396 53.6029 35.6726 59.9899 35.6726 67.9131ZM8.10333 67.9131C8.10333 75.4321 14.1415 81.5766 21.5304 81.5766C28.9193 81.5766 34.9575 75.4321 34.9575 67.9131C34.9575 60.3942 28.9193 54.2497 21.5304 54.2497C14.1415 54.2497 8.10333 60.3942 8.10333 67.9131Z" fill="white"/>
<path d="M31.8589 67.9133C31.8589 73.7344 27.2508 78.4236 21.5304 78.4236C15.81 78.4236 11.2018 73.7344 11.2018 67.9133C11.2018 62.0922 15.81 57.4029 21.5304 57.4029C27.2508 57.4029 31.8589 62.0922 31.8589 67.9133ZM12.1552 67.9133C12.1552 73.1685 16.3661 77.5343 21.6098 77.5343C26.8535 77.5343 30.9849 73.2493 30.9849 67.9133C30.9849 62.6581 26.7741 58.2923 21.5304 58.2923C16.2867 58.2923 12.1552 62.6581 12.1552 67.9133Z" fill="white"/>
<path d="M28.1253 67.9132C28.1253 71.6323 25.1857 74.6237 21.531 74.6237C17.8762 74.6237 14.9366 71.6323 14.9366 67.9132C14.9366 64.1942 17.8762 61.2028 21.531 61.2028C25.1857 61.2028 28.1253 64.1942 28.1253 67.9132ZM16.1283 67.9132C16.1283 70.9855 18.5913 73.4109 21.531 73.4109C24.5501 73.4109 26.9336 70.9046 26.9336 67.9132C26.9336 64.841 24.4706 62.4155 21.531 62.4155C18.5913 62.4155 16.1283 64.841 16.1283 67.9132Z" fill="white"/>
<path d="M24.3911 67.9131C24.3911 69.5301 23.1199 70.8237 21.5309 70.8237C19.9419 70.8237 18.6707 69.5301 18.6707 67.9131C18.6707 66.2962 19.9419 65.0026 21.5309 65.0026C23.1199 65.0026 24.3911 66.2962 24.3911 67.9131ZM20.1008 67.9131C20.1008 68.7216 20.7364 69.3684 21.5309 69.3684C22.3254 69.3684 22.961 68.7216 22.961 67.9131C22.961 67.1047 22.3254 66.4579 21.5309 66.4579C20.7364 66.4579 20.1008 67.1047 20.1008 67.9131Z" fill="white"/>
</svg>
