<svg width="363" height="136" viewBox="0 0 363 136" fill="none" xmlns="http://www.w3.org/2000/svg">
<path d="M-8.56156e-05 68.0867C-8.40323e-05 49.9765 6.91207 32.9174 19.5447 20.0625C32.1772 7.20748 48.8618 0.173638 66.7381 0.173639C84.535 0.173641 101.299 7.20749 113.932 20.0625C126.564 32.9174 133.476 49.8957 133.476 68.0867C133.476 86.1968 126.564 103.256 113.932 116.111C101.299 128.966 84.6144 136 66.7381 136C48.9412 136 32.1772 128.966 19.5446 116.111C6.91207 103.256 -8.71988e-05 86.1968 -8.56156e-05 68.0867ZM133.238 68.0867C133.238 49.9765 126.326 32.9983 113.773 20.2242C101.219 7.45004 84.4555 0.416194 66.7381 0.416193C49.0207 0.416191 32.2567 7.45003 19.7036 20.2242C7.15043 32.9983 0.238258 50.0574 0.238257 68.0867C0.238255 86.116 7.15042 103.175 19.7036 115.949C32.1772 128.723 48.8618 135.757 66.6586 135.757C84.4555 135.757 101.14 128.723 113.693 115.949C126.246 103.175 133.238 86.1968 133.238 68.0867Z" fill="white"/>
<path d="M4.76649 68.0865C4.76649 33.3215 32.5741 5.02441 66.7376 5.02441C100.901 5.02441 128.709 33.3215 128.709 68.0865C128.709 102.852 100.901 131.149 66.7376 131.149C32.5741 131.149 4.76648 102.852 4.76649 68.0865ZM128.391 68.0865C128.391 33.4832 100.742 5.34781 66.7376 5.3478C32.733 5.3478 5.08428 33.4832 5.08428 68.0865C5.08428 102.69 32.7329 130.825 66.7376 130.825C100.742 130.825 128.391 102.69 128.391 68.0865Z" fill="white"/>
<path d="M9.53399 68.0867C9.53399 35.9897 35.1964 9.87555 66.7381 9.87555C98.2799 9.87555 123.942 35.9897 123.942 68.0867C123.942 100.184 98.2799 126.298 66.7381 126.298C35.1964 126.298 9.53399 100.184 9.53399 68.0867ZM123.466 68.0867C123.466 36.2323 97.9621 10.2798 66.6587 10.2798C35.3553 10.2798 9.8518 36.2323 9.85179 68.0867C9.85179 99.9412 35.3553 125.894 66.6587 125.894C97.9621 125.894 123.466 99.9412 123.466 68.0867Z" fill="white"/>
<path d="M14.3009 68.0867C14.3009 38.6577 37.8182 14.7264 66.7381 14.7264C95.658 14.7264 119.175 38.6577 119.175 68.0867C119.175 97.5157 95.6579 121.447 66.7381 121.447C37.8182 121.447 14.3009 97.4348 14.3009 68.0867ZM118.619 68.0867C118.619 38.9002 95.3401 15.2115 66.6586 15.2115C37.9771 15.2115 14.6982 38.9002 14.6982 68.0867C14.6982 97.2731 37.9771 120.962 66.6586 120.962C95.3401 120.962 118.619 97.1923 118.619 68.0867Z" fill="white"/>
<path d="M19.0681 68.0864C19.0681 41.3254 40.4402 19.5771 66.7382 19.5771C93.0362 19.5771 114.408 41.3254 114.408 68.0864C114.408 94.8474 93.0362 116.596 66.7382 116.596C40.4402 116.596 19.0681 94.7665 19.0681 68.0864ZM113.773 68.0864C113.773 41.6488 92.639 20.143 66.6588 20.143C40.6785 20.143 19.5448 41.6488 19.5448 68.0864C19.5448 94.524 40.6785 116.03 66.6587 116.03C92.639 116.03 113.773 94.524 113.773 68.0864Z" fill="white"/>
<path d="M23.835 68.0866C23.835 43.9936 43.062 24.4282 66.7381 24.4282C90.4143 24.4282 109.641 43.9936 109.641 68.0866C109.641 92.1795 90.4143 111.745 66.7381 111.745C43.0619 111.745 23.835 92.0987 23.835 68.0866ZM108.926 68.0866C108.926 44.3979 90.017 25.075 66.6587 25.075C43.3003 25.075 24.3911 44.317 24.3911 68.0866C24.3911 91.8561 43.3003 111.098 66.6586 111.098C90.017 111.098 108.926 91.7753 108.926 68.0866Z" fill="white"/>
<path d="M28.6015 68.0865C28.6015 46.7424 45.6833 29.2791 66.7376 29.2791C87.7919 29.2791 104.874 46.6616 104.874 68.0865C104.874 89.5115 87.7919 106.894 66.7376 106.894C45.6833 106.894 28.6015 89.4306 28.6015 68.0865ZM104.079 68.0865C104.079 47.1467 87.3152 30.0876 66.7376 30.0876C46.16 30.0876 29.396 47.1467 29.396 68.0865C29.396 89.0264 46.16 106.085 66.7376 106.085C87.3152 106.085 104.079 89.0264 104.079 68.0865Z" fill="white"/>
<path d="M33.3686 68.0867C33.3686 49.4106 48.3053 34.1302 66.7377 34.1302C85.1702 34.1302 100.107 49.3298 100.107 68.0867C100.107 86.8436 85.1702 102.043 66.7377 102.043C48.3053 102.043 33.3686 86.7628 33.3686 68.0867ZM99.1534 68.0867C99.1534 49.8148 84.5346 35.0195 66.6583 35.0195C48.782 35.0195 34.1631 49.8957 34.1631 68.0867C34.1631 86.2777 48.782 101.154 66.6583 101.154C84.5346 101.154 99.1534 86.2777 99.1534 68.0867Z" fill="white"/>
<path d="M38.136 68.0866C38.136 52.0786 50.9275 38.9811 66.7381 38.9811C82.5486 38.9811 95.3401 51.9977 95.3401 68.0866C95.3401 84.1756 82.5486 97.1922 66.7381 97.1922C50.9275 97.1922 38.136 84.0947 38.136 68.0866ZM94.3073 68.0866C94.3073 52.5637 81.913 39.9512 66.6586 39.9512C51.4042 39.9512 39.0099 52.5637 39.0099 68.0866C39.0099 83.6096 51.4042 96.222 66.6586 96.222C81.913 96.222 94.3073 83.6096 94.3073 68.0866Z" fill="white"/>
<path d="M42.9031 68.0866C42.9031 54.7465 53.5494 43.8319 66.7382 43.8319C79.9269 43.8319 90.5732 54.6657 90.5732 68.0866C90.5732 81.5075 79.9269 92.3413 66.7382 92.3412C53.5494 92.3412 42.9031 81.4266 42.9031 68.0866ZM89.4609 68.0866C89.4609 55.3125 79.2119 44.883 66.6587 44.883C54.1056 44.883 43.8565 55.3125 43.8565 68.0866C43.8565 80.8607 54.1056 91.2902 66.6587 91.2902C79.2119 91.2902 89.4609 80.8607 89.4609 68.0866Z" fill="white"/>
<path d="M47.67 68.0863C47.67 57.4143 56.1712 48.6826 66.7381 48.6826C77.305 48.6826 85.8061 57.3334 85.8061 68.0863C85.8061 78.7584 77.305 87.49 66.7381 87.49C56.1712 87.49 47.67 78.7584 47.67 68.0863ZM84.6144 68.0863C84.6144 58.0611 76.5899 49.8145 66.6586 49.8145C56.8068 49.8145 48.7029 57.9802 48.7029 68.0863C48.7029 78.1924 56.7273 86.3581 66.6586 86.3582C76.5899 86.2773 84.6144 78.1116 84.6144 68.0863Z" fill="white"/>
<path d="M52.4372 68.0865C52.4372 60.0825 58.8726 53.5337 66.7382 53.5337C74.6038 53.5337 81.0392 60.0825 81.0392 68.0865C81.0392 76.0905 74.6038 82.6393 66.7382 82.6393C58.8726 82.6393 52.4372 76.0905 52.4372 68.0865ZM79.768 68.0865C79.768 60.7292 73.8887 54.8273 66.7382 54.8273C59.5877 54.8273 53.7083 60.8101 53.7083 68.0865C53.7083 75.4437 59.5877 81.3457 66.7382 81.3457C73.8887 81.3457 79.768 75.3629 79.768 68.0865Z" fill="white"/>
<path d="M57.2041 68.0867C57.2041 62.7506 61.4944 58.3848 66.7381 58.3848C71.9818 58.3848 76.2721 62.7506 76.2721 68.0867C76.2721 73.4227 71.9818 77.7885 66.7381 77.7885C61.4944 77.7885 57.2041 73.4227 57.2041 68.0867ZM74.842 68.0867C74.842 63.4783 71.1873 59.7592 66.6586 59.7592C62.13 59.7592 58.4753 63.4783 58.4753 68.0867C58.4753 72.695 62.13 76.4141 66.6586 76.4141C71.1873 76.4141 74.842 72.695 74.842 68.0867Z" fill="white"/>
<path d="M61.9712 68.0866C61.9712 65.4186 64.1164 63.2357 66.7382 63.2357C69.3601 63.2357 71.5052 65.4186 71.5052 68.0866C71.5052 70.7546 69.3601 72.9375 66.7382 72.9375C64.1164 72.9375 61.9712 70.7546 61.9712 68.0866ZM69.9957 68.0866C69.9957 66.2271 68.4861 64.691 66.6588 64.691C64.8314 64.691 63.3219 66.2271 63.3219 68.0866C63.3219 69.9461 64.8314 71.4823 66.6588 71.4823C68.4861 71.4823 69.9957 69.9461 69.9957 68.0866Z" fill="white"/>
<mask id="mask0_1_208" style="mask-type:alpha" maskUnits="userSpaceOnUse" x="66" y="0" width="134" height="136">
<path d="M133.317 0.254106C96.5023 0.254103 66.6581 30.6236 66.6581 68.0863C66.6581 105.549 96.5023 135.919 133.317 135.919C170.131 135.919 199.976 105.549 199.976 68.0863C199.976 30.6236 170.131 0.25411 133.317 0.254106Z" fill="white"/>
</mask>
<g mask="url(#mask0_1_208)">
<path d="M73.332 -61.7567C73.332 -62.2418 73.4115 -62.7269 73.4115 -63.212C73.4115 -63.6971 73.4909 -64.1822 73.4909 -64.6673C73.4909 -65.1524 73.5704 -65.6375 73.5704 -65.9609C73.6498 -66.9311 73.6498 -67.4162 73.6498 -67.4162C73.6498 -67.4162 71.9019 -33.5405 70.154 0.254313C68.4061 34.0491 66.6582 67.9248 66.6582 67.9248C66.6582 67.9248 67.0554 59.4357 67.7705 46.7424C68.0883 40.3554 68.4855 32.9981 68.8828 25.0749C69.28 17.1517 69.7567 8.6626 70.154 0.173472C71.028 -16.8048 71.9019 -33.783 72.5375 -46.5572C72.9348 -52.7825 73.1731 -58.1185 73.332 -61.7567Z" fill="white"/>
<path d="M80.0059 -61.3526C80.0853 -61.8377 80.1648 -62.3228 80.1648 -62.7271C80.2442 -63.2122 80.3237 -63.6973 80.3237 -64.1015C80.4031 -64.5866 80.4826 -64.9908 80.4826 -65.3951C80.562 -66.2844 80.6415 -66.7695 80.6415 -66.7695C80.6415 -66.7695 77.1456 -33.0555 73.6498 0.658446C70.154 34.3724 66.6582 68.0864 66.6582 68.0864C66.6582 68.0864 67.5322 59.6781 68.8034 46.9849C69.439 40.6786 70.2335 33.3214 71.028 25.3982C71.8225 17.475 72.6964 9.06673 73.5704 0.658446C75.3183 -16.3198 77.0662 -33.2981 78.3374 -45.9913C79.1319 -52.6209 79.6881 -57.957 80.0059 -61.3526Z" fill="white"/>
<path d="M86.6008 -60.7059C86.6802 -61.191 86.7597 -61.5952 86.8391 -61.9995C86.9186 -62.4845 86.998 -62.8888 87.0775 -63.293C87.1569 -63.7781 87.2364 -64.1824 87.3158 -64.5058C87.4747 -65.3951 87.5542 -65.8802 87.5542 -65.8802C87.5542 -65.8802 82.3104 -32.4088 77.1462 1.06265C71.9025 34.5341 66.7382 68.0055 66.7382 68.0055C66.7382 68.0055 68.0094 59.5972 69.9957 47.0657C70.9491 40.7594 72.0614 33.483 73.3326 25.6407C74.5243 17.7984 75.7955 9.39009 77.1462 1.06265C79.768 -15.9156 82.3899 -32.813 84.2967 -45.4254C85.2501 -52.055 86.1241 -57.3911 86.6008 -60.7059Z" fill="white"/>
<path d="M93.1153 -59.6548C93.1947 -60.1399 93.3536 -60.5441 93.4331 -60.8675C93.5125 -61.3526 93.6714 -61.7569 93.7509 -62.0803C93.8303 -62.4845 93.9892 -62.8887 94.0687 -63.2121C94.2276 -64.0206 94.3865 -64.5057 94.3865 -64.5057C94.3865 -64.5057 87.4743 -31.3577 80.5621 1.79035C73.65 34.9384 66.7378 68.0864 66.7378 68.0864C66.7378 68.0864 68.4857 59.759 71.0281 47.3891C72.2993 41.1637 73.8089 33.8873 75.3979 26.1258C76.9869 18.3644 78.7348 10.0369 80.4032 1.70949C83.899 -15.1071 87.3948 -32.0045 89.9373 -44.4552C91.3674 -51.1657 92.4797 -56.5017 93.1153 -59.6548Z" fill="white"/>
<path d="M99.471 -58.3612C99.5505 -58.7655 99.7888 -59.1697 99.8683 -59.4931C99.9477 -59.8973 100.186 -60.3016 100.266 -60.625C100.345 -61.0292 100.583 -61.4335 100.663 -61.676C100.901 -62.4845 101.06 -62.8888 101.06 -62.8888C101.06 -62.8888 92.4794 -30.145 83.8193 2.59884C75.2387 35.3426 66.5786 68.0864 66.5786 68.0864C66.5786 68.0864 68.7238 59.9207 71.9018 47.6316C73.4908 41.4871 75.3976 34.2916 77.3838 26.6109C79.3701 18.9303 81.5153 10.7646 83.6604 2.51798C88.0302 -14.2177 92.3205 -30.8726 95.5779 -43.2425C97.3259 -50.0338 98.6765 -55.3698 99.471 -58.3612Z" fill="white"/>
<path d="M105.748 -56.6634C105.907 -57.0677 106.065 -57.3911 106.224 -57.7953C106.383 -58.1996 106.542 -58.523 106.701 -58.8464C106.86 -59.2506 107.019 -59.574 107.098 -59.8974C107.337 -60.625 107.575 -61.0293 107.575 -61.0293C107.575 -61.0293 97.3259 -28.7706 87.0768 3.48811C76.8277 35.7468 66.5787 68.0055 66.5787 68.0055C66.5787 68.0055 69.1211 59.9206 72.9347 47.7933C74.8415 41.7296 77.0661 34.6958 79.4496 27.096C81.8331 19.4962 84.3755 11.4113 86.9179 3.32641C92.0822 -13.1667 97.3259 -29.7408 101.139 -41.8681C103.205 -48.5786 104.874 -53.8337 105.748 -56.6634Z" fill="white"/>
<path d="M111.945 -54.6422C112.104 -55.0464 112.342 -55.3698 112.422 -55.6932C112.581 -56.0975 112.819 -56.4209 112.899 -56.7443C113.057 -57.1485 113.296 -57.3911 113.375 -57.7144C113.614 -58.4421 113.931 -58.7655 113.931 -58.7655C113.931 -58.7655 102.093 -27.0727 90.1758 4.62001C78.3377 36.3128 66.4201 68.0055 66.4201 68.0055C66.4201 68.0055 69.3598 60.0823 73.7296 48.1975C75.9542 42.2147 78.4966 35.3426 81.2773 27.9045C84.0581 20.4664 86.9977 12.5432 89.9374 4.62001C95.9756 -11.7115 102.014 -27.9621 106.463 -39.9277C109.005 -46.7999 110.912 -51.9742 111.945 -54.6422Z" fill="white"/>
<path d="M117.983 -52.3784C118.142 -52.7018 118.38 -53.0252 118.539 -53.3486C118.698 -53.6719 118.937 -53.9954 119.095 -54.3187C119.254 -54.6421 119.493 -54.9655 119.652 -55.2081C119.969 -55.8549 120.208 -56.1783 120.208 -56.1783C120.208 -56.1783 106.781 -25.1323 93.3536 5.83282C79.9265 36.8788 66.4994 67.8439 66.4994 67.8439C66.4994 67.8439 69.8363 60.0824 74.8417 48.4402C77.3046 42.6191 80.2443 35.8278 83.3429 28.5513C86.4414 21.275 89.7783 13.5135 93.1152 5.67113C99.948 -10.337 106.86 -26.4259 111.865 -38.149C114.726 -44.6977 116.95 -49.8721 117.983 -52.3784Z" fill="white"/>
<path d="M123.942 -49.7912C124.101 -50.1146 124.419 -50.3571 124.577 -50.6805C124.736 -51.0039 125.054 -51.2465 125.213 -51.5699C125.372 -51.8933 125.61 -52.1358 125.769 -52.3784C126.087 -53.0252 126.405 -53.2677 126.405 -53.2677C126.405 -53.2677 111.468 -22.9494 96.5315 7.28811C81.5949 37.6064 66.6582 67.8439 66.6582 67.8439C66.6582 67.8439 70.3924 60.2441 75.9539 48.8444C78.7347 43.185 81.9921 36.5554 85.4085 29.4407C88.9043 22.326 92.559 14.7262 96.2932 7.12641C103.92 -8.55827 111.627 -24.3238 117.189 -35.8043C120.287 -42.3531 122.75 -47.4466 123.942 -49.7912Z" fill="white"/>
<path d="M129.662 -46.9615C129.821 -47.2849 130.139 -47.4466 130.298 -47.77C130.457 -48.0934 130.775 -48.2551 130.934 -48.5785C131.092 -48.9019 131.41 -49.0636 131.49 -49.3061C131.808 -49.8721 132.125 -50.1146 132.125 -50.1146C132.125 -50.1146 115.679 -20.6048 99.2329 8.82419C82.7867 38.2532 66.3406 67.763 66.3406 67.763C66.3406 67.763 70.3925 60.4058 76.5102 49.2486C79.5293 43.67 83.1045 37.2021 86.9182 30.33C90.7318 23.377 94.7837 16.0197 98.9151 8.58164C107.337 -6.77964 115.838 -22.1409 121.956 -33.3789C125.769 -39.766 128.471 -44.7786 129.662 -46.9615Z" fill="white"/>
<path d="M135.303 -43.8084C135.462 -44.1318 135.78 -44.2934 135.939 -44.536C136.098 -44.8594 136.416 -45.0211 136.575 -45.2636C136.733 -45.587 137.051 -45.6679 137.21 -45.9104C137.528 -46.4764 137.925 -46.6381 137.925 -46.6381C137.925 -46.6381 120.049 -18.0176 102.173 10.6029C84.2963 39.2234 66.42 67.8439 66.42 67.8439C66.42 67.8439 70.8693 60.6484 77.4636 49.8955C80.8005 44.4786 84.6141 38.2532 88.825 31.5428C92.9564 24.8323 97.4056 17.6368 101.855 10.4412C111.071 -4.51582 120.287 -19.5537 127.041 -30.3874C131.013 -36.9362 134.032 -41.7871 135.303 -43.8084Z" fill="white"/>
<path d="M140.706 -40.3319C140.865 -40.5745 141.262 -40.7362 141.421 -40.9787C141.58 -41.2213 141.977 -41.383 142.136 -41.6255C142.295 -41.868 142.613 -42.0298 142.772 -42.1915C143.09 -42.6765 143.487 -42.8382 143.487 -42.8382C143.487 -42.8382 124.26 -15.1879 104.953 12.4624C85.7265 40.1127 66.4995 67.763 66.4201 67.763C66.4201 67.763 71.1871 60.81 78.3376 50.3805C81.9129 45.2062 86.0443 39.0617 90.5729 32.5937C95.0222 26.045 99.7891 19.092 104.556 12.139C114.567 -2.4138 124.498 -16.9666 131.728 -27.4769C136.177 -33.7832 139.435 -38.4724 140.706 -40.3319Z" fill="white"/>
<path d="M145.95 -36.6937C146.109 -36.9362 146.506 -37.0171 146.665 -37.2596C146.824 -37.5022 147.221 -37.583 147.38 -37.8256C147.539 -38.0681 147.857 -38.1489 148.016 -38.3106C148.334 -38.7957 148.731 -38.8766 148.731 -38.8766C148.731 -38.8766 128.153 -12.1965 107.576 14.4837C86.9982 41.1638 66.4205 67.8439 66.4205 67.8439C66.4205 67.8439 71.5054 61.1335 79.1326 51.1082C82.9462 46.0956 87.3954 40.1936 92.1624 33.9682C96.9294 27.662 102.014 20.9516 107.179 14.2411C117.904 0.173409 128.63 -13.9751 136.337 -24.0813C141.183 -30.3875 144.679 -34.9958 145.95 -36.6937Z" fill="white"/>
<path d="M151.035 -32.7321C151.194 -32.9746 151.591 -32.9746 151.75 -33.2172C151.909 -33.4597 152.306 -33.4597 152.465 -33.6214C152.624 -33.864 152.941 -33.864 153.1 -34.0257C153.418 -34.4299 153.815 -34.5108 153.815 -34.5108C153.815 -34.5108 131.967 -8.88167 110.118 16.6666C88.269 42.2148 66.4202 67.8439 66.4202 67.8439C66.4202 67.8439 71.8228 61.376 79.9267 51.755C83.9787 46.9041 88.7457 41.3255 93.7511 35.2618C98.8359 29.1981 104.238 22.7302 109.641 16.3432C121.082 2.76057 132.523 -10.822 140.706 -20.6047C146.029 -26.7493 149.763 -31.1959 151.035 -32.7321Z" fill="white"/>
<path d="M155.961 -28.5279C156.119 -28.6896 156.517 -28.6896 156.676 -28.9321C156.834 -29.0938 157.232 -29.0938 157.391 -29.2555C157.55 -29.4172 157.947 -29.4172 158.026 -29.5789C158.344 -29.9832 158.741 -29.9832 158.741 -29.9023C158.741 -29.9023 135.701 -5.4051 112.581 19.0113C89.5401 43.5085 66.4201 67.9248 66.4201 67.9248C66.4201 67.9248 72.1405 61.7803 80.7211 52.5635C85.0115 47.9551 90.0168 42.5383 95.34 36.798C100.743 30.9769 106.463 24.8324 112.183 18.6878C124.26 5.67118 136.416 -7.42635 145.076 -16.8048C150.637 -22.8685 154.61 -27.1535 155.961 -28.5279Z" fill="white"/>
<path d="M160.569 -24.0813C160.728 -24.243 161.125 -24.243 161.284 -24.3238C161.443 -24.4855 161.84 -24.4855 161.999 -24.5664C162.158 -24.7281 162.475 -24.7281 162.634 -24.8089C162.952 -25.1323 163.349 -25.0515 163.349 -25.0515C163.349 -25.0515 139.117 -1.76701 114.885 21.5175C90.6525 44.8019 66.4201 68.0864 66.4201 68.0864C66.4201 68.0864 72.4584 62.1844 81.4363 53.4528C85.9649 49.0869 91.2086 43.9126 96.7701 38.4149C102.411 32.9172 108.449 27.0152 114.408 21.1132C127.2 8.66249 139.912 -3.86909 149.048 -12.7625C155.087 -18.7453 159.297 -22.8686 160.569 -24.0813Z" fill="white"/>
<path d="M165.097 -19.3921C165.256 -19.5538 165.654 -19.473 165.812 -19.6347C165.971 -19.7964 166.369 -19.7155 166.528 -19.7963C166.686 -19.958 167.004 -19.8772 167.163 -19.9581C167.481 -20.2814 167.878 -20.1197 167.878 -20.1197C167.878 -20.1197 142.534 1.87114 117.189 23.9429C91.8443 46.0146 66.4997 68.0055 66.4997 68.0055C66.4997 68.0055 72.7763 62.4269 82.2308 54.0995C86.9184 49.8954 92.4005 45.0444 98.2798 39.8701C104.159 34.6149 110.436 29.0364 116.792 23.4578C130.219 11.573 143.566 -0.311785 153.18 -8.72007C159.377 -14.3795 163.826 -18.3411 165.097 -19.3921Z" fill="white"/>
<path d="M169.308 -14.5411C169.467 -14.7028 169.864 -14.5411 170.023 -14.7028C170.182 -14.8645 170.579 -14.7028 170.659 -14.8645C170.818 -15.0262 171.135 -14.8645 171.294 -14.9454C171.612 -15.1879 172.009 -15.0262 172.009 -15.0262C172.009 -15.0262 145.632 5.67108 119.254 26.3684C92.8769 47.0657 66.4995 67.763 66.4995 67.763C66.4995 67.763 73.0144 62.5078 82.8662 54.6655C87.7921 50.7039 93.5126 46.1764 99.6302 41.2446C105.748 36.3128 112.342 31.0576 118.857 25.8024C132.84 14.5645 146.903 3.32646 156.834 -4.67758C163.429 -9.8519 168.116 -13.5709 169.308 -14.5411Z" fill="white"/>
<path d="M173.36 -9.36674C173.519 -9.44759 173.836 -9.2859 173.995 -9.4476C174.154 -9.52845 174.472 -9.36675 174.631 -9.52845C174.79 -9.6093 175.108 -9.52843 175.267 -9.60928C175.584 -9.85183 175.982 -9.60928 175.982 -9.60928C175.982 -9.60928 148.651 9.71359 121.32 29.1173C93.989 48.521 66.6581 67.8439 66.6581 67.8439C66.6581 67.8439 73.4114 62.9121 83.6605 55.5549C88.7453 51.9167 94.704 47.5508 101.06 43.0233C107.416 38.4149 114.249 33.4831 121.082 28.5514C135.7 17.9602 150.24 7.44982 160.568 -0.0691282C167.322 -5.08175 172.168 -8.55826 173.36 -9.36674Z" fill="white"/>
<path d="M177.094 -4.03072C177.253 -4.11157 177.571 -3.94987 177.73 -4.03072C177.889 -4.11157 178.207 -3.94987 178.366 -4.03072C178.524 -4.11157 178.842 -3.94987 178.922 -4.03072C179.24 -4.19242 179.557 -3.94986 179.557 -3.94986C179.557 -3.94986 151.273 13.9986 122.989 31.947C94.7045 49.8955 66.4202 67.8439 66.4202 67.8439C66.4202 67.8439 73.4118 63.3164 83.9787 56.4442C89.2224 53.0486 95.3401 49.0061 101.934 44.802C108.529 40.517 115.6 35.9086 122.592 31.3811C137.767 21.5175 152.862 11.6539 163.588 4.70095C170.977 0.0117135 175.982 -3.30308 177.094 -4.03072Z" fill="white"/>
<path d="M180.669 1.70942C180.828 1.62857 181.146 1.87112 181.226 1.79028C181.384 1.70943 181.702 1.95197 181.782 1.87112C181.941 1.79027 182.179 2.03281 182.338 1.95197C182.576 1.79027 182.973 2.03282 182.973 2.03282C182.973 2.03282 153.895 18.526 124.736 35.0192C95.5783 51.5123 66.4995 68.0055 66.4995 68.0055C66.4995 68.0055 73.7294 63.8014 84.5347 57.4951C89.9373 54.342 96.2933 50.7038 103.047 46.7422C109.879 42.7806 117.109 38.5765 124.339 34.3724C139.991 25.2365 155.643 16.1814 166.686 9.79431C174.393 5.26677 179.637 2.27536 180.669 1.70942Z" fill="white"/>
<path d="M183.927 7.53055C184.086 7.4497 184.324 7.77311 184.483 7.69226C184.642 7.61141 184.88 7.9348 185.039 7.85395C185.198 7.7731 185.436 8.01565 185.516 8.01565C185.754 7.85395 186.072 8.17734 186.072 8.17734C186.072 8.17734 156.199 23.1344 126.325 38.0914C96.4521 53.0485 66.5788 68.0055 66.5788 68.0055C66.5788 68.0055 73.9677 64.2056 85.1701 58.4653C90.7317 55.6356 97.2466 52.24 104.159 48.6826C111.15 45.0444 118.619 41.2445 126.008 37.3638C142.136 29.0364 158.264 20.7089 169.626 14.8878C177.571 10.8454 182.973 8.01564 183.927 7.53055Z" fill="white"/>
<path d="M186.946 13.5946C187.105 13.5138 187.343 13.8372 187.423 13.8372C187.582 13.7563 187.82 14.0797 187.9 14.0797C188.058 13.9989 188.297 14.3223 188.376 14.3223C188.615 14.2414 188.932 14.5648 188.932 14.5648C188.932 14.5648 158.344 27.9857 127.756 41.4066C97.1674 54.8275 66.579 68.2484 66.579 68.2484C66.579 68.2484 74.2063 64.772 85.5676 59.5976C91.2881 57.0105 97.8824 54.019 105.033 50.7851C112.183 47.5511 119.811 44.0746 127.438 40.5981C144.043 33.0792 160.648 25.5602 172.248 20.3051C180.511 16.5052 186.072 13.9989 186.946 13.5946Z" fill="white"/>
<path d="M189.647 19.9004C189.727 19.8196 190.045 20.2238 190.124 20.2238C190.203 20.143 190.521 20.5472 190.601 20.5472C190.68 20.4664 190.919 20.8706 190.998 20.7898C191.236 20.7089 191.475 21.1132 191.475 21.1132C191.475 21.1132 160.251 32.9171 129.027 44.721C97.8029 56.525 66.5789 68.3289 66.5789 68.3289C66.5789 68.3289 74.3651 65.2566 85.9648 60.7291C91.7647 58.4653 98.5974 55.7973 105.827 52.8868C113.137 50.0571 120.923 46.9848 128.709 43.9125C145.711 37.2021 162.714 30.5725 174.631 25.8833C183.132 22.4068 188.853 20.143 189.647 19.9004Z" fill="white"/>
<path d="M192.11 26.2879C192.19 26.2879 192.428 26.6921 192.508 26.6113C192.587 26.6113 192.825 27.0155 192.905 26.9347C192.984 26.9347 193.223 27.2581 193.302 27.2581C193.461 27.1772 193.699 27.6623 193.699 27.6623C193.699 27.6623 161.919 37.8493 130.139 47.9554C98.3592 58.1423 66.5791 68.2484 66.5791 68.2484C66.5791 68.2484 74.5241 65.5804 86.3622 61.6188C92.321 59.5976 99.1537 57.3338 106.622 54.8275C114.09 52.3212 121.956 49.6532 129.901 47.0661C147.301 41.2449 164.621 35.4238 176.777 31.3814C185.516 28.4708 191.395 26.5304 192.11 26.2879Z" fill="white"/>
<path d="M194.176 32.8363C194.255 32.8363 194.414 33.2405 194.494 33.2405C194.573 33.2405 194.732 33.6448 194.812 33.6448C194.891 33.6448 195.05 34.049 195.129 33.9682C195.288 33.8873 195.527 34.3724 195.527 34.3724C195.527 34.3724 163.27 42.8615 131.013 51.3507C98.7564 59.8398 66.4996 68.3289 66.4996 68.3289C66.4996 68.3289 74.524 66.0651 86.6005 62.7503C92.6387 61.0525 99.6303 59.1121 107.099 57.0101C114.646 54.908 122.671 52.6442 130.775 50.4613C148.492 45.5295 166.21 40.5978 178.524 37.2021C187.661 34.6958 193.62 32.998 194.176 32.8363Z" fill="white"/>
<path d="M196.003 39.547C196.083 39.547 196.242 40.0321 196.321 39.9513C196.4 39.9513 196.559 40.4364 196.639 40.3555C196.718 40.3555 196.877 40.7597 196.877 40.7597C197.036 40.7597 197.195 41.2448 197.195 41.2448C197.195 41.2448 164.541 48.0361 131.887 54.8274C99.2329 61.6187 66.5789 68.41 66.5789 68.41C66.5789 68.41 74.6828 66.6314 86.9181 63.8825C93.0358 62.5081 100.107 60.9719 107.734 59.2741C115.361 57.5763 123.545 55.7168 131.728 53.9381C149.684 49.8957 167.719 45.9341 180.193 43.1044C189.409 41.0023 195.527 39.6279 196.003 39.547Z" fill="white"/>
<path d="M197.513 46.419C197.592 46.419 197.672 46.9041 197.751 46.9041C197.831 46.9041 197.91 47.3892 197.99 47.3892C198.069 47.3892 198.149 47.7934 198.228 47.7934C198.307 47.7934 198.466 48.2785 198.466 48.2785C198.466 48.2785 165.494 53.2911 132.602 58.3846C99.6303 63.3973 66.7379 68.4907 66.7379 68.4907C66.7379 68.4907 74.9213 67.1163 87.236 65.0142C93.3537 63.9632 100.584 62.7505 108.211 61.4569C115.918 60.1633 124.18 58.7889 132.443 57.4144C150.717 54.3422 168.911 51.2699 181.543 49.1678C190.919 47.47 197.195 46.419 197.513 46.419Z" fill="white"/>
<path d="M198.704 53.372C198.704 53.372 198.784 53.8571 198.863 53.8571C198.863 53.8571 198.943 54.3422 199.022 54.3422C199.022 54.3422 199.102 54.8273 199.181 54.8273C199.26 54.8273 199.34 55.3932 199.34 55.3932C199.34 55.3932 166.209 58.708 132.999 61.942C99.7888 65.1759 66.6581 68.4907 66.6581 68.4907C66.6581 68.4907 74.9209 67.5205 87.3152 66.1461C93.5123 65.4185 100.742 64.61 108.449 63.7206C116.235 62.8313 124.498 61.8611 132.84 60.8909C151.273 58.7889 169.705 56.6868 182.417 55.2315C192.11 54.0996 198.466 53.372 198.704 53.372Z" fill="white"/>
<path d="M199.499 60.4059L199.578 60.9719L199.658 61.5378L199.737 62.0229L199.817 62.5888C199.817 62.5888 166.527 64.125 133.237 65.5802C99.9478 67.1164 66.6581 68.5716 66.6581 68.5716C66.6581 68.5716 75.0004 68.0866 87.3946 67.2781C93.5918 66.8738 100.901 66.4696 108.608 65.9845C116.394 65.4994 124.736 65.0143 133.079 64.4484C151.67 63.3165 170.261 62.1846 183.053 61.3761C192.984 60.8102 199.34 60.4059 199.499 60.4059Z" fill="white"/>
<path d="M199.896 69.2183C199.896 69.2183 166.606 68.9758 133.237 68.6524C99.8682 68.329 66.5786 68.0864 66.5786 68.0864C66.5786 68.0864 99.8682 67.8439 133.237 67.5205C166.606 67.1971 199.896 66.9546 199.896 66.9546L199.896 67.5205L199.896 68.0864L199.896 69.2183Z" fill="white"/>
<path d="M73.4115 197.849C73.4115 198.334 73.4115 198.819 73.491 199.304C73.491 199.789 73.491 200.275 73.5704 200.76C73.5704 201.245 73.5704 201.73 73.6499 202.053C73.7293 203.023 73.7293 203.509 73.7293 203.509C73.7293 203.509 71.9814 169.633 70.2335 135.838C68.4856 101.962 66.7377 68.1675 66.7377 68.1675C66.7377 68.1675 67.2144 77.0609 67.85 89.3499C68.1678 95.4944 68.5651 103.337 68.9623 111.017C69.3596 118.698 69.8363 127.672 70.2335 135.919C71.1075 152.331 71.9814 170.361 72.617 182.65C72.9348 188.632 73.2526 194.292 73.4115 197.849Z" fill="white"/>
<path d="M80.1647 197.526C80.2441 198.011 80.2441 198.496 80.2441 198.9C80.3236 199.385 80.3236 199.87 80.3236 200.275C80.403 200.76 80.403 201.164 80.403 201.568C80.4825 202.458 80.4825 203.024 80.4825 203.024C80.4825 203.024 77.0661 169.31 73.5703 135.596C70.0745 101.882 66.6582 68.1676 66.6582 68.1676C66.6582 68.1676 67.6115 77.3844 68.8033 89.2692C69.4389 95.1711 70.3129 103.499 71.0279 110.856C71.743 118.213 72.7758 127.753 73.5703 135.596C75.1593 151.361 77.225 170.441 78.4168 182.245C79.2113 188.066 79.8469 194.049 80.1647 197.526Z" fill="white"/>
<path d="M86.8387 196.798C86.9182 197.283 86.9182 197.687 86.9977 198.092C87.0771 198.577 87.0771 198.981 87.1565 199.385C87.236 199.87 87.236 200.275 87.3154 200.598C87.4743 201.487 87.4743 201.972 87.4743 201.972C87.4743 201.972 82.3101 168.501 77.1458 135.03C71.9816 101.558 66.8173 68.0867 66.8173 68.0867C66.8173 68.0867 68.3268 77.7077 70.0748 89.0265C70.9487 94.6859 72.2994 103.418 73.4117 110.451C74.524 117.485 76.113 127.511 77.2253 135.03C79.6088 150.148 82.7073 170.118 84.4552 181.518C85.3292 187.177 86.2826 193.483 86.8387 196.798Z" fill="white"/>
<path d="M93.4333 195.747C93.5127 196.232 93.5127 196.636 93.5922 197.04C93.6716 197.526 93.6716 197.93 93.7511 198.334C93.8305 198.738 93.8305 199.143 93.91 199.547C94.0689 200.355 94.0689 200.84 94.0689 200.84C94.0689 200.84 87.2362 167.692 80.324 134.463C73.4913 101.315 66.5791 68.0865 66.5791 68.0865C66.5791 68.0865 68.6448 77.9501 70.8694 88.7838C71.9817 94.2007 73.8885 103.256 75.3186 110.047C76.7487 116.838 78.8939 127.187 80.4035 134.383C83.4226 148.855 87.7923 169.714 90.0169 180.547C91.3676 185.964 92.7182 192.594 93.4333 195.747Z" fill="white"/>
<path d="M99.948 194.373C100.027 194.777 100.107 195.181 100.186 195.585C100.345 195.99 100.345 196.394 100.425 196.798C100.504 197.202 100.584 197.607 100.663 197.93C100.901 198.738 100.901 199.223 100.901 199.223C100.901 199.223 92.4002 166.48 83.899 133.655C75.3979 100.911 66.8967 68.0866 66.8967 68.0866C66.8967 68.0866 69.598 78.2736 72.2993 88.5414C73.65 93.7157 76.1129 103.094 77.7814 109.562C79.4498 116.03 82.31 126.702 84.1374 133.574C87.7127 147.319 93.4331 168.986 96.1344 179.335C97.4056 184.428 99.2329 191.3 99.948 194.373Z" fill="white"/>
<path d="M106.383 192.594C106.542 192.998 106.542 193.402 106.622 193.726C106.78 194.13 106.78 194.534 106.86 194.858C107.019 195.262 107.019 195.666 107.098 195.909C107.337 196.636 107.337 197.121 107.337 197.121C107.337 197.121 97.1669 164.863 87.0768 132.523C76.9071 100.264 66.817 67.9249 66.817 67.9249C66.817 67.9249 70.1539 78.3544 73.2524 88.0563C74.762 92.9072 77.8606 102.609 79.8468 108.754C81.8331 114.898 85.2494 126.055 87.3151 132.604C91.4465 145.621 98.5971 168.016 101.696 177.799C103.205 182.649 105.509 189.764 106.383 192.594Z" fill="white"/>
<path d="M112.66 190.573C112.819 190.977 112.819 191.381 112.978 191.705C113.137 192.109 113.137 192.513 113.216 192.836C113.375 193.241 113.375 193.564 113.455 193.887C113.693 194.615 113.772 195.019 113.772 195.019C113.772 195.019 102.014 163.327 90.2551 131.553C78.4965 99.7794 66.7379 68.0866 66.7379 68.0866C66.7379 68.0866 70.7104 78.6778 74.1267 87.8946C75.8746 92.503 79.6088 102.447 81.754 108.188C83.8991 113.928 88.1894 125.328 90.4935 131.472C95.1016 143.761 103.762 166.722 107.178 175.939C108.926 180.467 111.627 187.905 112.66 190.573Z" fill="white"/>
<path d="M118.778 188.147C118.937 188.471 118.937 188.875 119.095 189.198C119.254 189.522 119.254 189.926 119.413 190.249C119.572 190.573 119.572 190.977 119.652 191.219C119.969 191.866 119.969 192.351 119.969 192.351C119.969 192.351 106.701 161.305 93.3536 130.179C80.0854 99.1326 66.7378 68.0058 66.7378 68.0058C66.7378 68.0058 71.4253 78.7587 75.1595 87.4095C76.9868 91.6945 81.436 101.881 83.7401 107.298C86.0442 112.715 91.129 124.277 93.5919 130.098C98.5178 141.578 108.767 165.186 112.501 173.837C114.408 178.122 117.745 185.641 118.778 188.147Z" fill="white"/>
<path d="M124.816 185.479C124.975 185.803 124.975 186.207 125.133 186.449C125.292 186.773 125.292 187.177 125.451 187.42C125.61 187.743 125.61 188.066 125.769 188.39C126.087 189.037 126.087 189.441 126.087 189.441C126.087 189.441 111.309 159.042 96.4519 128.723C81.6742 98.3242 66.817 68.0058 66.817 68.0058C66.817 68.0058 72.2196 78.8396 76.1921 86.9245C78.1784 90.9669 83.3426 101.316 85.8056 106.328C88.2685 111.341 94.1479 123.145 96.7697 128.562C102.093 139.315 113.931 163.327 117.903 171.331C119.81 175.454 123.624 183.135 124.816 185.479Z" fill="white"/>
<path d="M130.616 182.568C130.774 182.892 130.774 183.296 130.933 183.539C131.092 183.862 131.092 184.266 131.251 184.509C131.41 184.832 131.41 185.156 131.569 185.398C131.887 185.964 131.887 186.368 131.887 186.368C131.887 186.368 115.599 156.778 99.3121 127.187C83.0249 97.5962 66.7376 68.0055 66.7376 68.0055C66.7376 68.0055 72.8552 78.9201 76.9866 86.4391C79.0523 90.1581 84.9316 100.668 87.5535 105.358C90.1754 110.047 96.8492 122.013 99.6299 127.025C105.191 137.05 118.777 161.305 122.909 168.824C125.054 172.543 129.424 180.385 130.616 182.568Z" fill="white"/>
<path d="M136.257 179.254C136.416 179.577 136.416 179.901 136.575 180.143C136.734 180.467 136.734 180.79 136.892 181.033C137.051 181.356 137.051 181.679 137.21 181.841C137.528 182.407 137.528 182.811 137.528 182.811C137.528 182.811 119.811 154.11 102.093 125.408C84.3759 96.7071 66.6585 68.0058 66.6585 68.0058C66.6585 68.0058 73.4912 78.9204 77.7815 85.8734C79.9267 89.3499 86.521 99.8602 89.2224 104.226C91.9237 108.592 99.4714 120.638 102.332 125.247C108.052 134.464 123.465 158.961 127.756 165.914C130.06 169.39 135.065 177.233 136.257 179.254Z" fill="white"/>
<path d="M141.739 175.777C141.898 176.02 141.898 176.424 142.056 176.666C142.215 176.909 142.215 177.313 142.374 177.556C142.533 177.798 142.533 178.122 142.692 178.364C143.01 178.849 143.01 179.254 143.01 179.254C143.01 179.254 123.942 151.442 104.874 123.63C85.8057 95.8176 66.7376 68.0056 66.7376 68.0056C66.7376 68.0056 74.3648 78.9202 78.7346 85.3073C80.9592 88.4604 88.3481 99.0516 91.0494 103.094C93.8301 107.056 102.252 119.183 105.192 123.387C111.071 131.876 128.232 156.454 132.602 162.841C134.906 165.994 140.467 173.918 141.739 175.777Z" fill="white"/>
<path d="M147.062 171.977C147.221 172.22 147.221 172.624 147.38 172.786C147.539 173.028 147.539 173.433 147.698 173.594C147.857 173.837 147.857 174.16 148.016 174.322C148.333 174.807 148.333 175.211 148.333 175.211C148.333 175.211 127.915 148.369 107.575 121.608C87.2362 94.8475 66.8175 68.0057 66.8175 68.0057C66.8175 68.0057 75.2392 78.8394 79.6884 84.6606C81.913 87.5711 90.0964 98.1623 92.8772 101.801C95.6579 105.439 105.033 117.485 107.973 121.366C113.931 129.127 132.92 153.625 137.369 159.446C139.594 162.275 145.791 170.28 147.062 171.977Z" fill="white"/>
<path d="M152.147 167.854C152.306 168.097 152.306 168.42 152.465 168.663C152.624 168.905 152.624 169.228 152.783 169.471C152.942 169.714 152.942 170.037 153.1 170.199C153.418 170.603 153.418 171.007 153.418 171.007C153.418 171.007 131.728 145.216 110.118 119.506C88.428 93.7156 66.8175 68.0057 66.8175 68.0057C66.8175 68.0057 75.9543 78.6777 80.483 84.0137C82.7076 86.6818 91.6854 97.1113 94.5457 100.426C97.4059 103.741 107.575 115.707 110.595 119.183C116.553 126.217 137.449 150.633 141.898 155.888C144.123 158.476 150.876 166.318 152.147 167.854Z" fill="white"/>
<path d="M157.073 163.569C157.232 163.731 157.232 164.135 157.391 164.297C157.55 164.459 157.55 164.863 157.709 165.025C157.867 165.186 157.867 165.59 158.026 165.671C158.344 166.076 158.344 166.48 158.344 166.48C158.344 166.48 135.462 141.821 112.581 117.162C89.6991 92.5031 66.8175 67.8442 66.8175 67.8442C66.8175 67.8442 76.7488 78.3545 81.198 83.1246C83.4226 85.4692 93.195 95.8179 95.9757 98.8093C98.7565 101.801 109.959 113.605 112.899 116.758C118.857 123.064 141.66 147.157 146.109 151.927C148.413 154.352 155.802 162.195 157.073 163.569Z" fill="white"/>
<path d="M161.76 158.961C161.919 159.122 161.919 159.527 162.078 159.688C162.237 159.85 162.237 160.254 162.396 160.416C162.555 160.578 162.555 160.901 162.714 161.063C163.032 161.386 163.032 161.79 163.032 161.79C163.032 161.79 139.038 138.344 114.964 114.817C90.8909 91.2902 66.8969 67.844 66.8969 67.844C66.8969 67.844 77.6227 78.1118 81.9924 82.3968C84.217 84.4989 94.7839 94.6858 97.5647 97.3539C100.266 100.022 112.422 111.583 115.362 114.413C121.161 120.072 145.95 143.761 150.32 147.965C152.465 150.067 160.489 157.748 161.76 158.961Z" fill="white"/>
<path d="M166.209 154.191C166.368 154.352 166.368 154.757 166.527 154.838C166.686 154.999 166.686 155.403 166.845 155.484C167.004 155.646 167.004 155.969 167.083 156.131C167.401 156.455 167.401 156.859 167.401 156.859C167.401 156.859 142.295 134.625 117.109 112.392C91.9233 90.1584 66.817 67.925 66.817 67.925C66.817 67.925 78.3373 77.9503 82.6276 81.6693C84.7728 83.5288 96.2136 93.4732 98.9149 95.8179C101.616 98.1625 114.646 109.481 117.506 111.988C123.227 117 149.922 140.123 154.133 143.842C156.357 145.621 165.017 153.059 166.209 154.191Z" fill="white"/>
<path d="M170.5 149.178C170.659 149.34 170.659 149.663 170.818 149.825C170.977 149.987 170.977 150.31 171.135 150.472C171.294 150.633 171.294 150.957 171.374 151.038C171.692 151.28 171.692 151.684 171.692 151.684C171.692 151.684 145.552 130.744 119.334 109.724C93.1153 88.7031 66.9762 67.7632 66.9762 67.7632C66.9762 67.7632 79.291 77.3842 83.4224 80.699C85.4881 82.316 97.8029 91.937 100.345 94.0391C102.888 96.1412 116.95 107.056 119.731 109.239C125.213 113.605 153.895 136 158.026 139.314C160.012 140.931 169.308 148.208 170.5 149.178Z" fill="white"/>
<path d="M174.472 143.842C174.631 143.923 174.631 144.327 174.71 144.489C174.869 144.57 174.869 144.974 174.949 145.136C175.108 145.216 175.108 145.621 175.187 145.702C175.505 145.944 175.425 146.348 175.425 146.348C175.425 146.348 148.254 126.702 121.082 107.056C93.9096 87.4095 66.7376 67.7633 66.7376 67.7633C66.7376 67.7633 79.8469 76.98 83.8194 79.8097C85.8057 81.265 98.9149 90.4818 101.378 92.2605C103.841 94.0391 118.777 104.549 121.479 106.49C126.723 110.29 157.311 131.796 161.283 134.625C163.349 136 173.36 143.034 174.472 143.842Z" fill="white"/>
<path d="M178.206 138.425C178.365 138.506 178.286 138.91 178.445 138.991C178.603 139.072 178.524 139.476 178.683 139.557C178.842 139.638 178.762 140.042 178.921 140.123C179.239 140.285 179.16 140.77 179.16 140.77C179.16 140.77 151.114 122.498 122.988 104.307C94.8629 86.1158 66.817 67.8439 66.817 67.8439C66.817 67.8439 80.7208 76.6565 84.4549 79.0819C86.3617 80.2947 100.266 89.1072 102.649 90.6433C104.953 92.1795 120.843 102.205 123.386 103.822C128.391 107.056 160.886 127.591 164.62 130.017C166.527 130.987 177.173 137.697 178.206 138.425Z" fill="white"/>
<path d="M181.702 132.685C181.861 132.766 181.782 133.17 181.94 133.251C182.099 133.332 182.02 133.736 182.179 133.817C182.338 133.898 182.258 134.302 182.417 134.302C182.656 134.463 182.656 134.868 182.656 134.868C182.656 134.868 153.736 118.051 124.816 101.235C95.8959 84.418 66.976 67.6015 66.976 67.6015C66.976 67.6015 81.6743 75.8481 85.1701 77.8693C86.918 78.8395 101.696 87.1669 103.841 88.4605C106.066 89.7541 122.83 99.2134 125.213 100.588C129.901 103.256 164.303 122.66 167.798 124.681C169.467 125.813 180.749 132.119 181.702 132.685Z" fill="white"/>
<path d="M184.96 126.783C185.119 126.864 185.039 127.268 185.198 127.349C185.357 127.43 185.278 127.834 185.436 127.915C185.595 127.996 185.516 128.4 185.595 128.4C185.834 128.562 185.834 128.966 185.754 128.966C185.754 128.966 156.04 113.605 126.325 98.3243C96.6111 83.0439 66.8967 67.6826 66.8967 67.6826C66.8967 67.6826 82.3101 75.3632 85.5675 77.0611C87.1565 77.8695 102.729 85.6311 104.794 86.6821C106.86 87.7331 124.578 96.5456 126.723 97.6775C131.013 99.8604 167.322 117.971 170.579 119.668C172.168 120.396 184.006 126.298 184.96 126.783Z" fill="white"/>
<path d="M187.899 120.719C188.058 120.8 187.979 121.204 188.058 121.285C188.217 121.366 188.138 121.77 188.217 121.851C188.376 121.932 188.297 122.336 188.376 122.336C188.614 122.417 188.535 122.902 188.535 122.902C188.535 122.902 158.106 109.077 127.676 95.3326C97.2467 81.5883 66.8172 67.7632 66.8172 67.7632C66.8172 67.7632 82.9456 74.797 85.8853 76.1715C87.3948 76.8182 103.682 83.9329 105.509 84.8223C107.337 85.6308 126.008 93.7965 127.914 94.6858C131.887 96.4645 170.023 113.119 172.963 114.413C174.552 114.898 187.025 120.315 187.899 120.719Z" fill="white"/>
<path d="M190.52 114.413C190.6 114.494 190.6 114.898 190.679 114.898C190.759 114.979 190.759 115.383 190.838 115.383C190.918 115.464 190.918 115.868 190.997 115.868C191.236 115.949 191.156 116.434 191.156 116.434C191.156 116.434 160.091 104.226 129.026 92.0179C97.961 79.8097 66.8959 67.6015 66.8959 67.6015C66.8959 67.6015 83.7394 73.9886 86.3612 74.9588C87.7119 75.4439 104.794 81.9118 106.462 82.5586C108.131 83.2054 127.596 90.5626 129.344 91.2094C132.84 92.5838 172.803 107.622 175.425 108.592C176.696 109.239 189.805 114.09 190.52 114.413Z" fill="white"/>
<path d="M192.904 107.945C192.984 107.945 192.984 108.43 193.063 108.43C193.143 108.43 193.143 108.915 193.222 108.915C193.302 108.915 193.302 109.401 193.381 109.401C193.54 109.481 193.54 109.966 193.54 109.966C193.54 109.966 161.919 99.3752 130.218 88.784C98.5971 78.1928 66.8964 67.6016 66.8964 67.6016C66.8964 67.6016 84.4549 73.1802 86.759 73.9078C87.8713 74.3121 105.748 79.9715 107.178 80.4566C108.608 80.9417 128.947 87.4096 130.457 87.8947C133.555 88.8649 175.187 102.205 177.491 102.933C178.603 103.418 192.189 107.784 192.904 107.945Z" fill="white"/>
<path d="M194.891 101.396C194.97 101.396 194.891 101.881 194.97 101.881C195.049 101.881 194.97 102.366 195.049 102.366C195.129 102.366 195.129 102.852 195.129 102.852C195.288 102.932 195.208 103.417 195.208 103.417C195.208 103.417 163.11 94.4432 130.933 85.5499C98.8353 76.5756 66.6579 67.6823 66.6579 67.6823C66.6579 67.6823 84.852 72.4524 86.7588 72.9374C87.7122 73.18 106.304 78.0309 107.495 78.3543C108.687 78.6777 129.821 84.2563 131.171 84.5797C133.793 85.3073 177.094 96.6262 179.08 97.1921C180.192 97.5155 194.334 101.235 194.891 101.396Z" fill="white"/>
<path d="M196.639 94.605C196.718 94.605 196.639 95.0901 196.718 95.0901C196.798 95.0901 196.718 95.5752 196.798 95.5752C196.877 95.5752 196.798 96.0603 196.877 96.0603C197.036 96.0603 196.956 96.6262 196.956 96.6262C196.956 96.6262 164.382 89.3498 131.887 82.1543C99.3916 74.9587 66.817 67.6823 66.817 67.6823C66.817 67.6823 85.5672 71.5631 87.1563 71.8865C87.9508 72.0482 107.178 76.0098 108.131 76.2523C109.085 76.4949 131.013 81.0224 132.046 81.1841C134.111 81.6692 179.08 90.886 180.669 91.2902C181.464 91.4519 196.162 94.5242 196.639 94.605Z" fill="white"/>
<path d="M197.99 87.7329C198.069 87.7329 197.99 88.218 198.069 88.218C198.149 88.218 198.069 88.7031 198.149 88.7031C198.228 88.7031 198.149 89.1881 198.228 89.1881C198.308 89.1881 198.308 89.7541 198.308 89.7541C198.308 89.7541 165.415 84.2564 132.602 78.6778C99.7098 73.1801 66.8969 67.6015 66.8969 67.6015C66.8969 67.6015 86.2828 70.5121 87.4745 70.7546C88.1101 70.8355 107.893 73.9077 108.688 73.9886C109.482 74.0694 132.046 77.5459 132.841 77.7076C134.43 77.9501 180.829 85.0649 182.02 85.2266C182.418 85.3074 197.593 87.652 197.99 87.7329Z" fill="white"/>
<path d="M199.022 80.6988L199.022 81.2647L199.022 81.8307L199.022 82.3158C199.102 82.3158 199.022 82.8817 199.022 82.8817C199.022 82.8817 165.892 79.0818 132.84 75.2819C99.7892 71.482 66.6584 67.6821 66.6584 67.6821C66.6584 67.6821 86.521 69.6225 87.3155 69.7033C87.7127 69.7842 108.131 71.7246 108.608 71.8054C109.085 71.8863 132.364 74.15 132.92 74.2309C133.953 74.3117 181.782 79.0818 182.576 79.1627C183.053 79.1627 198.784 80.6988 199.022 80.6988Z" fill="white"/>
<path d="M199.658 73.5844L199.658 74.1503L199.658 74.7163L199.658 75.2013L199.658 75.7673C199.658 75.7673 166.368 73.7461 133.158 71.7248C99.9479 69.7036 66.6583 67.6824 66.6583 67.6015C66.6583 67.6015 86.9975 68.4909 87.3948 68.5717C87.6331 68.5717 108.529 69.5419 108.767 69.5419C109.005 69.5419 132.92 70.593 133.158 70.6738C133.714 70.6738 182.735 72.9376 183.132 72.9376C183.45 72.8567 199.499 73.5844 199.658 73.5844Z" fill="white"/>
<path d="M199.896 69.2183C199.896 69.2183 166.606 68.9758 133.237 68.6524C99.9477 68.4098 66.5786 68.0864 66.5786 68.0864L133.237 67.5205L199.896 66.9546L199.896 67.5205L199.896 68.0864L199.896 69.2183Z" fill="white"/>
</g>
<path d="M220.632 68.0867C220.632 46.1767 238.111 28.3899 259.642 28.3899C281.173 28.3899 298.653 46.1767 298.653 68.0867C298.653 89.9968 281.173 107.784 259.642 107.784C238.111 107.783 220.632 89.9968 220.632 68.0867ZM297.381 68.0867C297.381 46.9043 280.458 29.6835 259.642 29.6835C238.827 29.6835 221.904 46.9043 221.904 68.0867C221.904 89.2691 238.827 106.49 259.642 106.49C280.458 106.49 297.381 89.2691 297.381 68.0867Z" fill="white"/>
<path d="M225.876 68.0869C225.876 49.1682 241.051 33.7261 259.643 33.7261C278.234 33.7261 293.409 49.1682 293.409 68.0869C293.409 87.0055 278.234 102.448 259.643 102.448C240.972 102.448 225.876 87.0055 225.876 68.0869ZM292.297 68.0869C292.297 49.7342 277.599 34.858 259.643 34.858C241.687 34.858 226.989 49.815 226.989 68.0869C226.989 86.3587 241.687 101.316 259.643 101.316C277.599 101.316 292.297 86.4396 292.297 68.0869Z" fill="white"/>
<path d="M231.12 68.0867C231.12 52.0786 243.912 39.0619 259.643 39.0619C275.374 39.0619 288.165 52.0786 288.165 68.0867C288.165 84.0948 275.374 97.1114 259.643 97.1114C243.912 97.1114 231.12 84.0947 231.12 68.0867ZM287.212 68.0867C287.212 52.6446 274.818 40.0321 259.643 40.0321C244.468 40.0321 232.073 52.6445 232.073 68.0867C232.073 83.5288 244.388 96.1412 259.643 96.1412C274.897 96.1412 287.212 83.5288 287.212 68.0867Z" fill="white"/>
<path d="M236.364 68.0869C236.364 54.9894 246.772 44.3982 259.643 44.3982C272.514 44.3982 282.922 54.9894 282.922 68.0869C282.922 81.1844 272.514 91.7756 259.643 91.7756C246.772 91.7756 236.364 81.1036 236.364 68.0869ZM282.127 68.0869C282.127 55.4745 272.037 45.2067 259.643 45.2067C247.249 45.2067 237.158 55.4745 237.158 68.0869C237.158 80.6993 247.249 90.9672 259.643 90.9672C272.037 90.9672 282.127 80.6994 282.127 68.0869Z" fill="white"/>
<path d="M241.608 68.0867C241.608 57.9806 249.711 49.7341 259.643 49.7341C269.574 49.7341 277.678 57.9806 277.678 68.0867C277.678 78.1929 269.574 86.4394 259.643 86.4394C249.711 86.4394 241.608 78.1928 241.608 68.0867ZM277.042 68.0867C277.042 58.304 269.256 50.3808 259.643 50.3808C250.029 50.3808 242.243 58.304 242.243 68.0867C242.243 77.8695 250.029 85.7926 259.643 85.7926C269.256 85.7926 277.042 77.8695 277.042 68.0867Z" fill="white"/>
<path d="M246.852 68.0866C246.852 60.891 252.572 55.0699 259.643 55.0699C266.714 55.0699 272.435 60.891 272.435 68.0866C272.435 75.2821 266.714 81.1032 259.643 81.1032C252.572 81.1032 246.852 75.2013 246.852 68.0866ZM271.958 68.0866C271.958 61.2144 266.476 55.555 259.643 55.555C252.89 55.555 247.328 61.1336 247.328 68.0866C247.328 74.9587 252.81 80.6181 259.643 80.6181C266.396 80.6181 271.958 74.9587 271.958 68.0866Z" fill="white"/>
<path d="M252.095 68.0868C252.095 63.8827 255.432 60.4062 259.643 60.4062C263.774 60.4062 267.19 63.8018 267.19 68.0868C267.19 72.291 263.853 75.7675 259.643 75.7675C255.511 75.6866 252.095 72.291 252.095 68.0868ZM266.873 68.0868C266.873 64.0444 263.615 60.7296 259.643 60.7296C255.67 60.7296 252.413 64.0444 252.413 68.0868C252.413 72.1293 255.67 75.444 259.643 75.444C263.615 75.4441 266.873 72.1293 266.873 68.0868Z" fill="white"/>
<path d="M257.338 68.0866C257.338 66.793 258.371 65.742 259.642 65.742C260.914 65.742 261.946 66.793 261.946 68.0866C261.946 69.3802 260.914 70.4312 259.642 70.4312C258.371 70.3504 257.338 69.3802 257.338 68.0866ZM261.788 68.0866C261.788 66.8739 260.834 65.9037 259.642 65.9037C258.451 65.9037 257.497 66.8739 257.497 68.0866C257.497 69.2994 258.451 70.2695 259.642 70.2695C260.834 70.1887 261.788 69.2185 261.788 68.0866Z" fill="white"/>
<path d="M319.389 68.0868C319.389 55.9595 329.082 46.1768 340.92 46.1768C352.758 46.1768 362.531 55.9595 362.531 68.0868C362.531 80.2142 352.838 89.9969 341 89.9969C329.162 89.9969 319.389 80.1333 319.389 68.0868ZM362.372 68.0868C362.372 56.0404 352.758 46.3385 341 46.3385C329.241 46.3385 319.628 56.1212 319.628 68.0868C319.628 80.0525 329.162 89.8352 341 89.8352C352.838 89.8352 362.372 80.0525 362.372 68.0868Z" fill="white"/>
<path d="M323.123 68.087C323.123 58.0617 331.148 49.9768 340.92 49.9768C350.693 49.9768 358.797 58.0617 358.797 68.087C358.797 78.1123 350.772 86.1971 341 86.1971C331.227 86.1971 323.123 78.0314 323.123 68.087ZM358.399 68.087C358.399 58.3043 350.613 50.3811 341 50.3811C331.386 50.3811 323.6 58.3043 323.6 68.087C323.6 77.8697 331.386 85.7929 341 85.7929C350.613 85.7929 358.399 77.8697 358.399 68.087Z" fill="white"/>
<path d="M326.858 68.0868C326.858 60.1636 333.135 53.7766 340.921 53.7766C348.707 53.7766 354.983 60.1636 354.983 68.0868C354.983 76.01 348.707 82.3971 340.921 82.3971C333.135 82.3971 326.858 76.01 326.858 68.0868ZM354.427 68.0868C354.427 60.5679 348.389 54.4234 341 54.4234C333.611 54.4234 327.573 60.5679 327.573 68.0868C327.573 75.6058 333.611 81.7503 341 81.7503C348.389 81.7503 354.427 75.6058 354.427 68.0868Z" fill="white"/>
<path d="M330.672 68.0867C330.672 62.2656 335.28 57.5763 341 57.5763C346.721 57.5763 351.329 62.2656 351.329 68.0867C351.329 73.9078 346.721 78.597 341 78.597C335.28 78.597 330.672 73.9078 330.672 68.0867ZM350.375 68.0867C350.375 62.8315 346.165 58.4657 340.921 58.4657C335.677 58.4657 331.546 62.7507 331.546 68.0867C331.546 73.3419 335.757 77.7077 341 77.7077C346.244 77.7077 350.375 73.3419 350.375 68.0867Z" fill="white"/>
<path d="M334.405 68.0867C334.405 64.3677 337.345 61.3763 341 61.3763C344.654 61.3763 347.594 64.3677 347.594 68.0867C347.594 71.8058 344.654 74.7972 341 74.7972C337.345 74.7972 334.405 71.8058 334.405 68.0867ZM346.402 68.0867C346.402 65.0145 343.939 62.589 341 62.589C337.981 62.589 335.597 65.0953 335.597 68.0867C335.597 71.159 338.06 73.5845 341 73.5845C343.939 73.5845 346.402 71.159 346.402 68.0867Z" fill="white"/>
<path d="M338.14 68.0868C338.14 66.4698 339.411 65.1763 341 65.1763C342.589 65.1763 343.86 66.4698 343.86 68.0868C343.86 69.7038 342.589 70.9974 341 70.9974C339.411 70.9974 338.14 69.7038 338.14 68.0868ZM342.43 68.0868C342.43 67.2783 341.794 66.6315 341 66.6315C340.205 66.6315 339.57 67.2783 339.57 68.0868C339.57 68.8953 340.205 69.5421 341 69.5421C341.794 69.5421 342.43 68.8953 342.43 68.0868Z" fill="white"/>
</svg>
